<svg xmlns="http://www.w3.org/2000/svg" xmlns:xlink="http://www.w3.org/1999/xlink" width="45.99" height="44.953" viewBox="0 0 45.99 44.953">
  <defs>
    <clipPath id="clip-path">
      <rect width="45.99" height="44.954" fill="none"/>
    </clipPath>
  </defs>
  <g id="Icn-CreditoRotativo" transform="translate(0 0)" clip-path="url(#clip-path)">
    <g id="Icn-CreditoRotativo-2" data-name="Icn-CreditoRotativo" transform="translate(-2094.316 -1869.408)">
      <path id="Path_407" data-name="Path 407" d="M2124.841,1888.232a2.9,2.9,0,0,1-4.771,2.228,2.949,2.949,0,0,1-1-1.682,8.252,8.252,0,0,0-1.976,1.137,7.977,7.977,0,0,0-2.545,3.725,7.525,7.525,0,0,0-.363,2.34,7.783,7.783,0,0,0,.25,1.977,8.1,8.1,0,0,0,.7,1.794v-1.34a.443.443,0,0,1,.148-.341.5.5,0,0,1,.352-.135.478.478,0,0,1,.329.135.448.448,0,0,1,.148.341v2.907a.446.446,0,0,1-.148.341.472.472,0,0,1-.329.136h-2.907a.5.5,0,0,1-.354-.136.468.468,0,0,1,0-.681.505.505,0,0,1,.354-.137h1.953a8.735,8.735,0,0,1-1.091-2.272,8.695,8.695,0,0,1,3.114-9.564,8.447,8.447,0,0,1,2.361-1.25,2.773,2.773,0,0,1,.967-1.738,2.914,2.914,0,0,1,4.8,2.214m6.293,1.932h-2.908a.455.455,0,0,0-.33.147.484.484,0,0,0-.147.353v2.907a.455.455,0,0,0,.147.33.449.449,0,0,0,.33.147.48.48,0,0,0,.353-.147.457.457,0,0,0,.147-.33v-1.34a8.18,8.18,0,0,1,.705,1.784,7.869,7.869,0,0,1-.114,4.327,7.978,7.978,0,0,1-1.011,2.055,7.506,7.506,0,0,1-1.535,1.647,7.837,7.837,0,0,1-1.975,1.159,2.9,2.9,0,0,0-1-1.692,2.923,2.923,0,1,0,1,2.714,8.459,8.459,0,0,0,2.362-1.25,9.24,9.24,0,0,0,1.851-1.885,8.411,8.411,0,0,0,1.215-2.386,8.557,8.557,0,0,0,.432-2.726,8.458,8.458,0,0,0-.386-2.567,8.765,8.765,0,0,0-1.09-2.272h1.954a.48.48,0,0,0,.352-.147.457.457,0,0,0,.148-.33.5.5,0,0,0-.5-.5m-9.2,15.517a1.938,1.938,0,0,1-1.931-1.931,1.884,1.884,0,0,1,.567-1.386,1.936,1.936,0,1,1,1.364,3.317" transform="translate(8.672 7.704)" fill="#fff"/>
      <g id="Group_256" data-name="Group 256" transform="translate(2094.316 1869.408)">
        <path id="Path_408" data-name="Path 408" d="M2109.579,1894.92a.953.953,0,0,0,1.391,0,.969.969,0,0,0,.279-.672v-5.936h5.936a1.032,1.032,0,0,0,1.02-1.021.936.936,0,0,0-.3-.672.984.984,0,0,0-.718-.3h-5.936v-5.936a.974.974,0,1,0-1.948,0v5.936h-5.936a.982.982,0,0,0-.718.3.93.93,0,0,0-.3.672,1.032,1.032,0,0,0,1.02,1.021h5.936v5.936A.969.969,0,0,0,2109.579,1894.92Z" transform="translate(-2090.431 -1864.568)" fill="#fff"/>
        <path id="Path_409" data-name="Path 409" d="M2118.041,1905.024h-18.164a3.151,3.151,0,0,1-.951-.139,4.673,4.673,0,0,1-.858-.371,4.028,4.028,0,0,1-1.252-1.252,2.865,2.865,0,0,1-.347-.812,3.592,3.592,0,0,1,0-1.809,3.668,3.668,0,0,1,.347-.858l15.676-27.454a1.62,1.62,0,0,1,.9-.812,1.888,1.888,0,0,1,1.53,0,1.632,1.632,0,0,1,.905.812l10.994,19.258a13.12,13.12,0,0,1,1.984-.539l-11.262-19.693a3.646,3.646,0,0,0-1.484-1.46,3.958,3.958,0,0,0-3.8,0,3.639,3.639,0,0,0-1.484,1.46l-15.674,27.408a5.111,5.111,0,0,0,.022,5.472,5.174,5.174,0,0,0,4.755,2.737h18.446A13.183,13.183,0,0,1,2118.041,1905.024Z" transform="translate(-2094.316 -1869.408)" fill="#fff"/>
      </g>
    </g>
  </g>
</svg>
