<svg xmlns="http://www.w3.org/2000/svg" width="45.855" height="41.549" viewBox="0 0 45.855 41.549">
  <g id="Icn-CreditoRotativo" transform="translate(-2023.569 -1927.607)">
    <path id="Path_414" data-name="Path 414" d="M2069.043,1937.794a2.183,2.183,0,0,0-1.021-.856l-20.609-9.115a2.152,2.152,0,0,0-.455-.161,1.968,1.968,0,0,0-.914,0,2.147,2.147,0,0,0-.455.161l-20.617,9.124a2.184,2.184,0,0,0-1.021.856,2.267,2.267,0,0,0-.381,1.235,2.239,2.239,0,0,0,1.4,2.091l.913.429v7.784a1.128,1.128,0,0,0,.348.833,1.079,1.079,0,0,0,.779.349,1.19,1.19,0,0,0,1.181-1.182v-6.764l17.392,7.731a1.806,1.806,0,0,0,.455.16,1.93,1.93,0,0,0,.914,0,1.8,1.8,0,0,0,.455-.16l20.622-9.189a2.239,2.239,0,0,0,1.4-2.091A2.266,2.266,0,0,0,2069.043,1937.794Zm-22.55,10.417-20.618-9.182,20.618-9.124,20.618,9.124Z" transform="translate(0 0)" fill="#fff"/>
    <path id="Path_415" data-name="Path 415" d="M2043.724,1957.059a22.882,22.882,0,0,1-3.937-.482,21.526,21.526,0,0,1-4.537-1.451,12.262,12.262,0,0,1-1.853-1.074,7.153,7.153,0,0,1-1.369-1.235,4.343,4.343,0,0,1-.806-1.235,3.487,3.487,0,0,1-.268-1.343v-7.947l-2.309-1.02v8.967a5.77,5.77,0,0,0,1.616,4.081,12.9,12.9,0,0,0,4.054,2.873,24.015,24.015,0,0,0,5.235,1.689,25.072,25.072,0,0,0,4.34.5A20.486,20.486,0,0,1,2043.724,1957.059Z" transform="translate(1.798 4.844)" fill="#fff"/>
    <path id="Path_416" data-name="Path 416" d="M2055.646,1945.23a2.951,2.951,0,0,1-4.849,2.265,2.983,2.983,0,0,1-1.016-1.709,8.415,8.415,0,0,0-2.009,1.154,8.119,8.119,0,0,0-2.585,3.787,7.6,7.6,0,0,0-.37,2.378,7.91,7.91,0,0,0,.253,2.009,8.217,8.217,0,0,0,.717,1.824v-1.363a.454.454,0,0,1,.149-.347.513.513,0,0,1,.359-.138.483.483,0,0,1,.334.138.451.451,0,0,1,.15.347v2.956a.451.451,0,0,1-.15.347.483.483,0,0,1-.334.138h-2.956a.514.514,0,0,1-.359-.138.478.478,0,0,1,0-.693.513.513,0,0,1,.359-.138h1.986a8.89,8.89,0,0,1-1.109-2.309,8.84,8.84,0,0,1,1.283-7.815,8.807,8.807,0,0,1,1.881-1.9,8.566,8.566,0,0,1,2.4-1.271,2.814,2.814,0,0,1,.982-1.767,2.962,2.962,0,0,1,4.883,2.251m6.4,1.963h-2.955a.462.462,0,0,0-.334.15.488.488,0,0,0-.15.359v2.955a.516.516,0,0,0,.485.485.492.492,0,0,0,.359-.15.467.467,0,0,0,.149-.335V1949.3a8.27,8.27,0,0,1,.717,1.812,7.987,7.987,0,0,1-.117,4.4,8.066,8.066,0,0,1-1.026,2.089,7.641,7.641,0,0,1-1.559,1.674,7.971,7.971,0,0,1-2.009,1.178,2.937,2.937,0,0,0-1.016-1.72,2.97,2.97,0,1,0,1.016,2.759,8.585,8.585,0,0,0,2.4-1.271,9.393,9.393,0,0,0,1.881-1.915,8.591,8.591,0,0,0,1.235-2.426,8.927,8.927,0,0,0,.047-5.38,8.941,8.941,0,0,0-1.109-2.309h1.985a.488.488,0,0,0,.359-.149.468.468,0,0,0,.15-.334.494.494,0,0,0-.15-.359.489.489,0,0,0-.359-.15m-9.351,15.771a1.969,1.969,0,0,1-1.963-1.963,1.912,1.912,0,0,1,.577-1.407,1.949,1.949,0,0,1,2.771,0,1.913,1.913,0,0,1,.577,1.407,1.97,1.97,0,0,1-1.963,1.963" transform="translate(6.828 5.199)" fill="#fff"/>
  </g>
</svg>
