<svg xmlns="http://www.w3.org/2000/svg" width="45.677" height="43.645" viewBox="0 0 45.677 43.645">
  <path id="Icn-Sobregiro7_0" data-name="Icn-Sobregiro7/0" d="M336.92,2756.872a1.24,1.24,0,0,0,.092.162,1.629,1.629,0,0,1,.094.164l-17.449-6.42a1.917,1.917,0,0,1-1.141-1.024,1.955,1.955,0,0,1-.068-1.535l5.258-14.377,1.163,2.512-4.559,12.564,15.913,5.77a8.28,8.28,0,0,0,.256,1.139,5.59,5.59,0,0,0,.442,1.047m-.7-3.582-13.727-29.407a2.02,2.02,0,0,1-.046-1.535,1.827,1.827,0,0,1,1.024-1.117l12.749-5.956v2.187l-11.912,5.583L337.2,2750.73l-.046.094a5.884,5.884,0,0,0-.6,1.163,4.313,4.313,0,0,0-.28,1.257Zm1.954-4.095,2-3.07V2716.3h15.866v20.567h.048v.046l1.954,3.024V2716.3a1.884,1.884,0,0,0-.581-1.373,1.944,1.944,0,0,0-1.42-.581H340.176a1.938,1.938,0,0,0-1.419.581,1.88,1.88,0,0,0-.582,1.373Zm25.36,6.747a4.312,4.312,0,0,0,.348-.977,4.605,4.605,0,0,0,.116-1.023,3.505,3.505,0,0,0-.162-1.071,3.638,3.638,0,0,0-.488-.977l-8.934-13.913a4.089,4.089,0,0,0-1.443-1.327,3.79,3.79,0,0,0-1.861-.488,3.872,3.872,0,0,0-1.907.488,4.089,4.089,0,0,0-1.443,1.327l-8.934,13.913a5.7,5.7,0,0,0-.466.977,3.12,3.12,0,0,0-.186,1.071,4.526,4.526,0,0,0,.118,1.023,3.271,3.271,0,0,0,.395.977,3.546,3.546,0,0,0,.582.838,3.755,3.755,0,0,0,.814.651,3.809,3.809,0,0,0,1,.42,4.328,4.328,0,0,0,1.093.139h17.868a4.329,4.329,0,0,0,1.093-.139,3.81,3.81,0,0,0,1-.42,4.384,4.384,0,0,0,.768-.651,4.987,4.987,0,0,0,.628-.838m-1.769-.955a1.83,1.83,0,0,1-1.721,1.048H342.178a1.868,1.868,0,0,1-1.769-1.048,1.844,1.844,0,0,1,.094-2.023l8.934-13.911a1.646,1.646,0,0,1,.745-.676,2.3,2.3,0,0,1,.931-.208,2.138,2.138,0,0,1,.907.208,1.975,1.975,0,0,1,.768.676l8.934,13.911a1.9,1.9,0,0,1,.046,2.023m-6-6.607a.974.974,0,0,1,.278.675,1.023,1.023,0,0,1-.278.72.909.909,0,0,1-.7.3h-2.978v2.978a.972.972,0,0,1-.278.675.915.915,0,0,1-.7.3.984.984,0,0,1-.721-.3.934.934,0,0,1-.3-.675v-2.978h-2.976a.936.936,0,0,1-.676-.3.983.983,0,0,1-.3-.72,1.037,1.037,0,0,1,.978-.977h2.976V2745.1a.91.91,0,0,1,.3-.7,1.023,1.023,0,0,1,.721-.279.952.952,0,0,1,.977.977v2.978h2.978a.913.913,0,0,1,.7.3" transform="translate(-318.323 -2714.344)" fill="#fff"/>
</svg>
