<svg xmlns="http://www.w3.org/2000/svg" width="46.341" height="44.223" viewBox="0 0 46.341 44.223">
  <path id="Icn-CreditoHipotecario" d="M516.312,2728.489a.935.935,0,0,1,.444.643.951.951,0,0,1-.148.79.93.93,0,0,1-.741.467,1.183,1.183,0,0,1-.69-.123l-16.781-11.7a4.979,4.979,0,0,0-5.381,0l-16.731,11.7a1.278,1.278,0,0,1-.815.123.962.962,0,0,1-.667-.467,1.167,1.167,0,0,1-.123-.79.831.831,0,0,1,.469-.643l16.732-11.7a7.017,7.017,0,0,1,3.849-1.136,6.78,6.78,0,0,1,3.8,1.136Zm-23.791,23.741c-.131.229-.256.454-.37.665a3.267,3.267,0,0,0-.272.667h-6.712a6.32,6.32,0,0,1-6.318-6.317V2732.19l13.03-9.082a7.017,7.017,0,0,1,3.849-1.135,6.779,6.779,0,0,1,3.8,1.135l13.03,9.082v5.233a5.8,5.8,0,0,0-.937-1.087,8.072,8.072,0,0,0-1.185-.888v-2.171l-12.043-8.392a4.979,4.979,0,0,0-5.381,0l-12.041,8.392v13.967a4.1,4.1,0,0,0,1.233,3.012,4.039,4.039,0,0,0,2.961,1.233h4.244v-10.563a2.106,2.106,0,0,1,2.074-2.072h8.44a2.016,2.016,0,0,1,.567.076,2.433,2.433,0,0,1,.469.17l-1.185,1.826h-8.292v10.563h1.529Zm27.985,5.478a4.576,4.576,0,0,0,.37-1.036,4.891,4.891,0,0,0,.123-1.085,3.719,3.719,0,0,0-.172-1.136,3.859,3.859,0,0,0-.518-1.036l-9.476-14.758a4.336,4.336,0,0,0-1.53-1.407,4.11,4.11,0,0,0-2.023-.518,4.01,4.01,0,0,0-1.974.518,4.336,4.336,0,0,0-1.53,1.407l-9.476,14.758a3.813,3.813,0,0,0-.518,1.036,3.72,3.72,0,0,0-.174,1.136,4.8,4.8,0,0,0,.125,1.085,4.5,4.5,0,0,0,.37,1.036,5.279,5.279,0,0,0,.667.889,4.684,4.684,0,0,0,.813.69,5.11,5.11,0,0,0,1.087.446,4.341,4.341,0,0,0,1.136.146h18.953a4.622,4.622,0,0,0,1.159-.146,4.057,4.057,0,0,0,1.061-.446,4.014,4.014,0,0,0,.864-.69,5.279,5.279,0,0,0,.667-.889m-1.876-1.013a1.942,1.942,0,0,1-1.826,1.112H497.852a1.981,1.981,0,0,1-1.876-1.112,1.955,1.955,0,0,1,.1-2.146l9.476-14.756a1.771,1.771,0,0,1,.764-.717,2.381,2.381,0,0,1,1.012-.221,2.268,2.268,0,0,1,.962.221,1.775,1.775,0,0,1,.766.717l9.476,14.756a1.958,1.958,0,0,1,.1,2.146m-6.367-7.008a.968.968,0,0,0-.741-.32h-3.159v-3.159a.969.969,0,0,0-.321-.741,1.028,1.028,0,0,0-.715-.3,1.083,1.083,0,0,0-.764.3.965.965,0,0,0-.322.741v3.159h-3.157a.968.968,0,0,0-.741.32,1.036,1.036,0,0,0-.3.716,1.086,1.086,0,0,0,.3.764.963.963,0,0,0,.741.322h3.157v3.159a.99.99,0,0,0,.322.716,1.044,1.044,0,0,0,.764.32,1.1,1.1,0,0,0,1.036-1.036v-3.159h3.159a.963.963,0,0,0,.741-.322,1.085,1.085,0,0,0,.3-.764,1.034,1.034,0,0,0-.3-.716" transform="translate(-474.659 -2715.656)" fill="#fff"/>
</svg>
