<svg xmlns="http://www.w3.org/2000/svg" width="45.742" height="43.297" viewBox="0 0 45.742 43.297">
  <path id="Icn-CreditoPersonal" d="M807.5,2714.344a4.657,4.657,0,0,1,2.193.562,4.2,4.2,0,0,1,1.711,1.683l18.066,31.591a5.893,5.893,0,0,1-.027,6.309,5.962,5.962,0,0,1-5.479,3.152H791.036a5.962,5.962,0,0,1-5.479-3.152,5.893,5.893,0,0,1-.026-6.309l18.066-31.591a4.191,4.191,0,0,1,1.711-1.683,4.65,4.65,0,0,1,2.191-.562m0,2.245a3.593,3.593,0,0,0-.881.186,1.869,1.869,0,0,0-1.043.938l-18.066,31.644a4.136,4.136,0,0,0-.4.987,4.089,4.089,0,0,0,0,2.085,3.262,3.262,0,0,0,.4.936,4.34,4.34,0,0,0,.641.8,4.458,4.458,0,0,0,.8.642,5.289,5.289,0,0,0,.989.427,3.577,3.577,0,0,0,1.095.161h32.927a3.6,3.6,0,0,0,1.1-.161,5.338,5.338,0,0,0,.989-.427,4.644,4.644,0,0,0,1.444-1.444,3.407,3.407,0,0,0,.4-.936,4.139,4.139,0,0,0,0-2.085,4.355,4.355,0,0,0-.4-.987l-18.068-31.644a1.877,1.877,0,0,0-1.042-.937,3.618,3.618,0,0,0-.883-.186m8.794,23.172a1.135,1.135,0,0,0-.828-.347h-6.842v-6.842a1.123,1.123,0,1,0-2.246,0v6.842h-6.842a1.132,1.132,0,0,0-.828.347,1.072,1.072,0,0,0-.347.775,1.189,1.189,0,0,0,1.175,1.177h6.842v6.842a1.12,1.12,0,0,0,.322.775,1.1,1.1,0,0,0,1.6,0,1.119,1.119,0,0,0,.322-.775v-6.842h6.842a1.189,1.189,0,0,0,1.175-1.177,1.079,1.079,0,0,0-.347-.775" transform="translate(-784.629 -2714.344)" fill="#fff"/>
</svg>
