<svg xmlns="http://www.w3.org/2000/svg" width="49.511" height="39.764" viewBox="0 0 49.511 39.764">
  <g id="Icn-CreditoUniversitario" transform="translate(-2023.569 -1867.021)">
    <g id="Group_258" data-name="Group 258" transform="translate(2049.561 1886.911)">
      <path id="Path_410" data-name="Path 410" d="M2066.108,1896.9a3.393,3.393,0,0,0-.445-.89l-8.137-12.671a3.728,3.728,0,0,0-1.313-1.208,3.468,3.468,0,0,0-1.7-.445,3.539,3.539,0,0,0-1.737.445,3.721,3.721,0,0,0-1.314,1.208l-8.136,12.671a5.1,5.1,0,0,0-.424.89,2.842,2.842,0,0,0-.17.975,4.191,4.191,0,0,0,.1.932,3.024,3.024,0,0,0,.362.89,3.123,3.123,0,0,0,.53.763,3.4,3.4,0,0,0,.74.593,3.518,3.518,0,0,0,.91.382,3.99,3.99,0,0,0,1,.126h16.273a3.95,3.95,0,0,0,.994-.126,3.5,3.5,0,0,0,.913-.382,4.03,4.03,0,0,0,.7-.593,4.562,4.562,0,0,0,.573-.763,3.862,3.862,0,0,0,.316-.89,4.111,4.111,0,0,0,.107-.932A3.28,3.28,0,0,0,2066.108,1896.9Zm-1.886,1.928a1.667,1.667,0,0,1-1.568.953h-16.273a1.7,1.7,0,0,1-1.611-.953,1.681,1.681,0,0,1,.085-1.844l8.136-12.67a1.489,1.489,0,0,1,.678-.614,2.042,2.042,0,0,1,.848-.191,1.9,1.9,0,0,1,.824.191,1.8,1.8,0,0,1,.7.614l8.136,12.67A1.739,1.739,0,0,1,2064.221,1898.831Z" transform="translate(-2042.736 -1881.689)" fill="#fff"/>
      <path id="Path_411" data-name="Path 411" d="M2056.216,1890.635H2053.5v-2.712a.866.866,0,0,0-.889-.889.943.943,0,0,0-.659.253.836.836,0,0,0-.274.636v2.712h-2.712a.942.942,0,0,0-.89.89.892.892,0,0,0,.274.658.849.849,0,0,0,.616.275h2.712v2.712a.854.854,0,0,0,.274.614.9.9,0,0,0,.659.275.828.828,0,0,0,.636-.275.882.882,0,0,0,.253-.614v-2.712h2.712a.826.826,0,0,0,.636-.275.934.934,0,0,0,.254-.658.886.886,0,0,0-.254-.614A.831.831,0,0,0,2056.216,1890.635Z" transform="translate(-2040.833 -1879.786)" fill="#fff"/>
    </g>
    <path id="Path_412" data-name="Path 412" d="M2069.1,1877.22a2.186,2.186,0,0,0-1.022-.857l-20.634-9.126a2.025,2.025,0,0,0-.456-.161,1.973,1.973,0,0,0-.916,0,2.025,2.025,0,0,0-.456.161l-20.642,9.135a2.173,2.173,0,0,0-1.022.855,2.276,2.276,0,0,0-.381,1.237,2.24,2.24,0,0,0,1.4,2.094l.914.43v7.793a1.133,1.133,0,0,0,.348.835,1.079,1.079,0,0,0,.78.349,1.191,1.191,0,0,0,1.183-1.184v-6.772l17.413,7.742a1.848,1.848,0,0,0,.456.16,1.935,1.935,0,0,0,.916,0,1.851,1.851,0,0,0,.456-.16l20.646-9.2a2.244,2.244,0,0,0,1.4-2.094A2.268,2.268,0,0,0,2069.1,1877.22Zm-22.577,10.428-20.642-9.191,20.642-9.134,20.642,9.134Z" transform="translate(0)" fill="#fff"/>
    <path id="Path_413" data-name="Path 413" d="M2043.741,1896.492a22.744,22.744,0,0,1-3.942-.484,21.536,21.536,0,0,1-4.543-1.451,12.5,12.5,0,0,1-1.855-1.075,7.118,7.118,0,0,1-1.371-1.238,4.33,4.33,0,0,1-.807-1.237,3.487,3.487,0,0,1-.268-1.343v-7.956l-2.312-1.021v8.977a5.771,5.771,0,0,0,1.618,4.084,12.859,12.859,0,0,0,4.059,2.876,24.017,24.017,0,0,0,5.241,1.692,24.94,24.94,0,0,0,4.345.5A20.431,20.431,0,0,1,2043.741,1896.492Z" transform="translate(1.807 4.866)" fill="#fff"/>
  </g>
</svg>
