<svg xmlns="http://www.w3.org/2000/svg" width="44.256" height="46.547" viewBox="0 0 44.256 46.547">
  <path id="Icn-Libranza" d="M673.912,2729.459a1.07,1.07,0,0,1-.354.819,1.141,1.141,0,0,1-.791.326H630.857a1.206,1.206,0,0,1-.847-.326,1.124,1.124,0,0,1,0-1.638,1.206,1.206,0,0,1,.847-.327h41.909a1.142,1.142,0,0,1,.791.327,1.073,1.073,0,0,1,.354.819m-33.26-6.518a2.215,2.215,0,0,0,.683-1.612v-4.694a2.212,2.212,0,0,0-.683-1.61,2.276,2.276,0,0,0-1.664-.681H634.35a2.274,2.274,0,0,0-1.664.681,2.206,2.206,0,0,0-.683,1.61v4.694a2.209,2.209,0,0,0,.683,1.612,2.273,2.273,0,0,0,1.664.679h4.638a2.275,2.275,0,0,0,1.664-.679m25.729,35.495a4.123,4.123,0,0,0,.41-1.091,5.406,5.406,0,0,0,.136-1.2,4.419,4.419,0,0,0-.19-1.281,4.163,4.163,0,0,0-.574-1.174l-10.477-16.26v-.056a4.568,4.568,0,0,0-1.69-1.528,4.632,4.632,0,0,0-2.183-.545,4.74,4.74,0,0,0-2.239.545,4.554,4.554,0,0,0-1.69,1.528v.056l-10.477,16.26a6.211,6.211,0,0,0-.547,1.174,3.881,3.881,0,0,0-.218,1.281,5.406,5.406,0,0,0,.136,1.2,3.252,3.252,0,0,0,.464,1.091,4.067,4.067,0,0,0,.683.981,4.39,4.39,0,0,0,.953.765,3.613,3.613,0,0,0,1.173.545,5.039,5.039,0,0,0,1.283.164h20.954a5.026,5.026,0,0,0,1.282-.164,3.63,3.63,0,0,0,1.173-.545,5.2,5.2,0,0,0,.9-.765,5.757,5.757,0,0,0,.735-.981m-2.183-3.492a2.214,2.214,0,0,1,.11,2.4,2.154,2.154,0,0,1-2.019,1.2H641.334a2.31,2.31,0,0,1-1.964-3.6l10.477-16.263a2.141,2.141,0,0,1,.845-.817,2.347,2.347,0,0,1,1.119-.274,2.241,2.241,0,0,1,1.063.274,2.141,2.141,0,0,1,.845.817Zm-6.929-5.349a1.146,1.146,0,0,1-.819,1.964h-3.492v3.492a1.153,1.153,0,0,1-.354.845,1.1,1.1,0,0,1-.791.356,1.214,1.214,0,0,1-1.2-1.2v-3.492h-3.492a1.135,1.135,0,0,1-.791-.327,1.123,1.123,0,0,1,0-1.638,1.135,1.135,0,0,1,.791-.327h3.492v-3.493a1.21,1.21,0,0,1,1.2-1.2,1.109,1.109,0,0,1,.791.354,1.163,1.163,0,0,1,.354.847v3.493h3.492a1.112,1.112,0,0,1,.819.327m3.028-30.258a1.1,1.1,0,0,1,.791-.354h2.347a1.073,1.073,0,0,1,.819.354,1.141,1.141,0,0,1,.327.791v2.347a1.117,1.117,0,0,1-1.146,1.146h-2.347a1.135,1.135,0,0,1-.791-.327,1.064,1.064,0,0,1-.354-.819v-2.347a1.1,1.1,0,0,1,.354-.791m6.985,0a1.1,1.1,0,0,1,.791-.354h2.347a1.073,1.073,0,0,1,.819.354,1.142,1.142,0,0,1,.327.791v2.347a1.116,1.116,0,0,1-1.146,1.146h-2.347a1.136,1.136,0,0,1-.791-.327,1.064,1.064,0,0,1-.354-.819v-2.347a1.1,1.1,0,0,1,.354-.791" transform="translate(-629.656 -2714.344)" fill="#fff"/>
</svg>
