<svg xmlns="http://www.w3.org/2000/svg" width="46.344" height="46.293" viewBox="0 0 46.344 46.293">
  <path id="Icn-CreditoRotativo24_7" data-name="Icn-CreditoRotativo24/7" d="M181.536,2756.294v.148H166.779a2.106,2.106,0,0,1-2.123-2.123v-33.659a2.109,2.109,0,0,1,2.123-2.123h4.195v2.123h-4.195v33.659h15.1a4.444,4.444,0,0,0-.27.987,6.5,6.5,0,0,0-.074.987m-10.563-18.8V2733.3a2.109,2.109,0,0,1,2.123-2.123h4.195a2.109,2.109,0,0,1,2.123,2.123v4.195a2.109,2.109,0,0,1-2.123,2.123H173.1a2.109,2.109,0,0,1-2.123-2.123m6.317,4.2a2.106,2.106,0,0,1,2.123,2.121V2748a2.106,2.106,0,0,1-2.123,2.123H173.1a2.105,2.105,0,0,1-2.123-2.123v-4.195a2.106,2.106,0,0,1,2.123-2.121Zm-3.159-16.831a1.1,1.1,0,0,1-1.036-1.036v-8.44a.965.965,0,0,1,.321-.741,1.028,1.028,0,0,1,.715-.3,1.092,1.092,0,0,1,.766.3.97.97,0,0,1,.321.741v8.44a.992.992,0,0,1-.321.716,1.043,1.043,0,0,1-.766.32m20.039-4.195h-16.88v-2.123h16.88Zm-6.317,10.512a2,2,0,0,1,1.456.618,2.05,2.05,0,0,1,.616,1.5v4.195a2.047,2.047,0,0,1-.616,1.5,1.989,1.989,0,0,1-1.456.618h-4.245a1.989,1.989,0,0,1-1.456-.618,2.047,2.047,0,0,1-.616-1.5V2733.3a2.05,2.05,0,0,1,.616-1.5,2,2,0,0,1,1.456-.618Zm-6.317,12.635V2748a2.055,2.055,0,0,0,.616,1.507,2,2,0,0,0,1.456.616h.79l4.984-7.749a2.616,2.616,0,0,0-.69-.493,1.838,1.838,0,0,0-.839-.2h-4.245a2,2,0,0,0-1.456.616,2.05,2.05,0,0,0-.616,1.5m28.971,14.658a4.574,4.574,0,0,0,.37-1.036,4.886,4.886,0,0,0,.123-1.085,3.768,3.768,0,0,0-.172-1.136,3.9,3.9,0,0,0-.518-1.036l-9.478-14.757a4.35,4.35,0,0,0-1.529-1.408,4.044,4.044,0,0,0-1.974-.518,4.127,4.127,0,0,0-2.023.518,4.342,4.342,0,0,0-1.53,1.408l-9.476,14.757a5.932,5.932,0,0,0-.494,1.036,3.31,3.31,0,0,0-.2,1.136,4.886,4.886,0,0,0,.123,1.085,3.514,3.514,0,0,0,.42,1.036,3.683,3.683,0,0,0,.618.889,3.959,3.959,0,0,0,.862.69,4.079,4.079,0,0,0,1.061.446,4.634,4.634,0,0,0,1.161.146h18.952a4.622,4.622,0,0,0,1.159-.146,4.056,4.056,0,0,0,1.061-.446,4.633,4.633,0,0,0,.815-.69,5.225,5.225,0,0,0,.666-.889m-1.876-1.011a1.941,1.941,0,0,1-1.826,1.11H187.853a1.98,1.98,0,0,1-1.876-1.11,1.958,1.958,0,0,1,.1-2.148l9.476-14.756a1.731,1.731,0,0,1,.79-.715,2.377,2.377,0,0,1,.987-.223,2.22,2.22,0,0,1,.962.223,2.084,2.084,0,0,1,.815.715l9.476,14.756a2.026,2.026,0,0,1,.049,2.148m-14.46-26.282h4.195a2.109,2.109,0,0,1,2.123,2.123v2.961a6.329,6.329,0,0,0-1.53-.667,5.949,5.949,0,0,0-1.628-.221,6.234,6.234,0,0,0-5.182,2.713,1.849,1.849,0,0,1-.074-.3,1.711,1.711,0,0,1-.025-.3V2733.3a2.109,2.109,0,0,1,2.123-2.123m8.094,19.272a1.034,1.034,0,0,1,.3.716,1.089,1.089,0,0,1-.3.766.963.963,0,0,1-.741.32h-3.159v3.159a1.026,1.026,0,0,1-.3.715.964.964,0,0,1-.741.321,1.043,1.043,0,0,1-.766-.321.99.99,0,0,1-.321-.715v-3.159h-3.159a.986.986,0,0,1-.715-.32,1.041,1.041,0,0,1-.321-.766,1.1,1.1,0,0,1,1.036-1.036h3.159v-3.159a.969.969,0,0,1,.321-.741,1.09,1.09,0,0,1,.766-.3,1.01,1.01,0,0,1,1.036,1.036v3.159h3.159a.968.968,0,0,1,.741.32m-4.935-25.59a1.043,1.043,0,0,1-.766-.32.992.992,0,0,1-.321-.716v-8.44a.97.97,0,0,1,.321-.741,1.092,1.092,0,0,1,.766-.3,1.033,1.033,0,0,1,.715.3.97.97,0,0,1,.321.741v8.44a1.1,1.1,0,0,1-1.036,1.036m7.353-4.195h-4.195v-2.123h4.195a2.109,2.109,0,0,1,2.123,2.123v24.085l-2.123-3.256Z" transform="translate(-164.656 -2714.344)" fill="#fff"/>
</svg>
