<svg xmlns="http://www.w3.org/2000/svg" width="47.342" height="49.623" viewBox="0 0 47.342 49.623">
  <path id="Icn-LeasingHabitacional" d="M2571.47,2477.045a1,1,0,0,1-.793.5,1.044,1.044,0,0,1-.739-.186l-17.966-12.523a5.638,5.638,0,0,0-5.761,0l-17.913,12.523a1.105,1.105,0,0,1-.873.159,1.172,1.172,0,0,1-.714-.477,1.373,1.373,0,0,1-.131-.871,1.032,1.032,0,0,1,.5-.713L2545,2462.937a7.763,7.763,0,0,1,4.121-1.162,7.508,7.508,0,0,1,4.07,1.162l9.458,6.606,1.639,1.109v.051l6.87,4.757a1.2,1.2,0,0,1,.476.739,1.019,1.019,0,0,1-.159.846m-40.425,2.432v16.118a6.767,6.767,0,0,0,6.764,6.764h22.563a6.763,6.763,0,0,0,6.764-6.764v-16.118l-13.949-9.775a7.5,7.5,0,0,0-4.07-1.162A7.759,7.759,0,0,0,2545,2469.7Zm33.82,16.118a4.506,4.506,0,0,1-4.493,4.49h-4.492v-11.253a2.257,2.257,0,0,0-2.271-2.274h-9.037a2.126,2.126,0,0,0-1.559.663,2.189,2.189,0,0,0-.662,1.612v11.253h-4.543a4.505,4.505,0,0,1-4.491-4.49v-14.957l12.892-9.035a5.638,5.638,0,0,1,5.761,0l12.894,9.035Zm-11.255,4.49h-9.037v-11.253h9.037Zm.792-39.05c-.071-.034-.157-.08-.264-.132a.962.962,0,0,1-.264-.184,10.038,10.038,0,0,1,3.487-5.682,10.092,10.092,0,0,1,13.582.688,10.187,10.187,0,0,1,1.689,12.1,10.247,10.247,0,0,1-3.38,3.621l-2.009-1.427a11.991,11.991,0,0,0,1.109-.688,7.492,7.492,0,0,0,1-.845,7.9,7.9,0,0,0,1.718-2.562,7.819,7.819,0,0,0,.607-3.04,7.607,7.607,0,0,0-.607-3.01,8.038,8.038,0,0,0-4.282-4.255,7.805,7.805,0,0,0-3.037-.607,7.631,7.631,0,0,0-3.013.607,8,8,0,0,0-2.537,1.718,7.186,7.186,0,0,0-1.584,2.193,7.343,7.343,0,0,0-.687,2.562Zm10.728,5.019a.973.973,0,0,0-.343-.737,3.79,3.79,0,0,0-1.189-.634,6.6,6.6,0,0,1-1.109-.477,3.521,3.521,0,0,1-.793-.58,3.027,3.027,0,0,1-.582-.793,2.109,2.109,0,0,1-.211-.952,2.549,2.549,0,0,1,.185-.978,3.026,3.026,0,0,1,.5-.818,3.639,3.639,0,0,1,.477-.4,2.25,2.25,0,0,1,.58-.291v-1a1.04,1.04,0,0,1,.343-.794,1.1,1.1,0,0,1,.768-.314,1.166,1.166,0,0,1,.819.314,1.039,1.039,0,0,1,.343.794v.685a5.134,5.134,0,0,1,1.162.211,6.1,6.1,0,0,1,.793.318l.106.054-.054.1-.369,1.375-.054.211-.211-.106-.739-.291a3.422,3.422,0,0,0-1.216-.186c-.563,0-.906.117-1.03.345a1.264,1.264,0,0,0-.185.5.833.833,0,0,0,.369.663,5.584,5.584,0,0,0,1.322.66,4.494,4.494,0,0,1,1.928,1.188,2.564,2.564,0,0,1,.607,1.717,2.756,2.756,0,0,1-.184,1.006,2.927,2.927,0,0,1-.5.846,7.064,7.064,0,0,1-.687.5,2.686,2.686,0,0,1-.793.343l-2.325-1.64a1.817,1.817,0,0,0,.4.081,4.309,4.309,0,0,0,.5.025,1.683,1.683,0,0,0,1-.264.808.808,0,0,0,.37-.688" transform="translate(-2526.559 -2452.736)" fill="#fff"/>
</svg>
