<svg xmlns="http://www.w3.org/2000/svg" width="46.343" height="39.977" viewBox="0 0 46.343 39.977">
  <path id="Icn-CreditoVehiculo" d="M1275.863,2621.354a3.238,3.238,0,0,0-2.27-.938h-11.3q-1.924,0-4.121,2.443t-2.2,4.369v1.628H1254.4a3.212,3.212,0,0,0-1.851.518,1.8,1.8,0,0,0-.766,1.6v8.045a.4.4,0,0,0,.074.246,1.772,1.772,0,0,0,.174.2c-.066.329-.125.658-.174.987a7.015,7.015,0,0,0-.074,1.036v.1l-.344-.1a2.428,2.428,0,0,1-1.284-.938,2.559,2.559,0,0,1-.493-1.529v-8.045a4.122,4.122,0,0,1,.418-1.876,4.02,4.02,0,0,1,1.21-1.431,4.394,4.394,0,0,1,1.208-.618,5.562,5.562,0,0,1,1.407-.27,5.457,5.457,0,0,1,.272-1.309,10.487,10.487,0,0,1,1.382-2.711,12.14,12.14,0,0,1,1.061-1.31,13.8,13.8,0,0,1,1.234-1.185,10.356,10.356,0,0,1,1.284-.938,7.784,7.784,0,0,1,1.628-.741,5.113,5.113,0,0,1,1.529-.247h11.3a5.75,5.75,0,0,1,1.061.1,5.58,5.58,0,0,1,1.011.3,4.4,4.4,0,0,1,.913.493,9.949,9.949,0,0,1,.815.643l5.033,5.082,7.75,2.863.147.049.1.049a6.2,6.2,0,0,1,1.431.987,6.066,6.066,0,0,1,1.086,1.333,5.247,5.247,0,0,1,.716,1.6,6.817,6.817,0,0,1,.221,1.7v1.628a9.736,9.736,0,0,1-.147,1.679,7.171,7.171,0,0,1-.494,1.628,10.607,10.607,0,0,1-.79,1.406,8.08,8.08,0,0,1-1.036,1.259l-.123.123c-.049.052-.107.107-.172.174l-1.135-1.826a6.334,6.334,0,0,0,1.333-2,6.188,6.188,0,0,0,.493-2.443v-1.628a4.037,4.037,0,0,0-.641-2.2,4.359,4.359,0,0,0-1.679-1.554l-8.242-3.061Zm-15.645,13.819a6.32,6.32,0,1,0,4.467,1.851,6.093,6.093,0,0,0-4.467-1.851m0,2.123a4.195,4.195,0,0,1,0,8.39,4.092,4.092,0,0,1-3.01-1.233,4.172,4.172,0,0,1,0-5.923,4.092,4.092,0,0,1,3.01-1.233m12.684,5.084-.79,1.233h-3.751a6.256,6.256,0,0,0,.2-1.061q.05-.519.049-1.062h4.245v.418a2.392,2.392,0,0,0,.049.471m22.6,13.769a4.722,4.722,0,0,0,.37-1.036,4.88,4.88,0,0,0,.123-1.085,3.766,3.766,0,0,0-.172-1.136,3.864,3.864,0,0,0-.518-1.036l-9.476-14.757a4.335,4.335,0,0,0-1.531-1.407,4.109,4.109,0,0,0-2.023-.518,4.01,4.01,0,0,0-1.974.518,4.322,4.322,0,0,0-1.53,1.407l-9.476,14.757a3.767,3.767,0,0,0-.518,1.036,3.722,3.722,0,0,0-.174,1.136,4.811,4.811,0,0,0,.125,1.085,4.438,4.438,0,0,0,.37,1.036,5.329,5.329,0,0,0,.667.889,4.682,4.682,0,0,0,.813.69,5.1,5.1,0,0,0,1.086.445,4.321,4.321,0,0,0,1.136.147h18.952a4.6,4.6,0,0,0,1.159-.147,4.116,4.116,0,0,0,1.061-.445,4.016,4.016,0,0,0,.864-.69,5.314,5.314,0,0,0,.666-.889m-1.876-1.013a1.941,1.941,0,0,1-1.826,1.112h-18.952a1.981,1.981,0,0,1-1.876-1.112,1.955,1.955,0,0,1,.1-2.146l9.476-14.756a1.77,1.77,0,0,1,.764-.717,2.38,2.38,0,0,1,1.012-.221,2.268,2.268,0,0,1,.962.221,1.774,1.774,0,0,1,.766.717l9.476,14.756a1.958,1.958,0,0,1,.1,2.146m-6.366-7.008a.968.968,0,0,0-.741-.32h-3.159v-3.159a.97.97,0,0,0-.321-.741,1.036,1.036,0,0,0-.716-.3,1.083,1.083,0,0,0-.764.3.965.965,0,0,0-.322.741v3.159h-3.157a.968.968,0,0,0-.741.32,1.036,1.036,0,0,0-.3.716,1.085,1.085,0,0,0,.3.764.963.963,0,0,0,.741.322h3.157v3.159a.991.991,0,0,0,.322.716,1.042,1.042,0,0,0,.764.32,1.1,1.1,0,0,0,1.036-1.036v-3.159h3.159a.963.963,0,0,0,.741-.322,1.085,1.085,0,0,0,.3-.764,1.035,1.035,0,0,0-.3-.716" transform="translate(-1249.657 -2618.344)" fill="#fff"/>
</svg>
