<?xml version="1.0" encoding="utf-8"?>
<!-- Generator: Adobe Illustrator 23.0.6, SVG Export Plug-In . SVG Version: 6.00 Build 0)  -->
<svg version="1.1" id="Capa_1" xmlns="http://www.w3.org/2000/svg" xmlns:xlink="http://www.w3.org/1999/xlink" x="0px" y="0px"
	 viewBox="0 0 26.8 22.4" style="enable-background:new 0 0 26.8 22.4;" xml:space="preserve">
<style type="text/css">
	.st0{fill:#F7F7F7;}
	.st1{fill:#FBB61A;}
</style>
<g id="Grupo_217" transform="translate(0 0)">
	<path id="Trazado_161" class="st0" d="M24.1,18.8H2.7c-1,0-1.8-0.8-1.8-1.8V1.8c0-1,0.8-1.8,1.8-1.8h21.4c1,0,1.8,0.8,1.8,1.8V17
		C25.9,18,25.1,18.8,24.1,18.8 M24.1,1.8H2.7V17h21.4L24.1,1.8z"/>
	<path id="Trazado_162" class="st1" d="M0.9,22.4c-0.5,0-0.9-0.4-0.9-0.9c0-0.5,0.4-0.9,0.9-0.9c0,0,0,0,0.1,0h25
		c0.5,0,0.9,0.4,0.9,0.9c0,0.5-0.4,0.8-0.9,0.9H0.9z"/>
	<path id="Trazado_163" class="st0" d="M20.8,3.6H22c0.2,0,0.3,0.1,0.3,0.3v1.2c0,0.2-0.1,0.3-0.3,0.3h-1.2c-0.2,0-0.3-0.1-0.3-0.3
		V3.9C20.5,3.7,20.7,3.6,20.8,3.6"/>
	<path id="Trazado_164" class="st0" d="M18.2,3.6h1.2c0.2,0,0.3,0.1,0.3,0.3v1.2c0,0.2-0.1,0.3-0.3,0.3h-1.2c-0.2,0-0.3-0.1-0.3-0.3
		V3.9C17.9,3.7,18,3.6,18.2,3.6"/>
	<path id="Trazado_165" class="st0" d="M18.2,6.3h1.2c0.2,0,0.3,0.1,0.3,0.3v1.2c0,0.2-0.1,0.3-0.3,0.3h-1.2c-0.2,0-0.3-0.1-0.3-0.3
		V6.6C17.9,6.4,18,6.3,18.2,6.3"/>
	<path id="Trazado_166" class="st0" d="M18.2,8.9h1.2c0.2,0,0.3,0.1,0.3,0.3v1.2c0,0.2-0.1,0.3-0.3,0.3h-1.2c-0.2,0-0.3-0.1-0.3-0.3
		V9.2C17.9,9.1,18,8.9,18.2,8.9"/>
	<path id="Trazado_167" class="st0" d="M20.8,8.9H22c0.2,0,0.3,0.1,0.3,0.3v1.2c0,0.2-0.1,0.3-0.3,0.3h-1.2c-0.2,0-0.3-0.1-0.3-0.3
		V9.2C20.5,9.1,20.7,8.9,20.8,8.9"/>
	<path id="Trazado_168" class="st0" d="M20.8,11.6H22c0.2,0,0.3,0.1,0.3,0.3v1.2c0,0.2-0.1,0.3-0.3,0.3h-1.2c-0.2,0-0.3-0.1-0.3-0.3
		v-1.2C20.5,11.7,20.7,11.6,20.8,11.6"/>
	<path id="Trazado_169" class="st0" d="M20.8,6.3H22c0.2,0,0.3,0.1,0.3,0.3v1.2C22.3,7.9,22.2,8,22,8h-1.2c-0.2,0-0.3-0.1-0.3-0.3
		V6.6C20.5,6.4,20.7,6.3,20.8,6.3"/>
</g>
</svg>
