<?xml version="1.0" encoding="utf-8"?>
<!-- Generator: Adobe Illustrator 23.0.6, SVG Export Plug-In . SVG Version: 6.00 Build 0)  -->
<svg version="1.1" id="Capa_1" xmlns="http://www.w3.org/2000/svg" xmlns:xlink="http://www.w3.org/1999/xlink" x="0px" y="0px"
	 viewBox="0 0 17.6 22.4" style="enable-background:new 0 0 17.6 22.4;" xml:space="preserve">
<style type="text/css">
	.st0{fill:#F7F7F7;}
	.st1{fill:#FBB61A;}
</style>
<g id="Grupo_218" transform="translate(0 0)">
	<g id="Grupo_175">
		<path id="Trazado_171" class="st0" d="M14.2,0H3.4C3.3,0,3.3,0,3.2,0C1.5,0,0,1.4,0,3.2v16c0.1,1.8,1.6,3.3,3.4,3.2h10.8
			c0.1,0,0.1,0,0.2,0c0.1,0,0.2,0,0.3,0c0.1,0,0.1,0,0.2,0c1.5-0.3,2.7-1.6,2.7-3.1v-16C17.6,1.4,16.1,0,14.2,0 M3.3,1.6
			C3.3,1.6,3.4,1.6,3.3,1.6h10.9c0.9,0,1.7,0.7,1.8,1.6v11.2H1.6V3.2C1.6,2.3,2.4,1.6,3.3,1.6 M14.6,20.8L14.6,20.8
			c-0.2,0-0.2,0-0.3,0h-0.1H3.4c-0.9,0-1.7-0.7-1.8-1.6V16H16v3.2C16,20,15.4,20.7,14.6,20.8"/>
		<path id="Trazado_172" class="st0" d="M8.8,17.6c-0.7,0-1.2,0.5-1.2,1.2c0,0.7,0.5,1.2,1.2,1.2c0.7,0,1.2-0.5,1.2-1.2
			C10,18.2,9.5,17.6,8.8,17.6L8.8,17.6"/>
		<path id="Trazado_173" class="st0" d="M3.8,6.4h2.1c0.3,0,0.6-0.3,0.6-0.6V3.8c0-0.3-0.3-0.6-0.6-0.6H3.8c-0.3,0-0.6,0.3-0.6,0.6
			v2.1C3.2,6.2,3.5,6.4,3.8,6.4"/>
		<path id="Trazado_174" class="st0" d="M7.8,6.4h2.1c0.3,0,0.6-0.3,0.6-0.6V3.8c0-0.3-0.3-0.6-0.6-0.6H7.8c-0.3,0-0.6,0.3-0.6,0.6
			v2.1C7.2,6.2,7.5,6.4,7.8,6.4"/>
		<path id="Trazado_175" class="st0" d="M11.8,6.4h2.1c0.3,0,0.6-0.3,0.6-0.6V3.8c0-0.3-0.3-0.6-0.6-0.6h-2.1
			c-0.3,0-0.6,0.3-0.6,0.6v2.1C11.2,6.2,11.5,6.4,11.8,6.4"/>
		<path id="Trazado_176" class="st0" d="M3.8,11.2h2.1c0.3,0,0.6-0.3,0.6-0.6V8.6C6.4,8.3,6.2,8,5.8,8H3.8C3.5,8,3.2,8.3,3.2,8.6
			v2.1C3.2,11,3.5,11.2,3.8,11.2"/>
		<path id="Trazado_177" class="st0" d="M7.8,11.2h2.1c0.3,0,0.6-0.3,0.6-0.6V8.6c0-0.3-0.3-0.6-0.6-0.6H7.8C7.5,8,7.2,8.3,7.2,8.6
			v2.1C7.2,11,7.5,11.2,7.8,11.2"/>
		<path id="Trazado_178" class="st0" d="M14.2,0H3.4C3.3,0,3.3,0,3.2,0C1.5,0,0,1.4,0,3.2v16c0.1,1.8,1.6,3.3,3.4,3.2h10.8
			c0.1,0,0.1,0,0.2,0c0.1,0,0.2,0,0.3,0c0.1,0,0.1,0,0.2,0c1.5-0.3,2.7-1.6,2.7-3.1v-16C17.6,1.4,16.1,0,14.2,0 M3.3,1.6
			C3.3,1.6,3.4,1.6,3.3,1.6h10.9c0.9,0,1.7,0.7,1.8,1.6v11.2H1.6V3.2C1.6,2.3,2.4,1.6,3.3,1.6 M14.6,20.8L14.6,20.8
			c-0.2,0-0.2,0-0.3,0h-0.1H3.4c-0.9,0-1.7-0.7-1.8-1.6V16H16v3.2C16,20,15.4,20.7,14.6,20.8"/>
		<path id="Trazado_179" class="st0" d="M8.8,17.6c-0.7,0-1.2,0.5-1.2,1.2c0,0.7,0.5,1.2,1.2,1.2c0.7,0,1.2-0.5,1.2-1.2
			C10,18.2,9.5,17.6,8.8,17.6L8.8,17.6"/>
		<path id="Trazado_180" class="st1" d="M3.8,6.4h2.1c0.3,0,0.6-0.3,0.6-0.6V3.8c0-0.3-0.3-0.6-0.6-0.6H3.8c-0.3,0-0.6,0.3-0.6,0.6
			v2.1C3.2,6.2,3.5,6.4,3.8,6.4"/>
		<path id="Trazado_181" class="st0" d="M7.8,6.4h2.1c0.3,0,0.6-0.3,0.6-0.6V3.8c0-0.3-0.3-0.6-0.6-0.6H7.8c-0.3,0-0.6,0.3-0.6,0.6
			v2.1C7.2,6.2,7.5,6.4,7.8,6.4"/>
		<path id="Trazado_182" class="st0" d="M11.8,6.4h2.1c0.3,0,0.6-0.3,0.6-0.6V3.8c0-0.3-0.3-0.6-0.6-0.6h-2.1
			c-0.3,0-0.6,0.3-0.6,0.6v2.1C11.2,6.2,11.5,6.4,11.8,6.4"/>
		<path id="Trazado_183" class="st0" d="M3.8,11.2h2.1c0.3,0,0.6-0.3,0.6-0.6V8.6C6.4,8.3,6.2,8,5.8,8H3.8C3.5,8,3.2,8.3,3.2,8.6
			v2.1C3.2,11,3.5,11.2,3.8,11.2"/>
		<path id="Trazado_184" class="st0" d="M7.8,11.2h2.1c0.3,0,0.6-0.3,0.6-0.6V8.6c0-0.3-0.3-0.6-0.6-0.6H7.8C7.5,8,7.2,8.3,7.2,8.6
			v2.1C7.2,11,7.5,11.2,7.8,11.2"/>
	</g>
</g>
</svg>
