<svg xmlns="http://www.w3.org/2000/svg" width="200" height="64.879" viewBox="0 0 200 64.879">
  <g id="Btn-AppStore" transform="translate(-1.459 -1.463)">
    <g id="Grupo_240" data-name="Grupo 240" transform="translate(1.459 1.462)">
      <g id="Grupo_238" data-name="Grupo 238">
        <path id="Trazado_287" data-name="Trazado 287" d="M13.716,65.751c-.517,0-1.021-.007-1.533-.019a21.371,21.371,0,0,1-3.172-.276A9.963,9.963,0,0,1,6.2,64.526,9.157,9.157,0,0,1,3.833,62.8,9.054,9.054,0,0,1,2.1,60.433a9.712,9.712,0,0,1-.921-2.81A21.042,21.042,0,0,1,.9,54.443c-.012-.358-.025-1.549-.025-1.549V13.713S.888,12.541.9,12.2a20.954,20.954,0,0,1,.28-3.175A9.768,9.768,0,0,1,2.1,6.2,9.053,9.053,0,0,1,3.823,3.831,9.466,9.466,0,0,1,6.2,2.1,9.917,9.917,0,0,1,9,1.174,21.529,21.529,0,0,1,12.186.9l1.53-.02H188.022L189.57.9a20.856,20.856,0,0,1,3.151.275,10.108,10.108,0,0,1,2.834.929,9.48,9.48,0,0,1,4.1,4.1,9.753,9.753,0,0,1,.907,2.8,22.013,22.013,0,0,1,.3,3.2c.005.48.005,1,.005,1.51.014.636.014,1.242.014,1.852v35.5c0,.616,0,1.218-.014,1.823,0,.551,0,1.057-.007,1.577a21.459,21.459,0,0,1-.29,3.143,9.686,9.686,0,0,1-.916,2.832,9.275,9.275,0,0,1-1.722,2.351,9.152,9.152,0,0,1-2.375,1.733,9.9,9.9,0,0,1-2.829.933,21.123,21.123,0,0,1-3.17.276c-.5.012-1.016.019-1.521.019l-1.839,0Z" transform="translate(-0.873 -0.875)"/>
      </g>
      <g id="_Group_" data-name=" Group " transform="translate(15.432 13.306)">
        <g id="_Group_2" data-name=" Group 2">
          <g id="_Group_3" data-name=" Group 3">
            <path id="_Path_" data-name=" Path " d="M35.069,24.706a8.392,8.392,0,0,1,4-7.042A8.591,8.591,0,0,0,32.3,14c-2.848-.3-5.609,1.7-7.061,1.7-1.479,0-3.713-1.676-6.12-1.625a9.015,9.015,0,0,0-7.587,4.625c-3.28,5.68-.833,14.027,2.308,18.618,1.572,2.247,3.409,4.758,5.814,4.669,2.352-.1,3.231-1.5,6.07-1.5,2.814,0,3.638,1.5,6.091,1.445,2.525-.042,4.115-2.259,5.633-4.529a18.587,18.587,0,0,0,2.575-5.244A8.11,8.11,0,0,1,35.069,24.706Z" transform="translate(-9.972 -5.063)" fill="#fff"/>
            <path id="_Path_2" data-name=" Path 2" d="M24.3,14.641A8.259,8.259,0,0,0,26.188,8.72a8.409,8.409,0,0,0-5.441,2.816,7.869,7.869,0,0,0-1.94,5.7A6.951,6.951,0,0,0,24.3,14.641Z" transform="translate(-3.833 -8.72)" fill="#fff"/>
          </g>
        </g>
        <g id="Grupo_239" data-name="Grupo 239" transform="translate(41.478 15.521)">
          <path id="Trazado_288" data-name="Trazado 288" d="M47.784,33.448H39.756L37.828,39.14h-3.4l7.605-21.062h3.533l7.6,21.062H49.71Zm-7.2-2.627h6.364l-3.138-9.239h-.086Z" transform="translate(-34.427 -17.727)" fill="#fff"/>
          <path id="Trazado_289" data-name="Trazado 289" d="M61.1,29.189c0,4.771-2.554,7.838-6.41,7.838a5.206,5.206,0,0,1-4.83-2.687h-.073v7.605H46.631V21.509h3.051v2.554h.058a5.448,5.448,0,0,1,4.89-2.714C58.527,21.349,61.1,24.429,61.1,29.189Zm-3.24,0c0-3.109-1.608-5.153-4.059-5.153-2.408,0-4.028,2.086-4.028,5.153,0,3.094,1.62,5.166,4.028,5.166C56.25,34.355,57.857,32.325,57.857,29.189Z" transform="translate(-25.932 -15.452)" fill="#fff"/>
          <path id="Trazado_290" data-name="Trazado 290" d="M71.062,29.189c0,4.771-2.554,7.838-6.41,7.838a5.206,5.206,0,0,1-4.83-2.687h-.073v7.605H56.6V21.509h3.051v2.554H59.7a5.448,5.448,0,0,1,4.89-2.714C68.492,21.349,71.062,24.429,71.062,29.189Zm-3.241,0c0-3.109-1.606-5.153-4.057-5.153-2.408,0-4.028,2.086-4.028,5.153,0,3.094,1.62,5.166,4.028,5.166,2.451,0,4.057-2.03,4.057-5.166Z" transform="translate(-18.995 -15.452)" fill="#fff"/>
          <path id="Trazado_291" data-name="Trazado 291" d="M73.034,33.416c.234,2.09,2.263,3.46,5.036,3.46,2.658,0,4.569-1.37,4.569-3.255,0-1.635-1.153-2.614-3.882-3.284l-2.731-.658c-3.867-.935-5.663-2.743-5.663-5.679,0-3.633,3.167-6.13,7.665-6.13,4.451,0,7.5,2.5,7.6,6.13H82.449c-.19-2.1-1.927-3.37-4.468-3.37s-4.276,1.284-4.276,3.151c0,1.489,1.109,2.366,3.825,3.036l2.32.57c4.322,1.023,6.116,2.758,6.116,5.84,0,3.94-3.138,6.408-8.129,6.408-4.671,0-7.826-2.41-8.029-6.22Z" transform="translate(-9.799 -17.871)" fill="#fff"/>
          <path id="Trazado_292" data-name="Trazado 292" d="M85.562,19.3v3.633h2.921v2.5H85.562v8.465c0,1.316.585,1.928,1.869,1.928a10.1,10.1,0,0,0,1.036-.073v2.481a8.776,8.776,0,0,1-1.75.146c-3.109,0-4.322-1.169-4.322-4.147v-8.8H80.163v-2.5H82.4V19.3Z" transform="translate(-2.59 -16.876)" fill="#fff"/>
          <path id="Trazado_293" data-name="Trazado 293" d="M86.065,29.2c0-4.832,2.846-7.868,7.283-7.868,4.452,0,7.285,3.036,7.285,7.868s-2.817,7.866-7.285,7.866S86.065,34.043,86.065,29.2Zm11.355,0c0-3.314-1.518-5.271-4.072-5.271S89.277,25.9,89.277,29.2c0,3.328,1.516,5.268,4.071,5.268s4.072-1.94,4.072-5.268Z" transform="translate(1.518 -15.463)" fill="#fff"/>
          <path id="Trazado_294" data-name="Trazado 294" d="M96.186,21.509h3.007v2.614h.073a3.661,3.661,0,0,1,3.692-2.773,4.825,4.825,0,0,1,1.08.117v2.948a4.442,4.442,0,0,0-1.416-.19,3.177,3.177,0,0,0-3.3,3.044,3.359,3.359,0,0,0,.017.488v9.108H96.186Z" transform="translate(8.563 -15.452)" fill="#fff"/>
          <path id="Trazado_295" data-name="Trazado 295" d="M115.069,32.366c-.424,2.787-3.138,4.7-6.611,4.7-4.468,0-7.241-2.992-7.241-7.794,0-4.817,2.788-7.941,7.108-7.941,4.249,0,6.92,2.919,6.92,7.575v1.08H104.4v.19a4,4,0,0,0,3.631,4.337,4.108,4.108,0,0,0,.5.012,3.473,3.473,0,0,0,3.547-2.159Zm-10.655-4.583h7.677a3.692,3.692,0,0,0-3.48-3.893q-.142-.008-.285-.005a3.887,3.887,0,0,0-3.911,3.864Z" transform="translate(12.065 -15.463)" fill="#fff"/>
        </g>
      </g>
    </g>
    <g id="_Group_4" data-name=" Group 4" transform="translate(60.068 13.581)">
      <g id="Grupo_241" data-name="Grupo 241">
        <path id="Trazado_296" data-name="Trazado 296" d="M35.428,13.9c0-3.282,1.745-5.309,4.557-5.309A4.045,4.045,0,0,1,44.2,12.1H42.63a2.6,2.6,0,0,0-2.644-2.042c-1.817,0-2.953,1.481-2.953,3.843s1.136,3.837,2.96,3.837a2.536,2.536,0,0,0,2.637-1.866H44.2a3.949,3.949,0,0,1-4.2,3.331C37.18,19.2,35.428,17.172,35.428,13.9Z" transform="translate(-35.428 -7.628)" fill="#fff"/>
        <path id="Trazado_297" data-name="Trazado 297" d="M41.617,14.07a3.618,3.618,0,1,1,7.2,0,3.619,3.619,0,1,1-7.2.7A3.735,3.735,0,0,1,41.617,14.07Zm5.653,0c0-1.655-.743-2.624-2.049-2.624s-2.047.968-2.047,2.624.738,2.631,2.047,2.631S47.27,15.732,47.27,14.07Z" transform="translate(-31.132 -6.567)" fill="#fff"/>
        <path id="Trazado_298" data-name="Trazado 298" d="M47.05,10.259H48.5v1.213h.114a2.283,2.283,0,0,1,2.278-1.36,2.482,2.482,0,0,1,2.644,2.841V17.9H52.028V13.33c0-1.228-.533-1.839-1.647-1.839a1.759,1.759,0,0,0-1.825,1.935V17.9H47.05Z" transform="translate(-27.338 -6.57)" fill="#fff"/>
        <path id="Trazado_299" data-name="Trazado 299" d="M55.194,10.108c1.716,0,2.839.8,2.987,2.146H56.736c-.139-.561-.689-.918-1.542-.918s-1.481.4-1.481.994c0,.456.385.745,1.213.935l1.269.293c1.454.338,2.134.962,2.134,2.084,0,1.437-1.34,2.4-3.163,2.4s-3-.821-3.136-2.174h1.51a1.549,1.549,0,0,0,1.66.953c.94,0,1.608-.421,1.608-1.031,0-.456-.358-.75-1.123-.933l-1.333-.309c-1.452-.344-2.124-1-2.124-2.132C52.227,11.061,53.467,10.108,55.194,10.108Z" transform="translate(-23.872 -6.567)" fill="#fff"/>
        <path id="Trazado_300" data-name="Trazado 300" d="M56.865,10.432,58.626,8.02h1.767l-1.971,2.412Zm.156,1.277h1.5v7.638h-1.5Z" transform="translate(-20.506 -8.02)" fill="#fff"/>
        <path id="Trazado_301" data-name="Trazado 301" d="M59.35,18.649h1.542c.127.555.765.913,1.783.913,1.255,0,2-.6,2-1.606V16.489H64.56A2.569,2.569,0,0,1,62.2,17.772c-1.949,0-3.155-1.506-3.155-3.792,0-2.329,1.219-3.859,3.17-3.859a2.647,2.647,0,0,1,2.4,1.347h.119V10.248H66.18v7.7c0,1.747-1.369,2.855-3.528,2.855C60.744,20.8,59.509,19.948,59.35,18.649ZM64.7,13.971c0-1.521-.787-2.5-2.071-2.5s-2.025.975-2.025,2.5.729,2.5,2.025,2.5S64.7,15.5,64.7,13.971Z" transform="translate(-18.986 -6.559)" fill="#fff"/>
        <path id="Trazado_302" data-name="Trazado 302" d="M71.147,17.833H69.7V16.618h-.119a2.292,2.292,0,0,1-2.308,1.362,2.481,2.481,0,0,1-2.649-2.3,2.39,2.39,0,0,1,.019-.527V10.2h1.51v4.566c0,1.233.5,1.823,1.6,1.823a1.736,1.736,0,0,0,1.891-1.562,1.818,1.818,0,0,0,0-.36V10.2h1.508Z" transform="translate(-15.113 -6.506)" fill="#fff"/>
        <path id="Trazado_303" data-name="Trazado 303" d="M76.509,15.831a3.1,3.1,0,0,1-3.309,2.21,3.472,3.472,0,0,1-3.56-3.377,3.528,3.528,0,0,1,.032-.566,3.518,3.518,0,0,1,3.521-3.989c2.125,0,3.407,1.452,3.407,3.85v.526H71.207v.085a2.019,2.019,0,0,0,1.842,2.181c.064.005.127.007.192.007a1.835,1.835,0,0,0,1.818-.926Zm-5.3-2.461h3.857a1.84,1.84,0,0,0-1.7-1.974,1.561,1.561,0,0,0-.178-.005,1.953,1.953,0,0,0-1.978,1.928Z" transform="translate(-11.614 -6.567)" fill="#fff"/>
        <path id="Trazado_304" data-name="Trazado 304" d="M74.977,8.437h1.508V19.056H74.977Z" transform="translate(-7.898 -7.73)" fill="#fff"/>
        <path id="Trazado_305" data-name="Trazado 305" d="M77.108,14.07a3.618,3.618,0,1,1,7.2,0,3.619,3.619,0,1,1-7.2.7A3.735,3.735,0,0,1,77.108,14.07Zm5.653,0c0-1.655-.743-2.624-2.049-2.624s-2.047.968-2.047,2.624S79.4,16.7,80.712,16.7,82.761,15.732,82.761,14.07Z" transform="translate(-6.427 -6.567)" fill="#fff"/>
        <path id="Trazado_306" data-name="Trazado 306" d="M91.612,15.831a3.1,3.1,0,0,1-3.311,2.21,3.47,3.47,0,0,1-3.558-3.377,3.525,3.525,0,0,1,.031-.566A3.524,3.524,0,0,1,87.8,10.139a3.476,3.476,0,0,1,.5-.031c2.125,0,3.407,1.452,3.407,3.85v.526H86.31v.085a2.018,2.018,0,0,0,1.842,2.181c.063.005.127.007.192.007a1.831,1.831,0,0,0,1.817-.926Zm-5.3-2.461h3.857a1.843,1.843,0,0,0-1.7-1.974,1.561,1.561,0,0,0-.178-.005,1.953,1.953,0,0,0-1.978,1.928.253.253,0,0,0,0,.051Z" transform="translate(-1.101 -6.567)" fill="#fff"/>
        <path id="Trazado_307" data-name="Trazado 307" d="M90.039,10.259h1.45v1.213H91.6a2.285,2.285,0,0,1,2.28-1.36A2.482,2.482,0,0,1,96.544,12.4a2.386,2.386,0,0,1-.019.55V17.9H95.017V13.33c0-1.228-.533-1.839-1.649-1.839a1.759,1.759,0,0,0-1.823,1.935V17.9H90.039Z" transform="translate(2.586 -6.57)" fill="#fff"/>
        <path id="Trazado_308" data-name="Trazado 308" d="M104.308,15.831A3.1,3.1,0,0,1,101,18.041a3.471,3.471,0,0,1-3.56-3.377,3.341,3.341,0,0,1,.032-.566,3.518,3.518,0,0,1,3.521-3.989c2.125,0,3.407,1.452,3.407,3.85v.526H99.006v.085a2.019,2.019,0,0,0,1.842,2.181c.064.005.127.007.192.007a1.831,1.831,0,0,0,1.817-.926Zm-5.3-2.461h3.857a1.842,1.842,0,0,0-1.7-1.974,1.562,1.562,0,0,0-.178-.005,1.953,1.953,0,0,0-1.978,1.928v.051Z" transform="translate(7.736 -6.567)" fill="#fff"/>
        <path id="Trazado_309" data-name="Trazado 309" d="M102.776,8.437h1.508V19.056h-1.508Z" transform="translate(11.453 -7.73)" fill="#fff"/>
      </g>
    </g>
  </g>
</svg>
