<svg xmlns="http://www.w3.org/2000/svg" width="18" height="15.601" viewBox="0 0 18 15.601">
  <path id="Trazado_280" data-name="Trazado 280" d="M15.014,11.391a.658.658,0,0,0-.183.029.34.34,0,0,0-.155.084L8.4,16.257V.591A.564.564,0,0,0,8.222.184.564.564,0,0,0,7.814,0a.592.592,0,0,0-.436.184A.561.561,0,0,0,7.2.591V16.257L.952,12.122a.775.775,0,0,0-.169-.084.528.528,0,0,0-.168-.028.735.735,0,0,0-.281.057.456.456,0,0,0-.225.2.555.555,0,0,0-.1.436.544.544,0,0,0,.267.38l7.2,4.81a.024.024,0,0,0,.028.028c.019,0,.028.01.028.029h.029a.025.025,0,0,1,.028.027h.085A.025.025,0,0,0,7.7,18h.225a.025.025,0,0,0,.028-.028h.085l.028-.027H8.1c0-.019.009-.029.028-.029a.025.025,0,0,0,.028-.028l7.2-5.4a.574.574,0,0,0,.239-.379.561.561,0,0,0-.1-.438.574.574,0,0,0-.211-.211.56.56,0,0,0-.267-.07" transform="translate(0 15.601) rotate(-90)" fill="#fff"/>
</svg>
