<svg xmlns="http://www.w3.org/2000/svg" width="353.34" height="48.477" viewBox="0 0 353.34 48.477">
  <g id="Buscador-CuentaAhorror" transform="translate(-514.078 -494.255)">
    <g id="Rectángulo_266" data-name="Rectángulo 266" transform="translate(514.248 494.426)">
      <rect id="Rectángulo_270" data-name="Rectángulo 270" width="295" height="48" rx="15" fill="none"/>
      <rect id="Rectángulo_271" data-name="Rectángulo 271" width="293.244" height="46.476" rx="10" transform="translate(0.83 0.829)" fill="none" stroke="#fb911a" stroke-width="2"/>
    </g>
    <g id="Rectángulo_267" data-name="Rectángulo 267" transform="translate(819.468 494.426)">
      <rect id="Rectángulo_272" data-name="Rectángulo 272" width="48" height="48" rx="15" transform="translate(-0.22)" fill="none"/>
      <rect id="Rectángulo_273" data-name="Rectángulo 273" width="46.476" height="46.476" rx="10" transform="translate(0.473 0.829)" fill="none" stroke="#fb911a" stroke-width="2"/>
    </g>
    <g id="Grupo_237" data-name="Grupo 237" transform="translate(828.764 504.088)">
      <g id="Grupo_183" data-name="Grupo 183" transform="translate(3.121 3.126)">
        <path id="Trazado_188" data-name="Trazado 188" d="M1096.19,518.59a6.808,6.808,0,1,1-6.805,6.805,6.808,6.808,0,0,1,6.805-6.805h0m0-1.051a7.859,7.859,0,1,0,7.857,7.861,7.872,7.872,0,0,0-7.857-7.861" transform="translate(-1088.333 -517.539)" fill="#fb911a"/>
      </g>
      <g id="Grupo_184" data-name="Grupo 184">
        <path id="Trazado_189" data-name="Trazado 189" d="M1093.672,512.944a9.932,9.932,0,0,1,8.24,15.47l-.485.714.609.613,7.945,7.944-1.615,1.612-7.967-7.967-.6-.609-.715.471a9.928,9.928,0,1,1-5.41-18.248m0-1.054a10.98,10.98,0,0,0-10.979,10.982h0a10.976,10.976,0,0,0,10.971,10.981h.009a10.892,10.892,0,0,0,5.986-1.779l8.711,8.712,3.1-3.1L1102.781,529a10.983,10.983,0,0,0-9.109-17.107" transform="translate(-1082.693 -511.89)" fill="#fb911a"/>
      </g>
    </g>
    <g id="_Buscando_cuenta_de_ahorros_" data-name=" Buscando cuenta de ahorros " transform="translate(525.803 509.181)">
      <g id="Grupo_245" data-name="Grupo 245" transform="translate(0 0)">
        <path id="Trazado_331" data-name="Trazado 331" d="M540.625,527.172a3.981,3.981,0,0,1-.31,2.342,4.554,4.554,0,0,1-1.289,1.421,6.671,6.671,0,0,0-1.223,1.129,1.448,1.448,0,0,0-.3.865,1.2,1.2,0,0,0,.517,1.053,2.584,2.584,0,0,0,1.477.357,5.594,5.594,0,0,0,2.9-.828v1.956a6.752,6.752,0,0,1-3.236.828,4.659,4.659,0,0,1-2.944-.847,2.759,2.759,0,0,1-1.082-2.3,3.033,3.033,0,0,1,.423-1.59,5.048,5.048,0,0,1,1.326-1.383,6.484,6.484,0,0,0,1.43-1.307,2.211,2.211,0,0,0,.357-1.289,3.609,3.609,0,0,0-.019-.414Zm-1.11-3.969a1.382,1.382,0,0,1,1.006.4,1.335,1.335,0,0,1,.4,1,1.411,1.411,0,1,1-2.822,0,1.336,1.336,0,0,1,.4-1A1.38,1.38,0,0,1,539.515,523.2Z" transform="translate(-535.132 -522.037)" fill="#fff"/>
        <path id="Trazado_332" data-name="Trazado 332" d="M551.724,523.475h4.063a5.627,5.627,0,0,1,3.349.894,2.826,2.826,0,0,1,1.242,2.417,2.786,2.786,0,0,1-.461,1.59,3.086,3.086,0,0,1-1.345,1.082,3.66,3.66,0,0,1,1.674,1.185,2.908,2.908,0,0,1,.584,1.805,3.179,3.179,0,0,1-1.364,2.757,6.642,6.642,0,0,1-3.885.969h-3.856Zm4.006,5.249a2.863,2.863,0,0,0,1.7-.442,1.452,1.452,0,0,0,.611-1.252,1.486,1.486,0,0,0-.574-1.25,2.616,2.616,0,0,0-1.627-.442h-1.805v3.386Zm-.056,5.587a3.515,3.515,0,0,0,2.041-.5,1.655,1.655,0,0,0,.705-1.439,1.5,1.5,0,0,0-.687-1.326,3.433,3.433,0,0,0-1.928-.461h-1.768v3.725Z" transform="translate(-542.544 -522.158)" fill="#fff"/>
        <path id="Trazado_333" data-name="Trazado 333" d="M574.361,538.786a3,3,0,0,1-2.4-1.045,4.147,4.147,0,0,1-.894-2.793v-6.171H573.4v5.795a2.722,2.722,0,0,0,.461,1.7,1.559,1.559,0,0,0,1.307.592,1.688,1.688,0,0,0,1.364-.621,2.5,2.5,0,0,0,.517-1.655v-5.813h2.333v9.764h-2.032l-.132-1.148a3.075,3.075,0,0,1-1.213,1.035A3.752,3.752,0,0,1,574.361,538.786Z" transform="translate(-551.185 -524.527)" fill="#fff"/>
        <path id="Trazado_334" data-name="Trazado 334" d="M592.159,538.589a7.194,7.194,0,0,1-3.1-.64v-1.919a5.709,5.709,0,0,0,2.859.733,2.431,2.431,0,0,0,1.317-.3.967.967,0,0,0,.47-.865.875.875,0,0,0-.4-.752,6.062,6.062,0,0,0-1.627-.621,4.1,4.1,0,0,1-1.975-1.082,2.775,2.775,0,0,1,.451-3.978,4.575,4.575,0,0,1,2.841-.828,6.266,6.266,0,0,1,2.445.489v1.862a5.5,5.5,0,0,0-2.389-.527,2.445,2.445,0,0,0-1.26.273.878.878,0,0,0-.451.8.845.845,0,0,0,.386.724,5.579,5.579,0,0,0,1.514.593,4.416,4.416,0,0,1,2.135,1.119,2.708,2.708,0,0,1,.668,1.909,2.642,2.642,0,0,1-1.044,2.192A4.472,4.472,0,0,1,592.159,538.589Z" transform="translate(-559.22 -524.33)" fill="#fff"/>
        <path id="Trazado_335" data-name="Trazado 335" d="M608.827,538.589a4.54,4.54,0,0,1-3.49-1.383,5.261,5.261,0,0,1-1.288-3.734,5.658,5.658,0,0,1,.63-2.728,4.409,4.409,0,0,1,1.731-1.787,4.987,4.987,0,0,1,2.493-.621,4.785,4.785,0,0,1,2.333.527V530.8a3.8,3.8,0,0,0-2.07-.546,2.531,2.531,0,0,0-2.031.856,4.078,4.078,0,0,0,.019,4.694,2.553,2.553,0,0,0,2.032.865,3.958,3.958,0,0,0,2.182-.6v1.938A5.309,5.309,0,0,1,608.827,538.589Z" transform="translate(-565.918 -524.33)" fill="#fff"/>
        <path id="Trazado_336" data-name="Trazado 336" d="M622.644,538.589a3.323,3.323,0,0,1-2.3-.771,2.634,2.634,0,0,1-.865-2.07,2.943,2.943,0,0,1,1.317-2.567,6.524,6.524,0,0,1,3.744-.913h.414a3.929,3.929,0,0,1,.4.019,2.206,2.206,0,0,0-.6-1.561,2.326,2.326,0,0,0-1.637-.508,5.6,5.6,0,0,0-2.784.791v-1.881a6.746,6.746,0,0,1,3.142-.79,4.1,4.1,0,0,1,3.047,1.082,4.21,4.21,0,0,1,1.072,3.095v5.832h-1.938l-.132-1.129a3.093,3.093,0,0,1-1.213,1.006A3.787,3.787,0,0,1,622.644,538.589Zm.64-1.655a2,2,0,0,0,1.476-.621,2.064,2.064,0,0,0,.611-1.5v-.959c-.126,0-.254,0-.386-.009s-.267-.009-.4-.009a4.375,4.375,0,0,0-2.135.423,1.343,1.343,0,0,0-.743,1.232,1.358,1.358,0,0,0,.433,1.053A1.637,1.637,0,0,0,623.285,536.934Z" transform="translate(-572.813 -524.33)" fill="#fff"/>
        <path id="Trazado_337" data-name="Trazado 337" d="M637.81,528.581h2.05l.132,1.186a3.23,3.23,0,0,1,1.232-1.063,3.666,3.666,0,0,1,1.646-.367,3.112,3.112,0,0,1,2.464,1.054,4.1,4.1,0,0,1,.922,2.8v6.151h-2.333v-5.794a2.61,2.61,0,0,0-.47-1.674,1.641,1.641,0,0,0-1.354-.583,1.8,1.8,0,0,0-1.42.611,2.408,2.408,0,0,0-.536,1.646v5.794H637.81Z" transform="translate(-580.999 -524.33)" fill="#fff"/>
        <path id="Trazado_338" data-name="Trazado 338" d="M659.867,535.354a3.48,3.48,0,0,1-2.888-1.383,5.836,5.836,0,0,1-1.082-3.7,6.781,6.781,0,0,1,.517-2.766,4.1,4.1,0,0,1,1.43-1.787,3.639,3.639,0,0,1,2.1-.621,3.379,3.379,0,0,1,1.514.339,3.15,3.15,0,0,1,1.157.978v-5.324h2.333V535.11h-2.032l-.151-1.336a3.013,3.013,0,0,1-1.195,1.166A3.513,3.513,0,0,1,659.867,535.354Zm.621-1.919a1.863,1.863,0,0,0,1.608-.846,4.014,4.014,0,0,0,.593-2.333,4.2,4.2,0,0,0-.583-2.36,1.842,1.842,0,0,0-1.618-.875,1.9,1.9,0,0,0-1.646.846,4.049,4.049,0,0,0-.593,2.352,4.1,4.1,0,0,0,.593,2.361A1.89,1.89,0,0,0,660.488,533.435Z" transform="translate(-589.079 -521.095)" fill="#fff"/>
        <path id="Trazado_339" data-name="Trazado 339" d="M679.819,538.589a4.55,4.55,0,0,1-2.455-.65,4.219,4.219,0,0,1-1.6-1.805,6.08,6.08,0,0,1-.555-2.662,5.951,5.951,0,0,1,.593-2.728,4.272,4.272,0,0,1,1.637-1.787,4.92,4.92,0,0,1,4.835.028,4.228,4.228,0,0,1,1.6,1.805,6.093,6.093,0,0,1,.555,2.662,5.947,5.947,0,0,1-.593,2.728,4.27,4.27,0,0,1-1.637,1.787A4.567,4.567,0,0,1,679.819,538.589Zm0-1.919a1.922,1.922,0,0,0,1.655-.846,4,4,0,0,0,.6-2.352,4.057,4.057,0,0,0-.6-2.352,2.029,2.029,0,0,0-3.311-.019,4,4,0,0,0-.6,2.352,4.052,4.052,0,0,0,.6,2.352A1.908,1.908,0,0,0,679.819,536.67Z" transform="translate(-597.706 -524.33)" fill="#fff"/>
        <path id="Trazado_340" data-name="Trazado 340" d="M704.535,538.589a4.539,4.539,0,0,1-3.49-1.383,5.258,5.258,0,0,1-1.289-3.734,5.651,5.651,0,0,1,.63-2.728,4.4,4.4,0,0,1,1.731-1.787,4.985,4.985,0,0,1,2.493-.621,4.783,4.783,0,0,1,2.333.527V530.8a3.8,3.8,0,0,0-2.069-.546,2.532,2.532,0,0,0-2.032.856,4.078,4.078,0,0,0,.019,4.694,2.554,2.554,0,0,0,2.032.865,3.96,3.96,0,0,0,2.182-.6v1.938A5.313,5.313,0,0,1,704.535,538.589Z" transform="translate(-608.671 -524.33)" fill="#fff"/>
        <path id="Trazado_341" data-name="Trazado 341" d="M719.131,538.786a2.994,2.994,0,0,1-2.4-1.045,4.147,4.147,0,0,1-.894-2.793v-6.171h2.333v5.795a2.722,2.722,0,0,0,.461,1.7,1.559,1.559,0,0,0,1.307.592,1.689,1.689,0,0,0,1.364-.621,2.5,2.5,0,0,0,.517-1.655v-5.813h2.333v9.764h-2.032l-.132-1.148a3.081,3.081,0,0,1-1.213,1.035A3.754,3.754,0,0,1,719.131,538.786Z" transform="translate(-615.855 -524.527)" fill="#fff"/>
        <path id="Trazado_342" data-name="Trazado 342" d="M738.716,538.589a4.706,4.706,0,0,1-3.594-1.373,5.283,5.283,0,0,1-1.3-3.781,6,6,0,0,1,.573-2.7,4.227,4.227,0,0,1,1.59-1.778,4.35,4.35,0,0,1,2.314-.621,3.723,3.723,0,0,1,2.991,1.279,5.281,5.281,0,0,1,1.091,3.537v1.053h-6.32a2.943,2.943,0,0,0,.94,1.882,3.006,3.006,0,0,0,2.013.64,5.94,5.94,0,0,0,2.766-.715v1.862A6.333,6.333,0,0,1,738.716,538.589Zm-.508-8.466a1.869,1.869,0,0,0-1.477.631,3.255,3.255,0,0,0-.687,1.834h4.176a2.965,2.965,0,0,0-.564-1.815A1.766,1.766,0,0,0,738.208,530.124Z" transform="translate(-623.89 -524.33)" fill="#fff"/>
        <path id="Trazado_343" data-name="Trazado 343" d="M752.218,528.581h2.05l.132,1.186a3.225,3.225,0,0,1,1.232-1.063,3.664,3.664,0,0,1,1.645-.367,3.11,3.11,0,0,1,2.464,1.054,4.1,4.1,0,0,1,.922,2.8v6.151h-2.332v-5.794a2.61,2.61,0,0,0-.471-1.674,1.639,1.639,0,0,0-1.354-.583,1.8,1.8,0,0,0-1.42.611,2.408,2.408,0,0,0-.536,1.646v5.794h-2.333Z" transform="translate(-632.106 -524.33)" fill="#fff"/>
        <path id="Trazado_344" data-name="Trazado 344" d="M773.857,536.635a3.173,3.173,0,0,1-2.389-.837,3.456,3.456,0,0,1-.809-2.493v-4.816h-1.543v-1.807h1.543v-2.6h2.333v2.6h2.182v1.807h-2.182V533.1a1.924,1.924,0,0,0,.339,1.251,1.3,1.3,0,0,0,1.053.4,2.568,2.568,0,0,0,1.053-.226v1.825A4.57,4.57,0,0,1,773.857,536.635Z" transform="translate(-639.655 -522.432)" fill="#fff"/>
        <path id="Trazado_345" data-name="Trazado 345" d="M785.5,538.589a3.323,3.323,0,0,1-2.3-.771,2.633,2.633,0,0,1-.865-2.07,2.943,2.943,0,0,1,1.317-2.567,6.523,6.523,0,0,1,3.744-.913h.414a3.929,3.929,0,0,1,.4.019,2.206,2.206,0,0,0-.6-1.561,2.326,2.326,0,0,0-1.637-.508,5.6,5.6,0,0,0-2.784.791v-1.881a6.746,6.746,0,0,1,3.142-.79,4.1,4.1,0,0,1,3.048,1.082,4.21,4.21,0,0,1,1.072,3.095v5.832h-1.938l-.132-1.129a3.1,3.1,0,0,1-1.213,1.006A3.787,3.787,0,0,1,785.5,538.589Zm.64-1.655a2,2,0,0,0,1.477-.621,2.064,2.064,0,0,0,.611-1.5v-.959c-.126,0-.254,0-.386-.009s-.267-.009-.4-.009a4.373,4.373,0,0,0-2.135.423,1.343,1.343,0,0,0-.743,1.232,1.357,1.357,0,0,0,.433,1.053A1.636,1.636,0,0,0,786.142,536.934Z" transform="translate(-645.563 -524.33)" fill="#fff"/>
        <path id="Trazado_346" data-name="Trazado 346" d="M809.567,535.354a3.48,3.48,0,0,1-2.888-1.383,5.836,5.836,0,0,1-1.082-3.7,6.781,6.781,0,0,1,.517-2.766,4.1,4.1,0,0,1,1.43-1.787,3.639,3.639,0,0,1,2.1-.621,3.379,3.379,0,0,1,1.514.339,3.149,3.149,0,0,1,1.157.978v-5.324h2.333V535.11h-2.032l-.151-1.336a3.012,3.012,0,0,1-1.195,1.166A3.513,3.513,0,0,1,809.567,535.354Zm.621-1.919a1.864,1.864,0,0,0,1.608-.846,4.014,4.014,0,0,0,.593-2.333,4.2,4.2,0,0,0-.583-2.36,1.842,1.842,0,0,0-1.618-.875,1.9,1.9,0,0,0-1.646.846,4.048,4.048,0,0,0-.593,2.352,4.1,4.1,0,0,0,.593,2.361A1.89,1.89,0,0,0,810.188,533.435Z" transform="translate(-655.952 -521.095)" fill="#fff"/>
        <path id="Trazado_347" data-name="Trazado 347" d="M829.8,538.589a4.706,4.706,0,0,1-3.594-1.373,5.283,5.283,0,0,1-1.3-3.781,6.005,6.005,0,0,1,.573-2.7,4.227,4.227,0,0,1,1.59-1.778,4.348,4.348,0,0,1,2.314-.621,3.723,3.723,0,0,1,2.991,1.279,5.28,5.28,0,0,1,1.091,3.537v1.053h-6.32a2.944,2.944,0,0,0,.94,1.882,3.006,3.006,0,0,0,2.013.64,5.94,5.94,0,0,0,2.766-.715v1.862A6.333,6.333,0,0,1,829.8,538.589Zm-.508-8.466a1.869,1.869,0,0,0-1.477.631,3.254,3.254,0,0,0-.687,1.834h4.176a2.965,2.965,0,0,0-.564-1.815A1.766,1.766,0,0,0,829.293,530.124Z" transform="translate(-664.578 -524.33)" fill="#fff"/>
        <path id="Trazado_348" data-name="Trazado 348" d="M851.461,538.589a3.323,3.323,0,0,1-2.3-.771,2.634,2.634,0,0,1-.865-2.07,2.943,2.943,0,0,1,1.317-2.567,6.523,6.523,0,0,1,3.744-.913h.414a3.928,3.928,0,0,1,.4.019,2.206,2.206,0,0,0-.6-1.561,2.326,2.326,0,0,0-1.637-.508,5.6,5.6,0,0,0-2.784.791v-1.881a6.746,6.746,0,0,1,3.142-.79,4.1,4.1,0,0,1,3.048,1.082,4.21,4.21,0,0,1,1.072,3.095v5.832h-1.938l-.132-1.129a3.1,3.1,0,0,1-1.213,1.006A3.787,3.787,0,0,1,851.461,538.589Zm.64-1.655a2,2,0,0,0,1.477-.621,2.064,2.064,0,0,0,.611-1.5v-.959c-.126,0-.254,0-.386-.009s-.267-.009-.4-.009a4.373,4.373,0,0,0-2.135.423,1.343,1.343,0,0,0-.743,1.232,1.357,1.357,0,0,0,.433,1.053A1.636,1.636,0,0,0,852.1,536.934Z" transform="translate(-675.027 -524.33)" fill="#fff"/>
        <path id="Trazado_349" data-name="Trazado 349" d="M866.626,521.095h2.333v5.249a3.248,3.248,0,0,1,1.194-.922,3.666,3.666,0,0,1,1.533-.32,3.113,3.113,0,0,1,2.465,1.054,4.107,4.107,0,0,1,.922,2.8v6.152H872.74v-5.794a2.613,2.613,0,0,0-.47-1.674,1.641,1.641,0,0,0-1.355-.583,1.8,1.8,0,0,0-1.42.611,2.408,2.408,0,0,0-.536,1.646v5.794h-2.333Z" transform="translate(-683.213 -521.095)" fill="#fff"/>
        <path id="Trazado_350" data-name="Trazado 350" d="M889.323,538.589a4.553,4.553,0,0,1-2.455-.65,4.221,4.221,0,0,1-1.6-1.805,6.08,6.08,0,0,1-.555-2.662,5.95,5.95,0,0,1,.593-2.728,4.272,4.272,0,0,1,1.637-1.787,4.919,4.919,0,0,1,4.834.028,4.226,4.226,0,0,1,1.6,1.805,6.093,6.093,0,0,1,.555,2.662,5.948,5.948,0,0,1-.593,2.728,4.27,4.27,0,0,1-1.637,1.787A4.569,4.569,0,0,1,889.323,538.589Zm0-1.919a1.922,1.922,0,0,0,1.656-.846,4,4,0,0,0,.6-2.352,4.057,4.057,0,0,0-.6-2.352,2.029,2.029,0,0,0-3.311-.019,4,4,0,0,0-.6,2.352,4.052,4.052,0,0,0,.6,2.352A1.908,1.908,0,0,0,889.323,536.67Z" transform="translate(-691.294 -524.33)" fill="#fff"/>
        <path id="Trazado_351" data-name="Trazado 351" d="M904.332,528.626h2.051l.15,1.411a2.913,2.913,0,0,1,.969-1.176,2.337,2.337,0,0,1,1.364-.424,2,2,0,0,1,.734.113V530.7a2.29,2.29,0,0,0-.828-.132,1.875,1.875,0,0,0-1.533.705,2.939,2.939,0,0,0-.574,1.909v5.211h-2.333Z" transform="translate(-700.057 -524.375)" fill="#fff"/>
        <path id="Trazado_352" data-name="Trazado 352" d="M916.742,528.626h2.05l.151,1.411a2.908,2.908,0,0,1,.969-1.176,2.336,2.336,0,0,1,1.364-.424,2,2,0,0,1,.734.113V530.7a2.29,2.29,0,0,0-.828-.132,1.875,1.875,0,0,0-1.533.705,2.937,2.937,0,0,0-.574,1.909v5.211h-2.333Z" transform="translate(-705.601 -524.375)" fill="#fff"/>
        <path id="Trazado_353" data-name="Trazado 353" d="M932.231,538.589a4.55,4.55,0,0,1-2.455-.65,4.218,4.218,0,0,1-1.6-1.805,6.079,6.079,0,0,1-.555-2.662,5.951,5.951,0,0,1,.593-2.728,4.273,4.273,0,0,1,1.637-1.787,4.92,4.92,0,0,1,4.835.028,4.229,4.229,0,0,1,1.6,1.805,6.092,6.092,0,0,1,.555,2.662,5.947,5.947,0,0,1-.593,2.728,4.27,4.27,0,0,1-1.637,1.787A4.567,4.567,0,0,1,932.231,538.589Zm0-1.919a1.922,1.922,0,0,0,1.655-.846,4,4,0,0,0,.6-2.352,4.057,4.057,0,0,0-.6-2.352,2.029,2.029,0,0,0-3.311-.019,4,4,0,0,0-.6,2.352,4.052,4.052,0,0,0,.6,2.352A1.908,1.908,0,0,0,932.231,536.67Z" transform="translate(-710.461 -524.33)" fill="#fff"/>
        <path id="Trazado_354" data-name="Trazado 354" d="M949.833,538.589a7.194,7.194,0,0,1-3.1-.64v-1.919a5.71,5.71,0,0,0,2.859.733,2.43,2.43,0,0,0,1.317-.3.966.966,0,0,0,.47-.865.875.875,0,0,0-.4-.752,6.055,6.055,0,0,0-1.627-.621,4.109,4.109,0,0,1-1.975-1.082,2.775,2.775,0,0,1,.451-3.978,4.576,4.576,0,0,1,2.841-.828,6.264,6.264,0,0,1,2.446.489v1.862a5.5,5.5,0,0,0-2.389-.527,2.446,2.446,0,0,0-1.26.273.878.878,0,0,0-.451.8.846.846,0,0,0,.386.724,5.566,5.566,0,0,0,1.514.593,4.413,4.413,0,0,1,2.135,1.119,2.708,2.708,0,0,1,.668,1.909,2.642,2.642,0,0,1-1.044,2.192A4.471,4.471,0,0,1,949.833,538.589Z" transform="translate(-718.996 -524.33)" fill="#fff"/>
        <path id="Trazado_355" data-name="Trazado 355" d="M962.744,532.156a3.7,3.7,0,0,1-.057-.6,3.747,3.747,0,0,1,.367-1.74,4.557,4.557,0,0,1,1.289-1.42,6.679,6.679,0,0,0,1.222-1.129,1.448,1.448,0,0,0,.3-.865,1.2,1.2,0,0,0-.517-1.053,2.582,2.582,0,0,0-1.477-.358,5.589,5.589,0,0,0-2.9.828V523.86a6.749,6.749,0,0,1,3.235-.827,4.659,4.659,0,0,1,2.945.847,2.76,2.76,0,0,1,1.082,2.3,3.032,3.032,0,0,1-.423,1.59,5.042,5.042,0,0,1-1.327,1.383,6.477,6.477,0,0,0-1.429,1.307,2.212,2.212,0,0,0-.357,1.288,3.6,3.6,0,0,0,.018.414Zm1.11,3.97a1.383,1.383,0,0,1-1.007-.4,1.333,1.333,0,0,1-.4-1,1.411,1.411,0,1,1,2.822,0,1.336,1.336,0,0,1-.4,1A1.383,1.383,0,0,1,963.854,536.126Z" transform="translate(-725.36 -521.961)" fill="#fff"/>
      </g>
    </g>
  </g>
</svg>
