<svg xmlns="http://www.w3.org/2000/svg" xmlns:xlink="http://www.w3.org/1999/xlink" width="222" height="65" viewBox="0 0 222 65">
  <defs>
    <linearGradient id="linear-gradient" x1="0.915" y1="6.614" x2="-0.383" y2="5.945" gradientUnits="objectBoundingBox">
      <stop offset="0" stop-color="#00a0ff"/>
      <stop offset="0.007" stop-color="#00a1ff"/>
      <stop offset="0.26" stop-color="#00beff"/>
      <stop offset="0.512" stop-color="#00d2ff"/>
      <stop offset="0.76" stop-color="#00dfff"/>
      <stop offset="1" stop-color="#00e3ff"/>
    </linearGradient>
    <linearGradient id="linear-gradient-2" x1="1.076" y1="17.098" x2="-1.305" y2="17.098" gradientUnits="objectBoundingBox">
      <stop offset="0" stop-color="#ffe000"/>
      <stop offset="0.409" stop-color="#ffbd00"/>
      <stop offset="0.775" stop-color="orange"/>
      <stop offset="1" stop-color="#ff9c00"/>
    </linearGradient>
    <linearGradient id="linear-gradient-3" x1="0.862" y1="10.863" x2="-0.501" y2="9.093" gradientUnits="objectBoundingBox">
      <stop offset="0" stop-color="#ff3a44"/>
      <stop offset="1" stop-color="#c31162"/>
    </linearGradient>
    <linearGradient id="linear-gradient-4" x1="-0.188" y1="13.583" x2="0.421" y2="12.793" gradientUnits="objectBoundingBox">
      <stop offset="0" stop-color="#32a071"/>
      <stop offset="0.068" stop-color="#2da771"/>
      <stop offset="0.476" stop-color="#15cf74"/>
      <stop offset="0.801" stop-color="#06e775"/>
      <stop offset="1" stop-color="#00f076"/>
    </linearGradient>
  </defs>
  <g id="Btn-PlayStore" transform="translate(-10 -10)">
    <rect id="Rectángulo_269" data-name="Rectángulo 269" width="222" height="65" rx="8" transform="translate(10 10)"/>
    <path id="Trazado_310" data-name="Trazado 310" d="M95.588,34.783a6.993,6.993,0,1,0,7.019,6.992A6.892,6.892,0,0,0,95.588,34.783Zm0,11.229a4.249,4.249,0,1,1,3.946-4.237A4.045,4.045,0,0,1,95.588,46.012ZM80.276,34.783a6.993,6.993,0,1,0,7.019,6.992A6.892,6.892,0,0,0,80.276,34.783Zm0,11.229a4.249,4.249,0,1,1,3.946-4.237A4.045,4.045,0,0,1,80.276,46.012ZM62.061,36.928v2.966h7.1a6.191,6.191,0,0,1-1.615,3.734A7.268,7.268,0,0,1,62.061,45.8a7.893,7.893,0,0,1,0-15.785,7.563,7.563,0,0,1,5.35,2.119L69.5,30.041a10.35,10.35,0,0,0-7.443-2.994,10.861,10.861,0,1,0,0,21.721,9.924,9.924,0,0,0,7.574-3.047,9.8,9.8,0,0,0,2.57-6.94,9.583,9.583,0,0,0-.159-1.853Zm74.492,2.3a6.5,6.5,0,0,0-5.986-4.449,6.644,6.644,0,0,0-6.595,6.992,6.843,6.843,0,0,0,6.94,6.992,6.954,6.954,0,0,0,5.827-3.1l-2.384-1.59a4,4,0,0,1-3.443,1.933,3.559,3.559,0,0,1-3.392-2.118l9.35-3.869Zm-9.536,2.331a3.836,3.836,0,0,1,3.655-4.079,2.705,2.705,0,0,1,2.6,1.483Zm-7.6,6.78h3.071V27.788h-3.071Zm-5.034-12h-.105a4.846,4.846,0,0,0-3.681-1.562,7,7,0,0,0,0,13.985,4.764,4.764,0,0,0,3.681-1.59h.105v1.008c0,2.675-1.429,4.105-3.734,4.105a3.87,3.87,0,0,1-3.523-2.491l-2.675,1.113a6.663,6.663,0,0,0,6.2,4.132c3.6,0,6.649-2.119,6.649-7.283V35.205h-2.915Zm-3.522,9.667a4.012,4.012,0,0,1-3.893-4.211,4.045,4.045,0,0,1,3.893-4.265c2.093,0,3.734,1.8,3.734,4.265A3.906,3.906,0,0,1,110.86,46.012ZM150.946,27.79h-7.351V48.343h3.066V40.557h4.285a6.393,6.393,0,1,0,0-12.767Zm.079,9.906h-4.363V30.651h4.363a3.523,3.523,0,1,1,0,7.045Zm18.96-2.951a5.763,5.763,0,0,0-5.475,3.145l2.724,1.138a2.906,2.906,0,0,1,2.8-1.508c1.587,0,3.2.952,3.226,2.645v.21a6.786,6.786,0,0,0-3.2-.792c-2.935,0-5.924,1.613-5.924,4.627,0,2.751,2.407,4.523,5.1,4.523a4.329,4.329,0,0,0,3.915-2.011h.105v1.587h2.961v-7.88C176.224,36.78,173.5,34.745,169.985,34.745Zm-.37,11.264c-1.006,0-2.407-.5-2.407-1.744,0-1.587,1.744-2.195,3.252-2.195a5.473,5.473,0,0,1,2.8.687A3.719,3.719,0,0,1,169.615,46.009Zm17.4-10.815L183.5,44.1h-.105l-3.65-8.911h-3.3l5.473,12.454-3.121,6.928h3.2l8.436-19.383ZM159.38,48.343h3.068V27.79H159.38Z" transform="translate(26.436 10.98)" fill="#fff"/>
    <g id="Grupo_243" data-name="Grupo 243" transform="translate(26.397 21.74)">
      <path id="Trazado_311" data-name="Trazado 311" d="M20.733,17.585a3.3,3.3,0,0,0-.76,2.31V56.256a3.3,3.3,0,0,0,.76,2.31l.122.118L41.223,38.316v-.48L20.854,17.465Z" transform="translate(-19.973 -16.931)" fill="url(#linear-gradient)"/>
      <path id="Trazado_312" data-name="Trazado 312" d="M39.688,39.789,32.9,33v-.48l6.792-6.792.153.089,8.045,4.571c2.3,1.305,2.3,3.441,0,4.747L39.843,39.7Z" transform="translate(-11.648 -11.612)" fill="url(#linear-gradient-2)"/>
      <path id="Trazado_313" data-name="Trazado 313" d="M47.871,36.946,40.926,30,20.435,50.492c.758.8,2.009.9,3.418.1L47.871,36.946" transform="translate(-19.675 -8.857)" fill="url(#linear-gradient-3)"/>
      <path id="Trazado_314" data-name="Trazado 314" d="M47.871,31.34,23.853,17.694c-1.409-.8-2.66-.7-3.418.1L40.926,38.285Z" transform="translate(-19.675 -17.14)" fill="url(#linear-gradient-4)"/>
      <g id="Grupo_242" data-name="Grupo 242" transform="translate(0 27.936)">
        <path id="Trazado_315" data-name="Trazado 315" d="M47.718,34.132,23.853,47.691c-1.335.76-2.529.709-3.295.018h0l-.123.122h0l.122.12,0,0c.766.691,1.96.742,3.295-.018L47.871,34.285Z" transform="translate(-19.675 -34.132)" opacity="0.2"/>
        <path id="Trazado_316" data-name="Trazado 316" d="M20.733,43.223a3.3,3.3,0,0,1-.76-2.31v.242a3.292,3.292,0,0,0,.76,2.308l.123-.122Z" transform="translate(-19.973 -29.764)" opacity="0.12"/>
      </g>
      <path id="Trazado_317" data-name="Trazado 317" d="M45.227,32.135l-8.2,4.658.153.153,8.045-4.571A2.886,2.886,0,0,0,46.95,30h0A3.059,3.059,0,0,1,45.227,32.135Z" transform="translate(-8.987 -8.857)" opacity="0.12"/>
      <path id="Trazado_318" data-name="Trazado 318" d="M24.151,17.934,56.213,36.151a3.059,3.059,0,0,1,1.723,2.134h0a2.882,2.882,0,0,0-1.723-2.374L24.151,17.694c-2.3-1.305-4.178-.22-4.178,2.41v.242C19.973,17.713,21.852,16.628,24.151,17.934Z" transform="translate(-19.973 -17.14)" fill="#fff" opacity="0.25"/>
    </g>
    <g id="Grupo_244" data-name="Grupo 244" transform="translate(77.869 21.289)">
      <path id="Trazado_319" data-name="Trazado 319" d="M51.28,26.865V17H54.3a4.906,4.906,0,0,1,3.638,1.371A4.829,4.829,0,0,1,59.3,21.932a4.831,4.831,0,0,1-1.363,3.561A4.906,4.906,0,0,1,54.3,26.865Zm1.268-1.212H54.3A3.7,3.7,0,0,0,57,24.673a3.658,3.658,0,0,0,1-2.741A3.429,3.429,0,0,0,54.3,18.212H52.548Z" transform="translate(-51.28 -16.78)" fill="#fff" stroke="#fff" stroke-miterlimit="10" stroke-width="0.2"/>
      <path id="Trazado_320" data-name="Trazado 320" d="M57.239,26.865V17h1.268v9.865Z" transform="translate(-47.442 -16.78)" fill="#fff" stroke="#fff" stroke-miterlimit="10" stroke-width="0.2"/>
      <path id="Trazado_321" data-name="Trazado 321" d="M62.425,27.171a3.676,3.676,0,0,1-2.1-.7A3.247,3.247,0,0,1,58.981,24.5l1.157-.467a2.652,2.652,0,0,0,.847,1.37,2.142,2.142,0,0,0,1.44.557,2.3,2.3,0,0,0,1.412-.432,1.388,1.388,0,0,0,.585-1.179,1.508,1.508,0,0,0-.585-1.274,6.052,6.052,0,0,0-1.851-.834A4.923,4.923,0,0,1,60,21.17a2.227,2.227,0,0,1-.677-1.674,2.446,2.446,0,0,1,.842-1.845,3.076,3.076,0,0,1,2.19-.786,3.166,3.166,0,0,1,2.039.626,2.9,2.9,0,0,1,1.021,1.371l-1.157.482a1.7,1.7,0,0,0-.613-.868,2.156,2.156,0,0,0-2.507.008,1.238,1.238,0,0,0-.516,1.011,1.148,1.148,0,0,0,.475.931,4.579,4.579,0,0,0,1.4.682,11.676,11.676,0,0,1,1.22.455,5.518,5.518,0,0,1,.991.585,2.326,2.326,0,0,1,.758.909,2.949,2.949,0,0,1,.255,1.259,2.7,2.7,0,0,1-.3,1.282,2.424,2.424,0,0,1-.786.9,3.962,3.962,0,0,1-2.211.674Z" transform="translate(-46.32 -16.866)" fill="#fff" stroke="#fff" stroke-miterlimit="10" stroke-width="0.2"/>
      <path id="Trazado_322" data-name="Trazado 322" d="M65.453,26.865H64.185V17h3.362a3.117,3.117,0,0,1,2.17.834,2.868,2.868,0,0,1,0,4.2,3.117,3.117,0,0,1-2.17.834H65.453Zm0-5.209h2.123a1.634,1.634,0,0,0,1.281-.536,1.7,1.7,0,0,0,0-2.369,1.631,1.631,0,0,0-1.281-.539H65.453Z" transform="translate(-42.968 -16.78)" fill="#fff" stroke="#fff" stroke-miterlimit="10" stroke-width="0.2"/>
      <path id="Trazado_323" data-name="Trazado 323" d="M77.388,25.677a5.122,5.122,0,0,1-7.233,0A5.044,5.044,0,0,1,68.7,22.019a5.044,5.044,0,0,1,1.453-3.658,5.106,5.106,0,0,1,7.226.007,5.313,5.313,0,0,1,.007,7.31Zm-6.3-.827a3.795,3.795,0,0,0,5.36,0,3.861,3.861,0,0,0,1.1-2.831,3.861,3.861,0,0,0-1.1-2.831,3.795,3.795,0,0,0-5.36,0A3.866,3.866,0,0,0,70,22.019,3.866,3.866,0,0,0,71.091,24.85Z" transform="translate(-40.058 -16.866)" fill="#fff" stroke="#fff" stroke-miterlimit="10" stroke-width="0.2"/>
      <path id="Trazado_324" data-name="Trazado 324" d="M75.951,26.865V17h1.544l4.794,7.673h.054l-.054-1.9V17h1.268v9.865H82.233l-5.015-8.046h-.054l.054,1.9v6.144Z" transform="translate(-35.389 -16.78)" fill="#fff" stroke="#fff" stroke-miterlimit="10" stroke-width="0.2"/>
      <path id="Trazado_325" data-name="Trazado 325" d="M81.951,26.865V17h1.268v9.865Z" transform="translate(-31.524 -16.78)" fill="#fff" stroke="#fff" stroke-miterlimit="10" stroke-width="0.2"/>
      <path id="Trazado_326" data-name="Trazado 326" d="M84.1,26.865V17h3.568a2.892,2.892,0,0,1,2,.765,2.478,2.478,0,0,1,.848,1.922,2.142,2.142,0,0,1-.367,1.24,2.289,2.289,0,0,1-.97.814v.054a2.518,2.518,0,0,1,1.2.853,2.253,2.253,0,0,1,.469,1.407,2.587,2.587,0,0,1-.889,2.011,3.037,3.037,0,0,1-2.1.8Zm1.266-5.636h2.3a1.476,1.476,0,0,0,1.151-.475,1.473,1.473,0,0,0,.013-2.072,1.417,1.417,0,0,0-1.108-.47H85.362Zm0,4.424h2.55a1.515,1.515,0,0,0,1.185-.511,1.64,1.64,0,0,0,.454-1.116,1.66,1.66,0,0,0-1.7-1.611H85.362Z" transform="translate(-30.142 -16.78)" fill="#fff" stroke="#fff" stroke-miterlimit="10" stroke-width="0.2"/>
      <path id="Trazado_327" data-name="Trazado 327" d="M89.241,26.865V17h1.268v8.653h4.27v1.212Z" transform="translate(-26.828 -16.78)" fill="#fff" stroke="#fff" stroke-miterlimit="10" stroke-width="0.2"/>
      <path id="Trazado_328" data-name="Trazado 328" d="M99.341,18.212H94.85V21.34H98.9v1.184H94.85v3.129h4.492v1.212H93.582V17h5.759Z" transform="translate(-24.032 -16.78)" fill="#fff" stroke="#fff" stroke-miterlimit="10" stroke-width="0.2"/>
      <path id="Trazado_329" data-name="Trazado 329" d="M106.062,18.212h-4.493V21.34h4.051v1.184h-4.051v3.129h4.493v1.212H100.3V17h5.759Z" transform="translate(-19.703 -16.78)" fill="#fff" stroke="#fff" stroke-miterlimit="10" stroke-width="0.2"/>
      <path id="Trazado_330" data-name="Trazado 330" d="M105.012,26.865V17h1.542l4.794,7.673h.054l-.054-1.9V17h1.269v9.865h-1.324l-5.016-8.046h-.054l.054,1.9v6.144Z" transform="translate(-16.67 -16.78)" fill="#fff" stroke="#fff" stroke-miterlimit="10" stroke-width="0.2"/>
    </g>
  </g>
</svg>
