<svg xmlns="http://www.w3.org/2000/svg" width="30.5" height="30.499" viewBox="0 0 30.5 30.499">
  <g id="Grupo_225" data-name="Grupo 225" transform="translate(0 0)">
    <path id="Trazado_158" data-name="Trazado 158" d="M1188.52,214.157h-20.766a4.872,4.872,0,0,0-4.867,4.867v20.765a4.873,4.873,0,0,0,4.867,4.867h20.766a4.872,4.872,0,0,0,4.866-4.867V219.024A4.872,4.872,0,0,0,1188.52,214.157Zm-1.436,23.549a1.42,1.42,0,0,1-1.437,1.4h-16.531a1.418,1.418,0,0,1-1.432-1.4v-16.6a1.416,1.416,0,0,1,1.432-1.4h16.531a1.419,1.419,0,0,1,1.437,1.4Zm.988-1.348a.515.515,0,1,1,.515-.515A.51.51,0,0,1,1188.072,236.359Z" transform="translate(-1162.886 -214.157)" fill="#f7f7f7"/>
    <rect id="Rectángulo_188" data-name="Rectángulo 188" width="2.877" height="9.258" transform="translate(7.676 12.822)" fill="#f7f7f7"/>
    <path id="Trazado_159" data-name="Trazado 159" d="M1177.815,223.745a3.021,3.021,0,0,0-2.721,1.5h-.04v-1.265H1172.3v9.258h2.875v-4.581c0-1.207.23-2.377,1.727-2.377,1.475,0,1.495,1.382,1.495,2.456v4.5h2.875v-5.079C1181.266,225.662,1180.729,223.745,1177.815,223.745Z" transform="translate(-1159.938 -211.153)" fill="#f7f7f7"/>
    <path id="Trazado_160" data-name="Trazado 160" d="M1170.224,220.417a1.668,1.668,0,1,0,1.667,1.667A1.668,1.668,0,0,0,1170.224,220.417Z" transform="translate(-1161.11 -212.196)" fill="#f7f7f7"/>
  </g>
</svg>
