<svg xmlns="http://www.w3.org/2000/svg" width="26.803" height="22.44" viewBox="0 0 26.803 22.44">
  <g id="Grupo_217" data-name="Grupo 217" transform="translate(0 0)">
    <path id="Trazado_161" data-name="Trazado 161" d="M791.248,100.515H769.806a1.789,1.789,0,0,1-1.787-1.786V83.54a1.789,1.789,0,0,1,1.787-1.787h21.442a1.789,1.789,0,0,1,1.787,1.787V98.729a1.789,1.789,0,0,1-1.787,1.786m0-16.975H769.806V98.729h21.443Z" transform="translate(-767.125 -81.753)" fill="#f7f7f7"/>
    <path id="Trazado_162" data-name="Trazado 162" d="M768.019,104.193a.894.894,0,1,1,0-1.787h25.016a.894.894,0,0,1,0,1.787Z" transform="translate(-767.125 -81.753)" fill="#f7f7f7"/>
    <path id="Trazado_163" data-name="Trazado 163" d="M787.972,85.327h1.191a.3.3,0,0,1,.3.3v1.19a.3.3,0,0,1-.3.3h-1.191a.3.3,0,0,1-.3-.3v-1.19a.3.3,0,0,1,.3-.3" transform="translate(-767.125 -81.753)" fill="#f7f7f7"/>
    <path id="Trazado_164" data-name="Trazado 164" d="M785.292,85.327h1.191a.3.3,0,0,1,.3.3v1.19a.3.3,0,0,1-.3.3h-1.191a.3.3,0,0,1-.3-.3v-1.19a.3.3,0,0,1,.3-.3" transform="translate(-767.125 -81.753)" fill="#f7f7f7"/>
    <path id="Trazado_165" data-name="Trazado 165" d="M785.292,88.007h1.191a.3.3,0,0,1,.3.3V89.5a.3.3,0,0,1-.3.3h-1.191a.3.3,0,0,1-.3-.3V88.305a.3.3,0,0,1,.3-.3" transform="translate(-767.125 -81.753)" fill="#f7f7f7"/>
    <path id="Trazado_166" data-name="Trazado 166" d="M785.292,90.687h1.191a.3.3,0,0,1,.3.3v1.191a.3.3,0,0,1-.3.3h-1.191a.3.3,0,0,1-.3-.3V90.985a.3.3,0,0,1,.3-.3" transform="translate(-767.125 -81.753)" fill="#f7f7f7"/>
    <path id="Trazado_167" data-name="Trazado 167" d="M787.972,90.687h1.191a.3.3,0,0,1,.3.3v1.191a.3.3,0,0,1-.3.3h-1.191a.3.3,0,0,1-.3-.3V90.985a.3.3,0,0,1,.3-.3" transform="translate(-767.125 -81.753)" fill="#f7f7f7"/>
    <path id="Trazado_168" data-name="Trazado 168" d="M787.972,93.367h1.191a.3.3,0,0,1,.3.3v1.192a.3.3,0,0,1-.3.3h-1.191a.3.3,0,0,1-.3-.3V93.665a.3.3,0,0,1,.3-.3" transform="translate(-767.125 -81.753)" fill="#f7f7f7"/>
    <path id="Trazado_169" data-name="Trazado 169" d="M787.972,88.007h1.191a.3.3,0,0,1,.3.3V89.5a.3.3,0,0,1-.3.3h-1.191a.3.3,0,0,1-.3-.3V88.305a.3.3,0,0,1,.3-.3" transform="translate(-767.125 -81.753)" fill="#f7f7f7"/>
  </g>
</svg>
