<svg xmlns="http://www.w3.org/2000/svg" width="17.632" height="22.44" viewBox="0 0 17.632 22.44">
  <g id="Grupo_218" data-name="Grupo 218" transform="translate(0 0)">
    <g id="Grupo_175" data-name="Grupo 175">
      <path id="Trazado_171" data-name="Trazado 171" d="M967.338,81.753H956.495c-.057,0-.115,0-.171,0a3.29,3.29,0,0,0-3.223,3.2v16.028a3.307,3.307,0,0,0,3.394,3.206h10.843c.058,0,.115,0,.172,0,.111-.006.223-.018.334-.033.056-.008.112-.017.166-.027a3.265,3.265,0,0,0,2.722-3.143V84.959a3.308,3.308,0,0,0-3.394-3.206M956.4,83.358c.033,0,.065,0,.1,0h10.843a1.707,1.707,0,0,1,1.792,1.6V96.18H954.7V84.959a1.692,1.692,0,0,1,1.7-1.6m11.31,19.2-.09.015c-.061.009-.124.013-.186.017l-.095,0H956.495a1.706,1.706,0,0,1-1.791-1.6v-3.2H969.13v3.2a1.666,1.666,0,0,1-1.421,1.569" transform="translate(-953.101 -81.753)" fill="#f7f7f7"/>
      <path id="Trazado_172" data-name="Trazado 172" d="M961.917,99.386a1.2,1.2,0,1,0,1.2,1.2,1.2,1.2,0,0,0-1.2-1.2" transform="translate(-953.101 -81.753)" fill="#f7f7f7"/>
      <path id="Trazado_173" data-name="Trazado 173" d="M956.872,88.166h2.074a.567.567,0,0,0,.566-.566V85.526a.567.567,0,0,0-.566-.566h-2.074a.568.568,0,0,0-.565.566V87.6a.567.567,0,0,0,.565.566" transform="translate(-953.101 -81.753)" fill="#f7f7f7"/>
      <path id="Trazado_174" data-name="Trazado 174" d="M960.88,88.166h2.074a.567.567,0,0,0,.566-.566V85.526a.568.568,0,0,0-.566-.566H960.88a.567.567,0,0,0-.565.566V87.6a.567.567,0,0,0,.565.566" transform="translate(-953.101 -81.753)" fill="#f7f7f7"/>
      <path id="Trazado_175" data-name="Trazado 175" d="M964.886,88.166h2.074a.568.568,0,0,0,.567-.566V85.526a.568.568,0,0,0-.567-.566h-2.074a.568.568,0,0,0-.565.566V87.6a.567.567,0,0,0,.565.566" transform="translate(-953.101 -81.753)" fill="#f7f7f7"/>
      <path id="Trazado_176" data-name="Trazado 176" d="M956.872,92.973h2.074a.567.567,0,0,0,.566-.565V90.333a.566.566,0,0,0-.566-.565h-2.074a.566.566,0,0,0-.565.565v2.075a.567.567,0,0,0,.565.565" transform="translate(-953.101 -81.753)" fill="#f7f7f7"/>
      <path id="Trazado_177" data-name="Trazado 177" d="M960.88,92.973h2.074a.567.567,0,0,0,.566-.565V90.333a.567.567,0,0,0-.566-.565H960.88a.566.566,0,0,0-.565.565v2.075a.566.566,0,0,0,.565.565" transform="translate(-953.101 -81.753)" fill="#f7f7f7"/>
      <path id="Trazado_178" data-name="Trazado 178" d="M967.338,81.753H956.495c-.057,0-.115,0-.171,0a3.29,3.29,0,0,0-3.223,3.2v16.028a3.307,3.307,0,0,0,3.394,3.206h10.843c.058,0,.115,0,.172,0,.111-.006.223-.018.334-.033.056-.008.112-.017.166-.027a3.265,3.265,0,0,0,2.722-3.143V84.959a3.308,3.308,0,0,0-3.394-3.206M956.4,83.358c.033,0,.065,0,.1,0h10.843a1.707,1.707,0,0,1,1.792,1.6V96.18H954.7V84.959a1.692,1.692,0,0,1,1.7-1.6m11.31,19.2-.09.015c-.061.009-.124.013-.186.017l-.095,0H956.495a1.706,1.706,0,0,1-1.791-1.6v-3.2H969.13v3.2a1.666,1.666,0,0,1-1.421,1.569" transform="translate(-953.101 -81.753)" fill="#f7f7f7"/>
      <path id="Trazado_179" data-name="Trazado 179" d="M961.917,99.386a1.2,1.2,0,1,0,1.2,1.2,1.2,1.2,0,0,0-1.2-1.2" transform="translate(-953.101 -81.753)" fill="#f7f7f7"/>
      <path id="Trazado_180" data-name="Trazado 180" d="M956.872,88.166h2.074a.567.567,0,0,0,.566-.566V85.526a.567.567,0,0,0-.566-.566h-2.074a.568.568,0,0,0-.565.566V87.6a.567.567,0,0,0,.565.566" transform="translate(-953.101 -81.753)" fill="#f7f7f7"/>
      <path id="Trazado_181" data-name="Trazado 181" d="M960.88,88.166h2.074a.567.567,0,0,0,.566-.566V85.526a.568.568,0,0,0-.566-.566H960.88a.567.567,0,0,0-.565.566V87.6a.567.567,0,0,0,.565.566" transform="translate(-953.101 -81.753)" fill="#f7f7f7"/>
      <path id="Trazado_182" data-name="Trazado 182" d="M964.886,88.166h2.074a.568.568,0,0,0,.567-.566V85.526a.568.568,0,0,0-.567-.566h-2.074a.568.568,0,0,0-.565.566V87.6a.567.567,0,0,0,.565.566" transform="translate(-953.101 -81.753)" fill="#f7f7f7"/>
      <path id="Trazado_183" data-name="Trazado 183" d="M956.872,92.973h2.074a.567.567,0,0,0,.566-.565V90.333a.566.566,0,0,0-.566-.565h-2.074a.566.566,0,0,0-.565.565v2.075a.567.567,0,0,0,.565.565" transform="translate(-953.101 -81.753)" fill="#f7f7f7"/>
      <path id="Trazado_184" data-name="Trazado 184" d="M960.88,92.973h2.074a.567.567,0,0,0,.566-.565V90.333a.567.567,0,0,0-.566-.565H960.88a.566.566,0,0,0-.565.565v2.075a.566.566,0,0,0,.565.565" transform="translate(-953.101 -81.753)" fill="#f7f7f7"/>
    </g>
  </g>
</svg>
