<svg xmlns="http://www.w3.org/2000/svg" width="30.501" height="30.499" viewBox="0 0 30.501 30.499">
  <g id="Grupo_222" data-name="Grupo 222" transform="translate(0 0)">
    <path id="Trazado_151" data-name="Trazado 151" d="M1004.8,214.157H984.032a4.873,4.873,0,0,0-4.869,4.867v20.765a4.874,4.874,0,0,0,4.869,4.867H1004.8a4.874,4.874,0,0,0,4.867-4.867V219.024A4.873,4.873,0,0,0,1004.8,214.157Zm-5.309,8.719h-1.848c-1.445,0-1.727.684-1.727,1.693v2.22h3.455l-.449,3.488h-3.006v8.91h-3.575v-8.91h-3v-3.488h3v-2.565c0-2.976,1.811-4.6,4.468-4.6a25.756,25.756,0,0,1,2.682.135Z" transform="translate(-979.164 -214.157)" fill="#f7f7f7"/>
  </g>
</svg>
