<svg xmlns="http://www.w3.org/2000/svg" width="30.499" height="30.499" viewBox="0 0 30.499 30.499">
  <g id="Grupo_223" data-name="Grupo 223" transform="translate(0 0)">
    <path id="Trazado_152" data-name="Trazado 152" d="M1066.037,214.157h-20.765a4.872,4.872,0,0,0-4.867,4.867v20.765a4.873,4.873,0,0,0,4.867,4.867h20.765a4.873,4.873,0,0,0,4.867-4.867V219.024A4.872,4.872,0,0,0,1066.037,214.157Zm-.553,19.327a7.249,7.249,0,0,1-.458,2.4,5.056,5.056,0,0,1-2.893,2.892,7.24,7.24,0,0,1-2.4.461c-1.055.047-1.391.059-4.078.059s-3.022-.012-4.077-.059a7.24,7.24,0,0,1-2.4-.461,5.056,5.056,0,0,1-2.893-2.892,7.277,7.277,0,0,1-.46-2.4c-.047-1.055-.059-1.391-.059-4.078s.012-3.022.059-4.077a7.276,7.276,0,0,1,.46-2.4,5.062,5.062,0,0,1,2.893-2.893,7.276,7.276,0,0,1,2.4-.46c1.055-.047,1.391-.059,4.077-.059s3.023.012,4.078.059a7.276,7.276,0,0,1,2.4.46,5.062,5.062,0,0,1,2.893,2.893,7.249,7.249,0,0,1,.458,2.4c.049,1.055.06,1.391.06,4.077S1065.533,232.429,1065.484,233.484Z" transform="translate(-1040.405 -214.157)" fill="#f7f7f7"/>
    <path id="Trazado_153" data-name="Trazado 153" d="M1061.661,221.87a3.28,3.28,0,0,0-1.877-1.877,5.47,5.47,0,0,0-1.837-.34c-1.043-.047-1.355-.058-4-.058s-2.952.01-4,.058a5.468,5.468,0,0,0-1.837.34,3.269,3.269,0,0,0-1.877,1.877,5.47,5.47,0,0,0-.34,1.837c-.047,1.043-.058,1.355-.058,4s.01,2.954.058,4a5.471,5.471,0,0,0,.34,1.837,3.269,3.269,0,0,0,1.877,1.877,5.468,5.468,0,0,0,1.837.34c1.043.047,1.355.058,4,.058s2.954-.01,4-.058a5.469,5.469,0,0,0,1.837-.34,3.28,3.28,0,0,0,1.877-1.877,5.466,5.466,0,0,0,.34-1.837c.047-1.043.058-1.355.058-4s-.01-2.952-.058-4A5.466,5.466,0,0,0,1061.661,221.87Zm-7.711,10.911a5.078,5.078,0,1,1,5.079-5.079A5.078,5.078,0,0,1,1053.95,232.781Zm5.28-9.171a1.187,1.187,0,1,1,1.187-1.186A1.185,1.185,0,0,1,1059.23,223.61Z" transform="translate(-1038.701 -212.454)" fill="#f7f7f7"/>
    <circle id="Elipse_34" data-name="Elipse 34" cx="3.297" cy="3.297" r="3.297" transform="translate(11.953 11.952)" fill="#f7f7f7"/>
  </g>
</svg>
