<svg xmlns="http://www.w3.org/2000/svg" width="22.101" height="19.73" viewBox="0 0 22.101 19.73">
  <g id="Grupo_221" data-name="Grupo 221" transform="translate(0 0)">
    <rect id="Rectángulo_190" data-name="Rectángulo 190" width="3.156" height="3.156" transform="translate(4.735 11.838)" fill="#f7f7f7"/>
    <rect id="Rectángulo_191" data-name="Rectángulo 191" width="3.156" height="3.155" transform="translate(4.735 16.575)" fill="#f7f7f7"/>
    <rect id="Rectángulo_192" data-name="Rectángulo 192" width="3.156" height="3.156" transform="translate(9.47 11.838)" fill="#f7f7f7"/>
    <rect id="Rectángulo_193" data-name="Rectángulo 193" width="3.156" height="3.155" transform="translate(9.47 16.575)" fill="#f7f7f7"/>
    <rect id="Rectángulo_194" data-name="Rectángulo 194" width="3.155" height="3.156" transform="translate(14.206 11.838)" fill="#f7f7f7"/>
    <rect id="Rectángulo_195" data-name="Rectángulo 195" width="3.155" height="3.155" transform="translate(14.206 16.575)" fill="#f7f7f7"/>
    <path id="Trazado_170" data-name="Trazado 170" d="M1124.452,92.58h-6.314a.788.788,0,0,1-.787-.79V88.633c0-.169,0-.425-.7-.609a10.7,10.7,0,0,0-2.408-.18h-.286c-2.072,0-2.917.229-2.917.79V91.79a.79.79,0,0,1-.79.79h-6.314a.79.79,0,0,1-.789-.79V88.141a.776.776,0,0,1,.049-.276c.434-3.33,3.678-4.757,10.777-4.757,7.983,0,11.248,1.6,11.274,5.521V91.79a.79.79,0,0,1-.791.79M1118.929,91h4.735V88.633c-.013-1.907-.772-3.946-9.695-3.946-7.837,0-9.063,1.784-9.228,3.528a.891.891,0,0,1-.019.117V91h4.735V88.633c0-2.368,2.925-2.368,4.5-2.368h.293a11.728,11.728,0,0,1,2.8.231,2.161,2.161,0,0,1,1.881,2.136Z" transform="translate(-1103.143 -83.108)" fill="#f7f7f7"/>
  </g>
</svg>
