<svg xmlns="http://www.w3.org/2000/svg" width="30.502" height="30.499" viewBox="0 0 30.502 30.499">
  <g id="Grupo_224" data-name="Grupo 224" transform="translate(0 0)">
    <path id="Trazado_154" data-name="Trazado 154" d="M1127.279,214.157h-20.765a4.873,4.873,0,0,0-4.869,4.867v20.765a4.874,4.874,0,0,0,4.869,4.867h20.765a4.874,4.874,0,0,0,4.867-4.867V219.024A4.873,4.873,0,0,0,1127.279,214.157Zm-.3,20.316a2.638,2.638,0,0,1-1.86,1.862c-1.642.44-8.225.44-8.225.44s-6.583,0-8.224-.44a2.637,2.637,0,0,1-1.861-1.862,29.4,29.4,0,0,1,0-10.134,2.638,2.638,0,0,1,1.861-1.861c1.642-.44,8.224-.44,8.224-.44s6.584,0,8.225.44a2.639,2.639,0,0,1,1.86,1.861,29.4,29.4,0,0,1,0,10.134Z" transform="translate(-1101.645 -214.157)" fill="#f7f7f7"/>
    <path id="Trazado_155" data-name="Trazado 155" d="M1111.654,229.68l5.469-3.158-5.469-3.158Z" transform="translate(-1098.509 -211.274)" fill="#f7f7f7"/>
  </g>
</svg>
