<svg xmlns="http://www.w3.org/2000/svg" width="50" height="50" viewBox="0 0 50 50"><g transform="translate(-170.08 -170.078)"><path d="M178.415,170.078h33.33a8.336,8.336,0,0,1,8.334,8.337V211.75a8.328,8.328,0,0,1-8.334,8.328h-33.33a8.328,8.328,0,0,1-8.336-8.328V178.415A8.336,8.336,0,0,1,178.415,170.078Z" fill="#039"/><g transform="translate(174.263 195.021)"><rect width="3.903" height="16.738" transform="translate(0 0.001)" fill="#ff0"/><path d="M308.313,366.065a10.542,10.542,0,0,0-5.148,1.186l.733,2.466a8,8,0,0,1,3.765-1.01c2.283-.006,2.765,1.154,2.765,1.742v.135c-5.059-.021-8.184,1.621-8.184,4.865a3.965,3.965,0,0,0,4.3,3.836,5.035,5.035,0,0,0,3.919-1.612h.042l.427,1.3h3.177v-7.419C314.112,368.541,312.63,366.065,308.313,366.065Zm2.229,8.28a3.007,3.007,0,0,1-.065.632c-.006.026-.031.114-.039.132s-.017.043-.026.063a2.705,2.705,0,0,1-2.494,1.588c-1.073,0-1.813-.556-1.813-1.61,0-1.181,1.008-1.789,2.512-2.021a9.8,9.8,0,0,1,1.153-.1c.25-.009.507-.012.772-.008Z" transform="translate(-287.026 -362.236)" fill="#ff0"/><path d="M406.14,368.519v7.352a2.132,2.132,0,0,1-.131.8,2.526,2.526,0,0,1-2.35,1.61c-1.593,0-2.291-1.171-2.291-3.129v-6.637h-3.81v7.335a7.751,7.751,0,0,0,.355,2.5,4.768,4.768,0,0,0,.968,1.7,3.642,3.642,0,0,0,1.474.982,5.564,5.564,0,0,0,1.894.31,5.269,5.269,0,0,0,2.8-.75,4.024,4.024,0,0,0,.845-.67,5.183,5.183,0,0,0,.533-.646l.491,1.781H410V368.519Z" transform="translate(-368.372 -364.321)" fill="#ff0"/><path d="M239.409,340.13v4.189H237.63v2.861h1.779v5.1a5.33,5.33,0,0,0,1.07,3.724,4.2,4.2,0,0,0,3.067,1.172,4.882,4.882,0,0,0,2.115-.371v-2.914a2.312,2.312,0,0,1-.8.109c-1.352,0-1.665-.841-1.665-2.379v-4.443h2.42v-2.861H243.2V340.13Z" transform="translate(-231.844 -340.129)" fill="#ff0"/><path d="M432.356,340.122,430,343.5h2.722l3.317-3.381Z" transform="translate(-396.029 -340.122)" fill="#ff0" fill-rule="evenodd"/></g></g></svg>