<svg xmlns="http://www.w3.org/2000/svg" width="19.003" height="130" viewBox="0 0 19.003 130">
  <g id="Grupo_190" data-name="Grupo 190" transform="translate(-2472.443 -711.508)">
    <path id="Trazado_238" data-name="Trazado 238" d="M2472.908,870.221h7.1v.916h-7.1Z" transform="translate(-0.087 -29.629)" fill="#fff"/>
    <path id="Trazado_239" data-name="Trazado 239" d="M2473.569,866.343h1.464v-1.327h.705v1.327h2.749c.633,0,.99-.179.99-.695a2.057,2.057,0,0,0-.062-.537l.7-.042a2.283,2.283,0,0,1,.126.821,1.283,1.283,0,0,1-.39,1,1.886,1.886,0,0,1-1.327.358h-2.781v.791h-.705v-.791h-1.222Z" transform="translate(-0.21 -28.657)" fill="#fff"/>
    <path id="Trazado_240" data-name="Trazado 240" d="M2480.44,860.006l-.643.074v.031a1.9,1.9,0,0,1,.759,1.559,1.454,1.454,0,0,1-1.465,1.559c-1.232,0-1.906-1.1-1.9-3.065h-.105a1.051,1.051,0,0,0-1.179,1.158,2.534,2.534,0,0,0,.38,1.327l-.612.211a3.172,3.172,0,0,1-.452-1.675c0-1.558,1.064-1.937,2.084-1.937h1.907a7.153,7.153,0,0,0,1.221-.085Zm-2.6.137c-.02,1.012.159,2.159,1.149,2.159a.819.819,0,0,0,.884-.873,1.269,1.269,0,0,0-.853-1.233.981.981,0,0,0-.295-.053Z" transform="translate(-0.52 -27.564)" fill="#fff"/>
    <path id="Trazado_241" data-name="Trazado 241" d="M2472.663,852.742l1.505,1.286v.663l-1.505-.926Zm5.908-.632c.527,0,.991-.01,1.391-.042v.821l-.833.053v.021a1.917,1.917,0,0,1,.949,1.685c0,.8-.442,1.759-2.233,1.759h-2.981v-.927h2.822c.969,0,1.622-.3,1.622-1.137a1.341,1.341,0,0,0-.842-1.222,1.372,1.372,0,0,0-.474-.084h-3.128v-.927Z" transform="translate(-0.041 -26.24)" fill="#fff"/>
    <path id="Trazado_242" data-name="Trazado 242" d="M2479.749,841.217a4.552,4.552,0,0,1,.337,1.874,3.318,3.318,0,0,1-3.592,3.509,3.533,3.533,0,0,1-3.728-3.708,3.822,3.822,0,0,1,.315-1.686l.748.221a3.329,3.329,0,0,0-.294,1.432,2.639,2.639,0,0,0,2.928,2.771,2.581,2.581,0,0,0,2.854-2.729,3.666,3.666,0,0,0-.295-1.495Z" transform="translate(-0.06 -24.212)" fill="#fff"/>
    <path id="Trazado_243" data-name="Trazado 243" d="M2477.849,834.254a2.492,2.492,0,0,1,2.708,2.538,2.425,2.425,0,0,1-2.624,2.444,2.489,2.489,0,0,1-2.706-2.527A2.414,2.414,0,0,1,2477.849,834.254Zm.053,4.045c1.116,0,1.958-.643,1.958-1.549,0-.885-.831-1.549-1.979-1.549-.864,0-1.959.433-1.959,1.527S2476.932,838.3,2477.9,838.3Z" transform="translate(-0.52 -22.914)" fill="#fff"/>
    <path id="Trazado_244" data-name="Trazado 244" d="M2476.932,832.176c-.6,0-1.116.01-1.59.042v-.812l1-.032v-.042a1.529,1.529,0,0,1-1.116-1.411.947.947,0,0,1,.032-.263h.873a1.434,1.434,0,0,0-.032.316,1.3,1.3,0,0,0,1.191,1.243,2.592,2.592,0,0,0,.432.041h2.717v.917Z" transform="translate(-0.52 -22.057)" fill="#fff"/>
    <path id="Trazado_245" data-name="Trazado 245" d="M2477.007,827.3c-.653,0-1.18.022-1.664.042v-.831l.875-.042v-.022a2,2,0,0,1-.99-1.811,2.309,2.309,0,0,1,2.591-2.159c1.832,0,2.739,1.117,2.739,2.317a1.788,1.788,0,0,1-.8,1.57v.021h2.769v.916Zm1.359-.916a2.079,2.079,0,0,0,.379-.042,1.429,1.429,0,0,0,1.084-1.39c0-.98-.8-1.549-1.969-1.549-1.021,0-1.9.538-1.9,1.518a1.478,1.478,0,0,0,1.148,1.4,1.5,1.5,0,0,0,.378.063Z" transform="translate(-0.52 -20.715)" fill="#fff"/>
    <path id="Trazado_246" data-name="Trazado 246" d="M2472.991,819.905a8.862,8.862,0,0,1-.147-1.674,2.936,2.936,0,0,1,.516-1.949,1.489,1.489,0,0,1,1.253-.59,1.686,1.686,0,0,1,1.559,1.2h.02a1.832,1.832,0,0,1,1.78-1.465,1.916,1.916,0,0,1,1.423.6,3.564,3.564,0,0,1,.663,2.454,10.833,10.833,0,0,1-.084,1.422Zm2.907-.916v-.832c0-.969-.505-1.538-1.19-1.538-.832,0-1.158.632-1.158,1.559a3.934,3.934,0,0,0,.063.811Zm3.4,0a5.005,5.005,0,0,0,.041-.769c0-.948-.346-1.822-1.379-1.822-.969,0-1.369.832-1.369,1.833v.758Z" transform="translate(-0.075 -19.4)" fill="#fff"/>
    <path id="Trazado_247" data-name="Trazado 247" d="M2480.44,810.226l-.643.074v.032a1.9,1.9,0,0,1,.759,1.558,1.454,1.454,0,0,1-1.465,1.559c-1.232,0-1.906-1.095-1.9-3.065h-.105a1.051,1.051,0,0,0-1.179,1.159,2.533,2.533,0,0,0,.38,1.326l-.612.211a3.171,3.171,0,0,1-.452-1.675c0-1.559,1.064-1.938,2.084-1.938h1.907a7.241,7.241,0,0,0,1.221-.084Zm-2.6.137c-.02,1.012.159,2.159,1.149,2.159a.819.819,0,0,0,.884-.873,1.267,1.267,0,0,0-.853-1.232.958.958,0,0,0-.295-.054Z" transform="translate(-0.52 -18.272)" fill="#fff"/>
    <path id="Trazado_248" data-name="Trazado 248" d="M2476.722,806.589c-.526,0-.958.011-1.379.042v-.822l.843-.052v-.021a1.876,1.876,0,0,1-.958-1.685c0-.706.42-1.8,2.169-1.8h3.044v.927H2477.5c-.822,0-1.506.3-1.506,1.179a1.317,1.317,0,0,0,.947,1.243,1.334,1.334,0,0,0,.433.063h3.065v.927Z" transform="translate(-0.52 -16.94)" fill="#fff"/>
    <path id="Trazado_249" data-name="Trazado 249" d="M2480.253,795.862a3.424,3.424,0,0,1,.294,1.464,2.422,2.422,0,0,1-2.6,2.538,2.591,2.591,0,0,1-2.707-2.738,3.1,3.1,0,0,1,.263-1.285l.717.211a2.139,2.139,0,0,0-.242,1.074,1.922,1.922,0,0,0,3.834.032,2.632,2.632,0,0,0-.253-1.138Z" transform="translate(-0.522 -15.743)" fill="#fff"/>
    <path id="Trazado_250" data-name="Trazado 250" d="M2480.44,790.806l-.643.074v.032a1.9,1.9,0,0,1,.759,1.559,1.454,1.454,0,0,1-1.465,1.559c-1.232,0-1.906-1.1-1.9-3.066h-.105a1.051,1.051,0,0,0-1.179,1.159,2.531,2.531,0,0,0,.38,1.327l-.612.211a3.171,3.171,0,0,1-.452-1.675c0-1.559,1.064-1.938,2.084-1.938h1.907a7.147,7.147,0,0,0,1.221-.085Zm-2.6.137c-.02,1.012.159,2.16,1.149,2.16a.82.82,0,0,0,.884-.875,1.268,1.268,0,0,0-.853-1.232.957.957,0,0,0-.295-.053Z" transform="translate(-0.52 -14.646)" fill="#fff"/>
    <path id="Trazado_251" data-name="Trazado 251" d="M2479.749,779.215a4.559,4.559,0,0,1,.337,1.875,3.318,3.318,0,0,1-3.592,3.508,3.533,3.533,0,0,1-3.728-3.708,3.814,3.814,0,0,1,.315-1.685l.748.221a3.327,3.327,0,0,0-.294,1.432,2.639,2.639,0,0,0,2.928,2.77,2.58,2.58,0,0,0,2.854-2.728,3.671,3.671,0,0,0-.295-1.5Z" transform="translate(-0.06 -12.638)" fill="#fff"/>
    <path id="Trazado_252" data-name="Trazado 252" d="M2477.849,772.252a2.492,2.492,0,0,1,2.708,2.538,2.424,2.424,0,0,1-2.624,2.443,2.489,2.489,0,0,1-2.706-2.527A2.414,2.414,0,0,1,2477.849,772.252Zm.053,4.045c1.116,0,1.958-.643,1.958-1.549,0-.885-.831-1.548-1.979-1.548-.864,0-1.959.432-1.959,1.527S2476.932,776.3,2477.9,776.3Z" transform="translate(-0.52 -11.34)" fill="#fff"/>
    <path id="Trazado_253" data-name="Trazado 253" d="M2472.443,770.539v-.927h7.478v.927Z" transform="translate(0 -10.847)" fill="#fff"/>
    <path id="Trazado_254" data-name="Trazado 254" d="M2477.849,761.959a2.493,2.493,0,0,1,2.708,2.538,2.425,2.425,0,0,1-2.624,2.444,2.489,2.489,0,0,1-2.706-2.528A2.414,2.414,0,0,1,2477.849,761.959ZM2477.9,766c1.116,0,1.958-.643,1.958-1.548,0-.885-.831-1.548-1.979-1.548-.864,0-1.959.432-1.959,1.527S2476.932,766,2477.9,766Z" transform="translate(-0.52 -9.418)" fill="#fff"/>
    <path id="Trazado_255" data-name="Trazado 255" d="M2476.722,758.789c-.526,0-.958.011-1.379.042v-.811l.822-.042v-.032a1.755,1.755,0,0,1-.937-1.6,1.505,1.505,0,0,1,1.021-1.443v-.021a2.117,2.117,0,0,1-.664-.568,1.742,1.742,0,0,1-.358-1.127c0-.674.442-1.675,2.211-1.675h3v.905h-2.885c-.98,0-1.57.359-1.57,1.106a1.2,1.2,0,0,0,.843,1.1,1.516,1.516,0,0,0,.463.073h3.149v.906h-3.055c-.811,0-1.4.359-1.4,1.064a1.379,1.379,0,0,0,1.38,1.222h3.075v.906Z" transform="translate(-0.52 -7.468)" fill="#fff"/>
    <path id="Trazado_256" data-name="Trazado 256" d="M2479.921,748.532c-.348-.021-.864-.042-1.317-.042h-6.161v-.917h3.2v-.021a1.9,1.9,0,0,1-.937-1.738c0-1.264,1.052-2.159,2.6-2.149,1.822,0,2.729,1.148,2.729,2.286a1.819,1.819,0,0,1-.959,1.706v.031l.843.042Zm-2.043-.959a1.728,1.728,0,0,0,.337-.042,1.43,1.43,0,0,0,1.085-1.39c0-.969-.79-1.549-1.959-1.549-1.022,0-1.9.527-1.9,1.517a1.477,1.477,0,0,0,1.138,1.411,1.812,1.812,0,0,0,.379.053Z" transform="translate(0 -6.003)" fill="#fff"/>
    <path id="Trazado_257" data-name="Trazado 257" d="M2473.475,740.9a.574.574,0,0,1,0,1.148.564.564,0,0,1-.579-.58A.55.55,0,0,1,2473.475,740.9Zm6.53,1.032h-5.1V741h5.1Z" transform="translate(-0.085 -5.486)" fill="#fff"/>
    <path id="Trazado_258" data-name="Trazado 258" d="M2480.44,735.408l-.643.073v.032a1.9,1.9,0,0,1,.759,1.559,1.453,1.453,0,0,1-1.465,1.559c-1.232,0-1.906-1.1-1.9-3.065h-.105a1.051,1.051,0,0,0-1.179,1.159,2.531,2.531,0,0,0,.38,1.327l-.612.211a3.169,3.169,0,0,1-.452-1.675c0-1.559,1.064-1.938,2.084-1.938h1.907a7.227,7.227,0,0,0,1.221-.084Zm-2.6.137c-.02,1.011.159,2.159,1.149,2.159a.82.82,0,0,0,.884-.874,1.267,1.267,0,0,0-.853-1.232.957.957,0,0,0-.295-.053Z" transform="translate(-0.52 -4.304)" fill="#fff"/>
    <path id="Trazado_259" data-name="Trazado 259" d="M2478.864,729.14a3.242,3.242,0,0,0,.463-1.643c0-.937-.494-1.485-1.21-1.485-.664,0-1.043.38-1.412,1.338-.411,1.159-1.01,1.875-2.011,1.875a2.044,2.044,0,0,1-1.927-2.3,3.223,3.223,0,0,1,.347-1.569l.748.252a2.821,2.821,0,0,0-.338,1.348c0,.969.579,1.338,1.064,1.338.664,0,.991-.433,1.369-1.412.465-1.2,1.043-1.811,2.086-1.811,1.1,0,2.043.811,2.043,2.485a3.664,3.664,0,0,1-.453,1.811Z" transform="translate(-0.06 -2.533)" fill="#fff"/>
    <path id="Trazado_260" data-name="Trazado 260" d="M2480.812,723.493a.623.623,0,0,1-.665-.632.665.665,0,1,1,.665.632Z" transform="translate(-1.438 -2.003)" fill="#fff"/>
    <path id="Trazado_261" data-name="Trazado 261" d="M2477.774,718.338l2.233.738v.947l-7.1-2.411v-1.106l7.1-2.422v.979l-2.233.758Zm-.717-2.327-2.042.695c-.464.159-.886.264-1.3.369v.021c.42.106.853.221,1.285.359l2.053.695Z" transform="translate(-0.087 -0.481)" fill="#fff"/>
    <path id="Trazado_262" data-name="Trazado 262" d="M2480.812,712.761a.623.623,0,0,1-.665-.632.665.665,0,0,1,1.328.011A.621.621,0,0,1,2480.812,712.761Z" transform="translate(-1.438 0)" fill="#fff"/>
    <path id="Trazado_263" data-name="Trazado 263" d="M2490.707,833.191v2.76h2.56v-3.076h.769v3.992h-7.1v-3.833h.769v2.917h2.243v-2.76Z" transform="translate(-2.706 -22.657)" fill="#fff"/>
    <path id="Trazado_264" data-name="Trazado 264" d="M2490.75,830.392c-.526,0-.958.01-1.379.042v-.821l.843-.053v-.021a1.874,1.874,0,0,1-.958-1.685c0-.706.42-1.8,2.169-1.8h3.044v.926h-2.938c-.822,0-1.506.306-1.506,1.179a1.315,1.315,0,0,0,.948,1.243,1.331,1.331,0,0,0,.432.064h3.065v.926Z" transform="translate(-3.138 -21.383)" fill="#fff"/>
    <path id="Trazado_265" data-name="Trazado 265" d="M2487.6,822.512h1.464v-1.327h.705v1.327h2.749c.633,0,.99-.179.99-.7a2.055,2.055,0,0,0-.063-.538l.7-.042a2.289,2.289,0,0,1,.126.822,1.283,1.283,0,0,1-.39,1,1.885,1.885,0,0,1-1.327.358h-2.781v.791h-.705v-.791h-1.223Z" transform="translate(-2.829 -20.475)" fill="#fff"/>
    <path id="Trazado_266" data-name="Trazado 266" d="M2487.5,818.57a.574.574,0,0,1,0,1.148.564.564,0,0,1-.579-.579A.55.55,0,0,1,2487.5,818.57Zm6.53,1.032h-5.1v-.926h5.1Z" transform="translate(-2.703 -19.986)" fill="#fff"/>
    <path id="Trazado_267" data-name="Trazado 267" d="M2486.471,811.322h6.161c.453,0,.969-.011,1.317-.042v.832l-.885.042v.021a1.886,1.886,0,0,1,1,1.737,2.324,2.324,0,0,1-2.591,2.18,2.438,2.438,0,0,1-2.739-2.285,1.7,1.7,0,0,1,.778-1.537v-.022h-3.043Zm4.455.926a1.67,1.67,0,0,0-.389.042,1.364,1.364,0,0,0-1.074,1.338c0,.958.843,1.527,1.97,1.527,1.032,0,1.885-.506,1.885-1.507a1.393,1.393,0,0,0-1.106-1.358,1.642,1.642,0,0,0-.4-.042Z" transform="translate(-2.618 -18.626)" fill="#fff"/>
    <path id="Trazado_268" data-name="Trazado 268" d="M2494.468,805.714l-.643.074v.032a1.9,1.9,0,0,1,.759,1.558,1.454,1.454,0,0,1-1.465,1.559c-1.232,0-1.906-1.095-1.9-3.065h-.106a1.051,1.051,0,0,0-1.179,1.159,2.533,2.533,0,0,0,.38,1.327l-.612.211a3.169,3.169,0,0,1-.452-1.675c0-1.559,1.064-1.938,2.085-1.938h1.907a7.247,7.247,0,0,0,1.221-.084Zm-2.6.137c-.02,1.011.158,2.159,1.148,2.159a.819.819,0,0,0,.884-.873,1.268,1.268,0,0,0-.853-1.232.958.958,0,0,0-.295-.053Z" transform="translate(-3.138 -17.429)" fill="#fff"/>
    <path id="Trazado_269" data-name="Trazado 269" d="M2486.471,797.65h6.161c.453,0,.969-.011,1.317-.042v.832l-.885.042v.021a1.887,1.887,0,0,1,1,1.737,2.325,2.325,0,0,1-2.591,2.181,2.438,2.438,0,0,1-2.739-2.286,1.7,1.7,0,0,1,.778-1.537v-.022h-3.043Zm4.455.926a1.67,1.67,0,0,0-.389.042,1.364,1.364,0,0,0-1.074,1.338c0,.958.843,1.527,1.97,1.527,1.032,0,1.885-.506,1.885-1.506a1.394,1.394,0,0,0-1.106-1.359,1.642,1.642,0,0,0-.4-.042Z" transform="translate(-2.618 -16.073)" fill="#fff"/>
    <path id="Trazado_270" data-name="Trazado 270" d="M2487.019,791.83a8.864,8.864,0,0,1-.147-1.675,2.935,2.935,0,0,1,.516-1.949,1.489,1.489,0,0,1,1.253-.59,1.687,1.687,0,0,1,1.559,1.2h.02a1.831,1.831,0,0,1,1.78-1.464,1.916,1.916,0,0,1,1.423.6,3.567,3.567,0,0,1,.663,2.455,10.832,10.832,0,0,1-.084,1.422Zm2.907-.916v-.833c0-.969-.505-1.537-1.19-1.537-.832,0-1.158.631-1.158,1.558a3.968,3.968,0,0,0,.063.812Zm3.4,0a5.018,5.018,0,0,0,.041-.769c0-.948-.346-1.823-1.379-1.823-.969,0-1.37.833-1.37,1.833v.759Z" transform="translate(-2.694 -14.159)" fill="#fff"/>
    <path id="Trazado_271" data-name="Trazado 271" d="M2494.468,782.152l-.643.073v.032a1.9,1.9,0,0,1,.759,1.559,1.454,1.454,0,0,1-1.465,1.559c-1.232,0-1.906-1.1-1.9-3.065h-.106a1.051,1.051,0,0,0-1.179,1.159,2.532,2.532,0,0,0,.38,1.326l-.612.211a3.169,3.169,0,0,1-.452-1.675c0-1.559,1.064-1.938,2.085-1.938h1.907a7.241,7.241,0,0,0,1.221-.084Zm-2.6.137c-.02,1.011.158,2.159,1.148,2.159a.82.82,0,0,0,.884-.874,1.268,1.268,0,0,0-.853-1.232.958.958,0,0,0-.295-.053Z" transform="translate(-3.138 -13.031)" fill="#fff"/>
    <path id="Trazado_272" data-name="Trazado 272" d="M2490.75,778.514c-.526,0-.958.011-1.379.042v-.821l.843-.053v-.021a1.874,1.874,0,0,1-.958-1.685c0-.706.42-1.8,2.169-1.8h3.044v.927h-2.938c-.822,0-1.506.3-1.506,1.179a1.317,1.317,0,0,0,.948,1.243,1.334,1.334,0,0,0,.432.063h3.065v.926Z" transform="translate(-3.138 -11.699)" fill="#fff"/>
    <path id="Trazado_273" data-name="Trazado 273" d="M2494.281,767.787a3.425,3.425,0,0,1,.294,1.464,2.422,2.422,0,0,1-2.6,2.538,2.591,2.591,0,0,1-2.707-2.738,3.107,3.107,0,0,1,.263-1.285l.717.211a2.139,2.139,0,0,0-.242,1.074,1.922,1.922,0,0,0,3.834.032,2.628,2.628,0,0,0-.253-1.138Z" transform="translate(-3.141 -10.502)" fill="#fff"/>
    <path id="Trazado_274" data-name="Trazado 274" d="M2494.468,762.732l-.643.073v.032a1.9,1.9,0,0,1,.759,1.559,1.454,1.454,0,0,1-1.465,1.559c-1.232,0-1.906-1.1-1.9-3.065h-.106a1.051,1.051,0,0,0-1.179,1.159,2.533,2.533,0,0,0,.38,1.326l-.612.211a3.17,3.17,0,0,1-.452-1.675c0-1.559,1.064-1.938,2.085-1.938h1.907a7.234,7.234,0,0,0,1.221-.084Zm-2.6.137c-.02,1.011.158,2.159,1.148,2.159a.82.82,0,0,0,.884-.874,1.268,1.268,0,0,0-.853-1.232.958.958,0,0,0-.295-.053Z" transform="translate(-3.138 -9.405)" fill="#fff"/>
    <path id="Trazado_275" data-name="Trazado 275" d="M2490.96,759.512c-.6,0-1.116.011-1.59.042v-.811l1-.032v-.042a1.53,1.53,0,0,1-1.116-1.411.971.971,0,0,1,.032-.263h.874a1.442,1.442,0,0,0-.032.316,1.3,1.3,0,0,0,1.191,1.243,2.591,2.591,0,0,0,.432.042h2.717v.916Z" transform="translate(-3.138 -8.492)" fill="#fff"/>
    <path id="Trazado_276" data-name="Trazado 276" d="M2487.5,754.471a.574.574,0,0,1,0,1.148.565.565,0,0,1-.579-.58A.55.55,0,0,1,2487.5,754.471Zm6.53,1.032h-5.1v-.926h5.1Z" transform="translate(-2.703 -8.02)" fill="#fff"/>
    <path id="Trazado_277" data-name="Trazado 277" d="M2494.468,748.982l-.643.074v.032a1.9,1.9,0,0,1,.759,1.558,1.454,1.454,0,0,1-1.465,1.559c-1.232,0-1.906-1.1-1.9-3.065h-.106a1.051,1.051,0,0,0-1.179,1.159,2.536,2.536,0,0,0,.38,1.327l-.612.21a3.169,3.169,0,0,1-.452-1.674c0-1.559,1.064-1.939,2.085-1.939h1.907a7.158,7.158,0,0,0,1.221-.084Zm-2.6.137c-.02,1.012.158,2.159,1.148,2.159a.82.82,0,0,0,.884-.874,1.268,1.268,0,0,0-.853-1.232.958.958,0,0,0-.295-.053Z" transform="translate(-3.138 -6.838)" fill="#fff"/>
    <path id="Trazado_278" data-name="Trazado 278" d="M2494.839,746.325a.623.623,0,0,1-.664-.632.665.665,0,0,1,1.328.011A.621.621,0,0,1,2494.839,746.325Z" transform="translate(-4.057 -6.266)" fill="#fff"/>
  </g>
</svg>
