<svg id="Grupo_185" data-name="Grupo 185" xmlns="http://www.w3.org/2000/svg" width="24.809" height="24.911" viewBox="0 0 24.809 24.911">
  <g id="Grupo_183" data-name="Grupo 183" transform="translate(2.691 2.691)">
    <path id="Trazado_188" data-name="Trazado 188" d="M1302.773-302.447a5.87,5.87,0,0,1,5.869,5.868,5.872,5.872,0,0,1-5.869,5.871,5.871,5.871,0,0,1-5.869-5.871,5.869,5.869,0,0,1,5.869-5.868m0-.909a6.787,6.787,0,0,0-6.776,6.777,6.782,6.782,0,0,0,6.776,6.774,6.783,6.783,0,0,0,6.775-6.774,6.788,6.788,0,0,0-6.775-6.777" transform="translate(-1295.997 303.356)" fill="#fb911a"/>
  </g>
  <g id="Grupo_184" data-name="Grupo 184">
    <path id="Trazado_189" data-name="Trazado 189" d="M1297.418-310.494a8.569,8.569,0,0,1,8.559,8.559,8.511,8.511,0,0,1-1.454,4.778l-.418.616.527.528,6.85,6.849-1.392,1.39-6.869-6.869-.519-.523-.616.406a8.535,8.535,0,0,1-4.667,1.385,8.571,8.571,0,0,1-8.562-8.56,8.572,8.572,0,0,1,8.562-8.559m0-.909a9.467,9.467,0,0,0-9.466,9.468,9.463,9.463,0,0,0,9.466,9.466,9.386,9.386,0,0,0,5.161-1.534l7.51,7.511,2.671-2.672-7.487-7.491a9.411,9.411,0,0,0,1.609-5.28,9.467,9.467,0,0,0-9.465-9.468" transform="translate(-1287.952 311.403)" fill="#fb911a"/>
  </g>
</svg>
