<svg xmlns="http://www.w3.org/2000/svg" width="11.505" height="130" viewBox="0 0 11.505 130">
  <g id="Grupo_189" data-name="Grupo 189" transform="translate(-1443.807 -716.551)">
    <g id="Grupo_188" data-name="Grupo 188" transform="translate(1443.807 716.551)">
      <rect id="Rect치ngulo_245" data-name="Rect치ngulo 245" width="1.118" height="51.7" transform="translate(0 78.3)" fill="#fff"/>
      <rect id="Rect치ngulo_246" data-name="Rect치ngulo 246" width="1.116" height="51.7" transform="translate(10.389 78.3)" fill="#fff"/>
      <g id="Grupo_186" data-name="Grupo 186" transform="translate(1.605)">
        <path id="Trazado_194" data-name="Trazado 194" d="M1448,806.016l-.037-.4a.89.89,0,0,0,.4-.13.711.711,0,0,0,.243-.322,1.166,1.166,0,0,0,.1-.495,1.275,1.275,0,0,0-.075-.437.611.611,0,0,0-.2-.271.441.441,0,0,0-.539-.007.669.669,0,0,0-.187.29,5.054,5.054,0,0,0-.159.578,2.56,2.56,0,0,1-.2.615.819.819,0,0,1-.3.345.7.7,0,0,1-.4.113.8.8,0,0,1-.453-.137.882.882,0,0,1-.329-.4,1.592,1.592,0,0,1-.1-.59,1.626,1.626,0,0,1,.114-.634.889.889,0,0,1,.339-.419,1.008,1.008,0,0,1,.5-.162l.032.41a.667.667,0,0,0-.459.215.917.917,0,0,0-.157.571.892.892,0,0,0,.141.557.434.434,0,0,0,.339.181.362.362,0,0,0,.289-.124,1.705,1.705,0,0,0,.23-.643,4.012,4.012,0,0,1,.2-.716,1.026,1.026,0,0,1,.329-.412.822.822,0,0,1,.459-.128.864.864,0,0,1,.482.141.912.912,0,0,1,.356.418,1.512,1.512,0,0,1,.127.627,1.816,1.816,0,0,1-.127.725,1.01,1.01,0,0,1-.384.466A1.02,1.02,0,0,1,1448,806.016Z" transform="translate(-1445.759 -731.994)" fill="#fff"/>
        <path id="Trazado_195" data-name="Trazado 195" d="M1445.82,800.085v-.426h1.865a2.069,2.069,0,0,1,.769.117.88.88,0,0,1,.463.387,1.431,1.431,0,0,1,.18.752,1.59,1.59,0,0,1-.155.739.917.917,0,0,1-.453.412,2.092,2.092,0,0,1-.8.128h-1.865v-.426h1.863a1.922,1.922,0,0,0,.616-.08.613.613,0,0,0,.305-.266.96.96,0,0,0,.109-.472.917.917,0,0,0-.212-.672,1.256,1.256,0,0,0-.818-.195Z" transform="translate(-1445.77 -731.319)" fill="#fff"/>
        <path id="Trazado_196" data-name="Trazado 196" d="M1449.038,798.265h-3.219v-1.21a2.744,2.744,0,0,1,.033-.49.818.818,0,0,1,.153-.4.907.907,0,0,1,.308-.267,1,1,0,0,1,.437-.09,1.013,1.013,0,0,1,.7.257,1.24,1.24,0,0,1,.285.947v.825h1.3Zm-1.685-.423v-.836a.876.876,0,0,0-.155-.586.55.55,0,0,0-.436-.168.6.6,0,0,0-.342.1.484.484,0,0,0-.191.277,1.959,1.959,0,0,0-.024.393v.825Z" transform="translate(-1445.77 -730.635)" fill="#fff"/>
        <path id="Trazado_197" data-name="Trazado 197" d="M1449.038,794.619h-3.219v-2.331h.387V794.2h.981v-1.779h.377V794.2h1.1v-1.98h.377Z" transform="translate(-1445.77 -729.996)" fill="#fff"/>
        <path id="Trazado_198" data-name="Trazado 198" d="M1449.038,790.877h-3.219v-1.424a1.991,1.991,0,0,1,.088-.657.757.757,0,0,1,.311-.361,1,1,0,0,1,.482-.13.8.8,0,0,1,.578.222,1.144,1.144,0,0,1,.3.685,1.035,1.035,0,0,1,.16-.253,1.8,1.8,0,0,1,.428-.358l.872-.553v.529l-.668.428c-.189.127-.34.229-.443.313a.98.98,0,0,0-.212.208.511.511,0,0,0-.087.195,1.013,1.013,0,0,0-.016.241v.49h1.427Zm-1.8-.426v-.913a1.484,1.484,0,0,0-.057-.458.485.485,0,0,0-.2-.254.548.548,0,0,0-.287-.08.486.486,0,0,0-.377.159.856.856,0,0,0-.144.529v1.017Z" transform="translate(-1445.77 -729.255)" fill="#fff"/>
        <path id="Trazado_199" data-name="Trazado 199" d="M1449.038,787.366h-3.219v-.42h3.219Z" transform="translate(-1445.77 -729.06)" fill="#fff"/>
        <path id="Trazado_200" data-name="Trazado 200" d="M1449.038,785.486h-3.219v-.435l2.534-1.7h-2.534v-.4h3.219v.442l-2.529,1.687h2.529Z" transform="translate(-1445.77 -728.35)" fill="#fff"/>
        <path id="Trazado_201" data-name="Trazado 201" d="M1449.038,780.763h-2.832v1.063h-.387v-2.558h.387v1.065h2.832Z" transform="translate(-1445.77 -727.695)" fill="#fff"/>
        <path id="Trazado_202" data-name="Trazado 202" d="M1449.038,778.207h-3.219v-2.328h.387v1.909h.981V776h.377v1.791h1.1V775.8h.377Z" transform="translate(-1445.77 -727.08)" fill="#fff"/>
        <path id="Trazado_203" data-name="Trazado 203" d="M1449.038,774.55h-3.219v-.437l2.534-1.692h-2.534v-.4h3.219v.424l-2.529,1.7h2.529Z" transform="translate(-1445.77 -726.407)" fill="#fff"/>
        <path id="Trazado_204" data-name="Trazado 204" d="M1449.038,770.567h-3.219v-1.1a2.446,2.446,0,0,1,.051-.581,1.09,1.09,0,0,1,.226-.466,1.29,1.29,0,0,1,.554-.382,2.19,2.19,0,0,1,.766-.132,2.14,2.14,0,0,1,.642.09,1.582,1.582,0,0,1,.477.218,1.447,1.447,0,0,1,.294.29,1.278,1.278,0,0,1,.153.391,1.973,1.973,0,0,1,.055.515Zm-.377-.424v-.685a1.679,1.679,0,0,0-.057-.5.754.754,0,0,0-.169-.288,1.142,1.142,0,0,0-.409-.243,2.22,2.22,0,0,0-.62-.076,1.5,1.5,0,0,0-.774.162.817.817,0,0,0-.361.4,1.614,1.614,0,0,0-.066.553v.676Z" transform="translate(-1445.77 -725.676)" fill="#fff"/>
        <path id="Trazado_205" data-name="Trazado 205" d="M1449.038,766.669h-3.219v-2.334h.387v1.906h.981v-1.782h.377v1.782h1.1v-1.98h.377Z" transform="translate(-1445.77 -725.029)" fill="#fff"/>
        <path id="Trazado_206" data-name="Trazado 206" d="M1449.038,763h-3.219v-.439l2.534-1.686h-2.534v-.409h3.219v.43l-2.529,1.691h2.529Z" transform="translate(-1445.77 -724.355)" fill="#fff"/>
        <path id="Trazado_207" data-name="Trazado 207" d="M1447.9,756.714l.112-.429a1.415,1.415,0,0,1,.8.483,1.325,1.325,0,0,1,.276.849,1.51,1.51,0,0,1-.215.848,1.348,1.348,0,0,1-.609.5,2.136,2.136,0,0,1-.866.164,1.815,1.815,0,0,1-.873-.191,1.283,1.283,0,0,1-.57-.539,1.621,1.621,0,0,1-.195-.787,1.338,1.338,0,0,1,.245-.815,1.3,1.3,0,0,1,.69-.456l.1.42a1.027,1.027,0,0,0-.513.318.894.894,0,0,0-.155.539,1.042,1.042,0,0,0,.174.622.887.887,0,0,0,.478.344,1.781,1.781,0,0,0,.621.109,1.956,1.956,0,0,0,.711-.119.908.908,0,0,0,.462-.372,1.072,1.072,0,0,0,.155-.552.9.9,0,0,0-.208-.6A1.04,1.04,0,0,0,1447.9,756.714Z" transform="translate(-1445.759 -723.611)" fill="#fff"/>
        <path id="Trazado_208" data-name="Trazado 208" d="M1449.038,755.465h-3.219v-.423h3.219Z" transform="translate(-1445.77 -723.391)" fill="#fff"/>
        <path id="Trazado_209" data-name="Trazado 209" d="M1449.038,753.9l-3.219-1.236v-.456l3.219-1.317v.484l-.971.376v1.34l.971.363Zm-1.315-.926v-1.087l-.9.329a6.572,6.572,0,0,1-.669.233,5.124,5.124,0,0,1,.611.162Z" transform="translate(-1445.77 -722.654)" fill="#fff"/>
        <path id="Trazado_210" data-name="Trazado 210" d="M1449.038,748.764h-3.219v-2.169h.387v1.743h.992V746.83h.379v1.508h1.46Z" transform="translate(-1445.77 -721.89)" fill="#fff"/>
        <path id="Trazado_211" data-name="Trazado 211" d="M1449.038,745.741h-3.219v-.428h3.219Z" transform="translate(-1445.77 -721.662)" fill="#fff"/>
        <path id="Trazado_212" data-name="Trazado 212" d="M1449.038,743.858h-3.219v-.435l2.534-1.691h-2.534v-.407h3.219v.433l-2.529,1.7h2.529Z" transform="translate(-1445.77 -720.953)" fill="#fff"/>
        <path id="Trazado_213" data-name="Trazado 213" d="M1449.038,740.232l-3.219-1.238v-.454l3.219-1.323v.483l-.971.376v1.346l.971.365Zm-1.315-.928v-1.1l-.9.34c-.272.1-.49.176-.669.234a3.5,3.5,0,0,1,.611.161Z" transform="translate(-1445.77 -720.223)" fill="#fff"/>
        <path id="Trazado_214" data-name="Trazado 214" d="M1449.038,736.258h-3.219v-.437l2.534-1.692h-2.534v-.406h3.219v.435l-2.529,1.692h2.529Z" transform="translate(-1445.77 -719.602)" fill="#fff"/>
        <path id="Trazado_215" data-name="Trazado 215" d="M1447.9,729.971l.112-.424a1.387,1.387,0,0,1,.8.478,1.31,1.31,0,0,1,.276.851,1.535,1.535,0,0,1-.215.849,1.266,1.266,0,0,1-.609.491,2.049,2.049,0,0,1-.866.172,1.982,1.982,0,0,1-.873-.189,1.311,1.311,0,0,1-.57-.548,1.586,1.586,0,0,1-.195-.781,1.33,1.33,0,0,1,.245-.815,1.294,1.294,0,0,1,.69-.456l.1.426a.937.937,0,0,0-.513.324.842.842,0,0,0-.155.527,1.047,1.047,0,0,0,.174.622.931.931,0,0,0,.478.349,2.034,2.034,0,0,0,.621.1,1.873,1.873,0,0,0,.711-.12.9.9,0,0,0,.462-.374,1.067,1.067,0,0,0,.155-.546.911.911,0,0,0-.208-.6A1.1,1.1,0,0,0,1447.9,729.971Z" transform="translate(-1445.759 -718.86)" fill="#fff"/>
        <path id="Trazado_216" data-name="Trazado 216" d="M1449.038,728.721h-3.219v-.426h3.219Z" transform="translate(-1445.77 -718.638)" fill="#fff"/>
        <path id="Trazado_217" data-name="Trazado 217" d="M1449.038,726.852h-3.219v-2.323h.387v1.9h.981v-1.782h.377v1.782h1.1v-1.978h.377Z" transform="translate(-1445.77 -717.954)" fill="#fff"/>
        <path id="Trazado_218" data-name="Trazado 218" d="M1449.038,723.114h-3.219v-1.423a1.911,1.911,0,0,1,.088-.651.706.706,0,0,1,.311-.363.887.887,0,0,1,.482-.133.805.805,0,0,1,.578.22,1.131,1.131,0,0,1,.3.687,1.245,1.245,0,0,1,.16-.257,2.124,2.124,0,0,1,.428-.357l.872-.556v.534l-.668.43c-.189.126-.34.225-.443.307a.817.817,0,0,0-.212.212.545.545,0,0,0-.087.2.921.921,0,0,0-.016.229v.5h1.427Zm-1.8-.422v-.921a1.48,1.48,0,0,0-.057-.454.474.474,0,0,0-.2-.248.5.5,0,0,0-.287-.084.493.493,0,0,0-.377.164.81.81,0,0,0-.144.524v1.02Z" transform="translate(-1445.77 -717.214)" fill="#fff"/>
        <path id="Trazado_219" data-name="Trazado 219" d="M1449.038,719.564l-3.219-1.229v-.462l3.219-1.321v.488l-.971.373v1.346l.971.351Zm-1.315-.926v-1.092l-.9.334c-.272.107-.49.179-.669.235a3.479,3.479,0,0,1,.611.174Z" transform="translate(-1445.77 -716.551)" fill="#fff"/>
        <path id="Trazado_220" data-name="Trazado 220" d="M1455.6,779.68h-3.212v-1.111a2.332,2.332,0,0,1,.046-.563,1.08,1.08,0,0,1,.229-.475,1.351,1.351,0,0,1,.552-.382,2.064,2.064,0,0,1,.759-.126,2.41,2.41,0,0,1,.653.084,1.56,1.56,0,0,1,.468.224,1.175,1.175,0,0,1,.293.292,1.215,1.215,0,0,1,.16.384,2.18,2.18,0,0,1,.053.52Zm-.375-.423v-.687a1.735,1.735,0,0,0-.058-.508.661.661,0,0,0-.171-.273.979.979,0,0,0-.4-.24,1.8,1.8,0,0,0-.618-.09,1.564,1.564,0,0,0-.78.164.907.907,0,0,0-.366.407,1.84,1.84,0,0,0-.062.553v.674Z" transform="translate(-1446.937 -727.296)" fill="#fff"/>
        <path id="Trazado_221" data-name="Trazado 221" d="M1455.6,775.786h-3.212v-2.335h.377v1.905h.988v-1.789h.377v1.789h1.1v-1.972h.375Z" transform="translate(-1446.937 -726.65)" fill="#fff"/>
        <path id="Trazado_222" data-name="Trazado 222" d="M1454.467,768.26l.111-.424a1.409,1.409,0,0,1,.794.482,1.3,1.3,0,0,1,.275.845,1.5,1.5,0,0,1-.206.842,1.308,1.308,0,0,1-.615.5,2.233,2.233,0,0,1-.863.166,1.928,1.928,0,0,1-.879-.191,1.252,1.252,0,0,1-.564-.544,1.54,1.54,0,0,1-.2-.783,1.344,1.344,0,0,1,.241-.809,1.236,1.236,0,0,1,.695-.456l.1.414a1,1,0,0,0-.507.324.841.841,0,0,0-.163.537.974.974,0,0,0,.654.974,1.953,1.953,0,0,0,.62.1,1.816,1.816,0,0,0,.721-.122.931.931,0,0,0,.456-.361,1.09,1.09,0,0,0,.146-.552.93.93,0,0,0-.2-.608A1.093,1.093,0,0,0,1454.467,768.26Z" transform="translate(-1446.925 -725.664)" fill="#fff"/>
        <path id="Trazado_223" data-name="Trazado 223" d="M1454.027,766.686a1.744,1.744,0,0,1-1.256-.429,1.452,1.452,0,0,1-.452-1.112,1.519,1.519,0,0,1,.21-.8,1.444,1.444,0,0,1,.6-.548,1.878,1.878,0,0,1,.86-.187,1.914,1.914,0,0,1,.877.195,1.346,1.346,0,0,1,.583.563,1.57,1.57,0,0,1,.2.784,1.5,1.5,0,0,1-.222.807,1.354,1.354,0,0,1-.594.544A1.775,1.775,0,0,1,1454.027,766.686Zm.007-.441a1.3,1.3,0,0,0,.914-.312,1.1,1.1,0,0,0,0-1.577,1.379,1.379,0,0,0-.967-.307,1.576,1.576,0,0,0-.678.133.975.975,0,0,0-.456.386,1.018,1.018,0,0,0-.163.573,1.084,1.084,0,0,0,.31.779A1.379,1.379,0,0,0,1454.033,766.245Z" transform="translate(-1446.925 -724.913)" fill="#fff"/>
        <path id="Trazado_224" data-name="Trazado 224" d="M1455.6,762.532h-3.212v-.425h2.837v-1.589h.375Z" transform="translate(-1446.937 -724.364)" fill="#fff"/>
        <path id="Trazado_225" data-name="Trazado 225" d="M1454.027,759.4a1.771,1.771,0,0,1-1.256-.432,1.478,1.478,0,0,1-.452-1.112,1.6,1.6,0,0,1,.21-.815,1.483,1.483,0,0,1,.6-.54,2.03,2.03,0,0,1,1.738.009,1.286,1.286,0,0,1,.583.566,1.553,1.553,0,0,1,.2.78,1.49,1.49,0,0,1-.222.808,1.357,1.357,0,0,1-.594.544A1.784,1.784,0,0,1,1454.027,759.4Zm.007-.455a1.25,1.25,0,0,0,.914-.308,1,1,0,0,0,.333-.777,1.045,1.045,0,0,0-.333-.8,1.407,1.407,0,0,0-.967-.307,1.626,1.626,0,0,0-.678.133.969.969,0,0,0-.456.387.99.99,0,0,0-.163.577,1.072,1.072,0,0,0,.31.773A1.386,1.386,0,0,0,1454.033,758.941Z" transform="translate(-1446.925 -723.615)" fill="#fff"/>
        <path id="Trazado_226" data-name="Trazado 226" d="M1455.6,755h-3.212v-.653l2.273-.756c.217-.074.375-.124.478-.158-.117-.033-.289-.088-.516-.17l-2.236-.774v-.568h3.212v.406h-2.692l2.692.949v.368l-2.733.946h2.733Z" transform="translate(-1446.937 -722.836)" fill="#fff"/>
        <path id="Trazado_227" data-name="Trazado 227" d="M1455.6,750.585h-3.212v-1.209a1.382,1.382,0,0,1,.1-.588.7.7,0,0,1,.3-.348.8.8,0,0,1,.423-.13.755.755,0,0,1,.39.115.8.8,0,0,1,.293.334.767.767,0,0,1,.779-.6.84.84,0,0,1,.418.094.734.734,0,0,1,.3.24.952.952,0,0,1,.161.342,2.349,2.349,0,0,1,.049.521Zm-1.863-.428v-.7a1.56,1.56,0,0,0-.037-.4.438.438,0,0,0-.161-.244.451.451,0,0,0-.28-.08.518.518,0,0,0-.284.076.394.394,0,0,0-.169.218,2.106,2.106,0,0,0-.042.491v.64Zm1.488,0v-.8a1.617,1.617,0,0,0-.016-.287.618.618,0,0,0-.087-.243.483.483,0,0,0-.178-.166.55.55,0,0,0-.271-.061.507.507,0,0,0-.308.09.41.41,0,0,0-.193.254,1.6,1.6,0,0,0-.052.472v.743Z" transform="translate(-1446.937 -722.167)" fill="#fff"/>
        <path id="Trazado_228" data-name="Trazado 228" d="M1455.6,747.254h-3.212v-.422h3.212Z" transform="translate(-1446.937 -721.932)" fill="#fff"/>
        <path id="Trazado_229" data-name="Trazado 229" d="M1455.6,745.7l-3.212-1.233V744l3.212-1.319v.485l-.973.374v1.348l.973.351Zm-1.318-.933v-1.09l-.889.34a6.237,6.237,0,0,1-.671.221,3.616,3.616,0,0,1,.617.182Z" transform="translate(-1446.937 -721.195)" fill="#fff"/>
      </g>
      <g id="Grupo_187" data-name="Grupo 187" transform="translate(2.89 81.232)">
        <path id="Trazado_230" data-name="Trazado 230" d="M1453.438,867.9l-6,2.14V868.73l4.431-1.511-4.431-1.47v-1.283l6,2.144Z" transform="translate(-1447.343 -824.067)" fill="#fff"/>
        <path id="Trazado_231" data-name="Trazado 231" d="M1453.438,862.476h-6v-1.21h6Z" transform="translate(-1447.343 -823.498)" fill="#fff"/>
        <path id="Trazado_232" data-name="Trazado 232" d="M1451.21,854.9H1450.2v-2.6h2.39a3.289,3.289,0,0,1,.642,1.094,4.041,4.041,0,0,1,.281,1.46,3.3,3.3,0,0,1-.4,1.646,2.557,2.557,0,0,1-1.128,1.048,3.645,3.645,0,0,1-1.6.345,3.42,3.42,0,0,1-1.659-.391,2.709,2.709,0,0,1-1.12-1.148,3.109,3.109,0,0,1-.293-1.433,2.914,2.914,0,0,1,.464-1.75,2.116,2.116,0,0,1,1.3-.8l.224,1.2a1.3,1.3,0,0,0-.7.481,1.39,1.39,0,0,0-.256.871,1.605,1.605,0,0,0,.5,1.256,2.088,2.088,0,0,0,1.492.468,2.318,2.318,0,0,0,1.6-.468,1.592,1.592,0,0,0,.536-1.248,1.95,1.95,0,0,0-.151-.756,2.54,2.54,0,0,0-.359-.657h-.761Z" transform="translate(-1447.321 -821.905)" fill="#fff"/>
        <path id="Trazado_233" data-name="Trazado 233" d="M1453.438,849.7h-6v-1.214h6Z" transform="translate(-1447.343 -821.227)" fill="#fff"/>
        <path id="Trazado_234" data-name="Trazado 234" d="M1453.449,845.122H1447.5v-1.21h4.931V840.9h1.014Z" transform="translate(-1447.353 -819.879)" fill="#fff"/>
        <path id="Trazado_235" data-name="Trazado 235" d="M1453.438,832.267v1.313l-1.363.525V836.5l1.363.5v1.281l-6-2.329v-1.282Zm-2.379,2.224-2.22.832,2.22.8Z" transform="translate(-1447.343 -818.345)" fill="#fff"/>
        <path id="Trazado_236" data-name="Trazado 236" d="M1447.442,829.39v-2.22a4.189,4.189,0,0,1,.117-1.134,2.009,2.009,0,0,1,.548-.9,2.743,2.743,0,0,1,.97-.571,4.634,4.634,0,0,1,1.418-.2,3.782,3.782,0,0,1,1.277.188,2.6,2.6,0,0,1,1.062.64,2.119,2.119,0,0,1,.472.849,3.635,3.635,0,0,1,.133,1.075v2.274Zm1.012-1.214h3.97v-.907a3.2,3.2,0,0,0-.059-.725,1.046,1.046,0,0,0-.247-.484,1.209,1.209,0,0,0-.581-.322,3.818,3.818,0,0,0-1.092-.122,3.6,3.6,0,0,0-1.071.122,1.255,1.255,0,0,0-.577.343,1.165,1.165,0,0,0-.287.562,5.821,5.821,0,0,0-.056.993Z" transform="translate(-1447.343 -816.941)" fill="#fff"/>
        <path id="Trazado_237" data-name="Trazado 237" d="M1450.453,821.142a3.836,3.836,0,0,1-1.54-.266,2.8,2.8,0,0,1-.818-.565,2.389,2.389,0,0,1-.541-.766,3.424,3.424,0,0,1-.233-1.3,2.852,2.852,0,0,1,.82-2.122,3.192,3.192,0,0,1,2.284-.79,3.137,3.137,0,0,1,2.268.787,2.782,2.782,0,0,1,.821,2.112,2.815,2.815,0,0,1-.813,2.122A3.1,3.1,0,0,1,1450.453,821.142Zm-.042-1.238a2.231,2.231,0,0,0,1.543-.471,1.618,1.618,0,0,0,0-2.385,2.262,2.262,0,0,0-1.564-.465,2.238,2.238,0,0,0-1.534.455,1.67,1.67,0,0,0,0,2.4A2.264,2.264,0,0,0,1450.411,819.9Z" transform="translate(-1447.321 -815.337)" fill="#fff"/>
      </g>
    </g>
  </g>
</svg>
