<svg xmlns="http://www.w3.org/2000/svg" width="45.054" height="45" viewBox="0 0 45.054 45">
  <path id="Icn-Movimientos" d="M1132.957,2294.344a6.526,6.526,0,0,1,4.747,1.979,6.46,6.46,0,0,1,2.006,4.774v31.495a6.46,6.46,0,0,1-2.006,4.774,6.534,6.534,0,0,1-4.747,1.979h-31.549a6.531,6.531,0,0,1-4.747-1.979,6.46,6.46,0,0,1-2.006-4.774V2301.1a6.8,6.8,0,0,1,6.753-6.753Zm-31.549,2.215a4.4,4.4,0,0,0-1.714.343,4.5,4.5,0,0,0-1.452.978,5.1,5.1,0,0,0-.976,1.5,4.38,4.38,0,0,0-.343,1.716v31.495a4.38,4.38,0,0,0,.343,1.715,4.55,4.55,0,0,0,2.427,2.426,4.356,4.356,0,0,0,1.714.343h31.549a4.362,4.362,0,0,0,1.714-.343,4.55,4.55,0,0,0,2.427-2.426,4.411,4.411,0,0,0,.343-1.715V2301.1a4.411,4.411,0,0,0-.343-1.716,5.127,5.127,0,0,0-.976-1.5,4.519,4.519,0,0,0-1.452-.978,4.406,4.406,0,0,0-1.714-.343Zm29.28,4.538a2.192,2.192,0,0,1,1.609.658,2.135,2.135,0,0,1,.66,1.557v15.774a2.254,2.254,0,0,1-2.269,2.269h-27.011a2.254,2.254,0,0,1-2.269-2.269v-15.774a2.128,2.128,0,0,1,.66-1.557,2.189,2.189,0,0,1,1.609-.658Zm0,2.215h-27.011v15.774h27.011Zm-11.579,26.7a1.166,1.166,0,0,1-.819.316h-13.506a1.1,1.1,0,0,1-.765-.316,1.086,1.086,0,0,1,0-1.583,1.1,1.1,0,0,1,.765-.316h13.506a1.166,1.166,0,0,1,.819.316,1.036,1.036,0,0,1,.343.792h0A1.033,1.033,0,0,1,1119.109,2330.007Zm-6.12-20.233a1.028,1.028,0,0,1-.29-.765,1.056,1.056,0,0,1,.29-.738.986.986,0,0,1,.765-.317h4.59a1.084,1.084,0,0,1,1.055,1.055.985.985,0,0,1-.317.765,1.054,1.054,0,0,1-.738.291h-4.59A1.027,1.027,0,0,1,1112.99,2309.774Zm.817,4.828a1.038,1.038,0,0,1-.792-.343,1.168,1.168,0,0,1-.316-.819,1.105,1.105,0,0,1,.316-.765,1.038,1.038,0,0,1,.792-.343h4.484a1.123,1.123,0,0,1,.819.343,1.066,1.066,0,0,1,.343.765,1.17,1.17,0,0,1-1.161,1.161Zm8.2-4.854a1.086,1.086,0,0,1,0-1.583,1.166,1.166,0,0,1,.819-.316h4.484a1.108,1.108,0,1,1,0,2.215h-4.484A1.166,1.166,0,0,1,1122.01,2309.749Zm.819,4.854a1.17,1.17,0,0,1-1.161-1.161,1.066,1.066,0,0,1,.343-.765,1.122,1.122,0,0,1,.819-.343h4.484a1.035,1.035,0,0,1,.792.343,1.105,1.105,0,0,1,.316.765,1.168,1.168,0,0,1-.316.819,1.035,1.035,0,0,1-.792.343Zm5.591,8.968a2.254,2.254,0,0,1,2.269,2.269v4.484a2.254,2.254,0,0,1-2.269,2.269H1126.2a2.254,2.254,0,0,1-2.269-2.269v-4.484a2.254,2.254,0,0,1,2.269-2.269Zm0,2.269H1126.2v4.484h2.215Z" transform="translate(-1094.656 -2294.344)" fill="#fff"/>
</svg>
