<svg xmlns="http://www.w3.org/2000/svg" width="45.042" height="45" viewBox="0 0 45.042 45">
  <path id="Trazado_360" data-name="Trazado 360" d="M519.705,3999.935a5.725,5.725,0,0,1-.422,2.189,5.17,5.17,0,0,1-1.266,1.82l-9.18,9.021,5.7,17.145a3.164,3.164,0,0,1,.079,1.847,3.706,3.706,0,0,1-.871,1.583l-1.793,1.845a3.382,3.382,0,0,1-1.239.792,3.437,3.437,0,0,1-1.452.211,3.987,3.987,0,0,1-1.4-.475,3.107,3.107,0,0,1-1.082-1l-8.071-11.711-4.273,4.167,1.214,6.384a3.349,3.349,0,0,1-.079,1.609,3.2,3.2,0,0,1-.819,1.4l-1.582,1.582a3.392,3.392,0,0,1-1.107.739,3.27,3.27,0,0,1-1.266.263,1.832,1.832,0,0,1-.317-.027,2.024,2.024,0,0,0-.316-.025,3.366,3.366,0,0,1-1.5-.686,3.161,3.161,0,0,1-.976-1.32l-3.272-7.808-7.7-3.322a3.224,3.224,0,0,1-1.266-.978,3.33,3.33,0,0,1-.685-1.45,2.957,2.957,0,0,1,.052-1.661,3.43,3.43,0,0,1,.844-1.4l1.582-1.583a3.193,3.193,0,0,1,1.4-.817,3.519,3.519,0,0,1,1.661-.08l6.172,1.214L510.1,3995.98a5.5,5.5,0,0,1,1.82-1.214,5.618,5.618,0,0,1,4.274,0,5.5,5.5,0,0,1,1.82,1.214,5.146,5.146,0,0,1,1.266,1.82,5.593,5.593,0,0,1,.422,2.135Zm-3.272,2.428a3.375,3.375,0,0,0,0-4.8,3.493,3.493,0,0,0-1.08-.738,3.286,3.286,0,0,0-2.586,0,3.493,3.493,0,0,0-1.081.738l-24.479,24.32-7.386-1.477a.256.256,0,0,1-.106-.025.22.22,0,0,0-.1-.027.92.92,0,0,0-.422.106,1.327,1.327,0,0,0-.37.263l-1.583,1.529a1.117,1.117,0,0,0-.289.475,1.254,1.254,0,0,0-.027.581,1,1,0,0,0,.238.475,1.144,1.144,0,0,0,.447.317l8.493,3.64,3.641,8.652a1.154,1.154,0,0,0,.316.449,1.034,1.034,0,0,0,.528.236,1.078,1.078,0,0,0,.527-.025,1.14,1.14,0,0,0,.474-.291l1.583-1.583a1,1,0,0,0,.238-.447,1.194,1.194,0,0,0,.025-.554l-1.477-7.544,7.07-6.964,9.6,13.98a1.391,1.391,0,0,0,.37.342.876.876,0,0,0,.474.132,1.376,1.376,0,0,0,.449-.08,1.564,1.564,0,0,0,.447-.236l1.742-1.847a.82.82,0,0,0,.316-.5,1.2,1.2,0,0,0-.052-.606l-6.12-18.465Zm-38.933,2.215a3.278,3.278,0,0,0,.422,1.4,3.083,3.083,0,0,0,1,1.083l9.918,6.859,1.583-1.636-10.235-7.07a.669.669,0,0,1-.316-.343,2.757,2.757,0,0,1-.159-.447,1.573,1.573,0,0,1,.079-.5.989.989,0,0,1,.238-.4l.052-.052,1.793-1.741a1.118,1.118,0,0,1,.528-.29.927.927,0,0,1,.581.027L496.7,4006l1.741-1.741-14.719-4.959a3.553,3.553,0,0,0-1.82-.052,3.464,3.464,0,0,0-1.609.844l-1.794,1.794h-.052a3.43,3.43,0,0,0-.792,1.24,2.917,2.917,0,0,0-.157,1.45Z" transform="translate(-474.663 -3994.344)" fill="#fff"/>
</svg>
