<svg xmlns="http://www.w3.org/2000/svg" width="33.764" height="45" viewBox="0 0 33.764 45">
  <path id="Icn-Bloqueos" d="M1286.107,823.6v17.989a6.755,6.755,0,0,1-6.753,6.753H1259.1a6.755,6.755,0,0,1-6.753-6.753V823.6a6.756,6.756,0,0,1,6.753-6.753h20.258a6.755,6.755,0,0,1,6.753,6.753Zm-2.269,0a4.38,4.38,0,0,0-1.318-3.218,4.319,4.319,0,0,0-3.165-1.32H1259.1a4.508,4.508,0,0,0-4.538,4.538v17.989a4.318,4.318,0,0,0,1.32,3.165,4.374,4.374,0,0,0,3.218,1.319h20.258a4.5,4.5,0,0,0,4.484-4.484V823.6Zm-24.742-9.022v-1.107a10.129,10.129,0,0,1,20.258,0v1.107h-2.269v-1.107a7.669,7.669,0,0,0-2.294-5.593,7.544,7.544,0,0,0-5.566-2.321,7.925,7.925,0,0,0-7.914,7.914v1.107Zm13.505,16.882a3.376,3.376,0,0,0-5.777-2.374,3.283,3.283,0,0,0-.976,2.374,3.331,3.331,0,0,0,.447,1.715,3.209,3.209,0,0,0,1.189,1.187l-1.636,4.958h6.753l-1.688-4.958a3.427,3.427,0,0,0,1.214-1.187A3.193,3.193,0,0,0,1272.6,831.462Z" transform="translate(-1252.344 -803.344)" fill="#fff"/>
</svg>
