<svg xmlns="http://www.w3.org/2000/svg" width="49.707" height="45" viewBox="0 0 49.707 45">
  <path id="Trazado_359" data-name="Trazado 359" d="M168.386,3034.9h19.474l-1.387,2.33H168.386a2.3,2.3,0,0,1-1.692-.692A2.239,2.239,0,0,1,166,3034.9v-30.8a2.371,2.371,0,0,1,2.386-2.386H173.1v2.386h-4.716Zm4.716-18.977a2.239,2.239,0,0,1,.694-1.638,2.3,2.3,0,0,1,1.692-.692h2.33a2.3,2.3,0,0,1,1.692.692,2.239,2.239,0,0,1,.694,1.638v2.386a2.371,2.371,0,0,1-2.386,2.386h-2.33a2.371,2.371,0,0,1-2.386-2.386Zm4.716,7.1a2.371,2.371,0,0,1,2.386,2.386v2.386a2.239,2.239,0,0,1-.694,1.638,2.3,2.3,0,0,1-1.692.692h-2.33a2.3,2.3,0,0,1-1.692-.692,2.239,2.239,0,0,1-.694-1.638v-2.386a2.371,2.371,0,0,1,2.386-2.386Zm-2-14.537a1.128,1.128,0,0,1-.332-.833v-9.489a1.162,1.162,0,0,1,.332-.8,1.142,1.142,0,0,1,1.665,0,1.162,1.162,0,0,1,.332.8v9.489a1.178,1.178,0,0,1-2,.833Zm16.2-6.77H180.2v2.386h11.818Zm-2.33,16.591a2.371,2.371,0,0,1-2.386,2.386H184.92a2.236,2.236,0,0,1-1.637-.694,2.3,2.3,0,0,1-.692-1.692v-2.386a2.364,2.364,0,0,1,2.33-2.33h2.386a2.308,2.308,0,0,1,1.692.692,2.246,2.246,0,0,1,.694,1.638Zm-.694,5.41a2.307,2.307,0,0,1,.694,1.692v2.386a2.246,2.246,0,0,1-.694,1.638,2.308,2.308,0,0,1-1.692.692H184.92a2.364,2.364,0,0,1-2.33-2.33v-2.386a2.306,2.306,0,0,1,.692-1.692,2.246,2.246,0,0,1,1.637-.694h2.386A2.308,2.308,0,0,1,189,3023.717Zm26.5,2.191a1.263,1.263,0,0,1,.194.917,1.129,1.129,0,0,1-.471.749,1.4,1.4,0,0,1-.334.167,1.079,1.079,0,0,1-.332.055,1.231,1.231,0,0,1-.556-.138,1.066,1.066,0,0,1-.444-.417l-3-4.494-6.992,13.873a.974.974,0,0,1-.888.609,1.13,1.13,0,0,1-.554-.026.844.844,0,0,1-.444-.306l-5.993-5.993-6.159,10.487a1.283,1.283,0,0,1-.444.444,1.157,1.157,0,0,1-.611.167.956.956,0,0,1-.277-.055,2.085,2.085,0,0,1-.277-.112,1.185,1.185,0,0,1-.556-.75,1.3,1.3,0,0,1,.112-.915l6.935-11.82a1.874,1.874,0,0,1,.389-.387.8.8,0,0,1,.5-.167,1.016,1.016,0,0,1,.527.027,1.228,1.228,0,0,1,.471.306l5.882,5.938,6.159-12.152-4.995,3.274a1.09,1.09,0,0,1-.859.193,1.125,1.125,0,0,1-.749-.471,1.262,1.262,0,0,1-.194-.916,1.126,1.126,0,0,1,.471-.749l7.1-4.716a1.261,1.261,0,0,1,.916-.193,1.134,1.134,0,0,1,.749.471Zm-23.471-9.987a2.239,2.239,0,0,1,.694-1.638,2.305,2.305,0,0,1,1.692-.692H196.8a2.364,2.364,0,0,1,2.33,2.33v2.386a2.3,2.3,0,0,1-.692,1.692,2.236,2.236,0,0,1-1.637.694h-2.386a2.371,2.371,0,0,1-2.386-2.386Zm2.747-7.435a1.082,1.082,0,0,1-.36-.833v-9.489a1.237,1.237,0,0,1,1.165-1.165,1.181,1.181,0,0,1,.861.36,1.122,1.122,0,0,1,.36.8v9.489a1.088,1.088,0,0,1-.36.833,1.226,1.226,0,0,1-.861.332A1.153,1.153,0,0,1,194.77,3008.486Zm9.128-4.384h-4.773v-2.386H203.9a2.244,2.244,0,0,1,1.637.694,2.3,2.3,0,0,1,.692,1.692v13.483l-2.33,1.609Z" transform="translate(-166 -2997)" fill="#fff"/>
</svg>
