<svg xmlns="http://www.w3.org/2000/svg" width="45.049" height="45" viewBox="0 0 45.049 45">
  <path id="Icn-Cortes" d="M181.064,2735.122v.145H166.719a2.05,2.05,0,0,1-2.063-2.063v-32.718a2.05,2.05,0,0,1,2.063-2.063H170.8v2.063h-4.078V2733.2H181.4a4.318,4.318,0,0,0-.262.959,6.318,6.318,0,0,0-.072.959ZM170.8,2716.844v-4.077a2.05,2.05,0,0,1,2.063-2.063h4.078a2.05,2.05,0,0,1,2.063,2.063v4.077a2.05,2.05,0,0,1-2.063,2.063H172.86a2.05,2.05,0,0,1-2.063-2.063Zm6.141,4.078a2.05,2.05,0,0,1,2.063,2.063v4.078a2.049,2.049,0,0,1-2.063,2.063H172.86a2.049,2.049,0,0,1-2.063-2.063v-4.078a2.05,2.05,0,0,1,2.063-2.063Zm-3.07-16.359a1.07,1.07,0,0,1-1.007-1.007v-8.2a.938.938,0,0,1,.312-.72,1,1,0,0,1,.7-.287,1.061,1.061,0,0,1,.745.287.943.943,0,0,1,.312.72v8.2a.964.964,0,0,1-.312.7,1.015,1.015,0,0,1-.745.312Zm19.479-4.078H176.938v-2.063h16.408Zm-6.141,10.218a1.933,1.933,0,0,1,1.415.6,1.99,1.99,0,0,1,.6,1.463v4.077a1.99,1.99,0,0,1-.6,1.463,1.933,1.933,0,0,1-1.415.6h-4.127a1.933,1.933,0,0,1-1.415-.6,1.99,1.99,0,0,1-.6-1.463v-4.077a1.99,1.99,0,0,1,.6-1.463,1.933,1.933,0,0,1,1.415-.6Zm-6.141,12.282v4.078a1.99,1.99,0,0,0,.6,1.463,1.934,1.934,0,0,0,1.415.6h.768l4.845-7.532a2.573,2.573,0,0,0-.671-.48,1.808,1.808,0,0,0-.815-.192h-4.127a1.94,1.94,0,0,0-1.415.6,1.993,1.993,0,0,0-.6,1.463Zm28.16,14.248a4.374,4.374,0,0,0,.361-1.007,4.749,4.749,0,0,0,.12-1.055,3.663,3.663,0,0,0-.167-1.1,3.755,3.755,0,0,0-.505-1.007l-9.211-14.345a4.228,4.228,0,0,0-1.486-1.368,3.912,3.912,0,0,0-1.919-.5,4,4,0,0,0-1.968.5,4.228,4.228,0,0,0-1.486,1.368l-9.211,14.345a5.767,5.767,0,0,0-.48,1.007,3.218,3.218,0,0,0-.192,1.1,4.749,4.749,0,0,0,.12,1.055,3.415,3.415,0,0,0,.408,1.007,3.61,3.61,0,0,0,.6.864,3.9,3.9,0,0,0,.838.671,3.971,3.971,0,0,0,1.032.433,4.491,4.491,0,0,0,1.128.143h18.422a4.48,4.48,0,0,0,1.127-.143,3.948,3.948,0,0,0,1.032-.433,4.63,4.63,0,0,0,.792-.671,5.133,5.133,0,0,0,.646-.864Zm-1.822-.982a1.89,1.89,0,0,1-1.775,1.079H187.205a1.927,1.927,0,0,1-1.824-1.079,1.9,1.9,0,0,1,.1-2.088l9.211-14.343a1.688,1.688,0,0,1,.768-.7,2.336,2.336,0,0,1,.96-.215,2.181,2.181,0,0,1,.935.215,2.034,2.034,0,0,1,.792.7l9.211,14.343A1.969,1.969,0,0,1,207.4,2736.25ZM193.346,2710.7h4.078a2.05,2.05,0,0,1,2.063,2.063v2.878A6.107,6.107,0,0,0,198,2715a5.792,5.792,0,0,0-1.583-.216,6.06,6.06,0,0,0-5.039,2.639,1.957,1.957,0,0,1-.071-.287,1.663,1.663,0,0,1-.025-.289v-4.077a2.05,2.05,0,0,1,2.063-2.063Zm7.868,18.734a1,1,0,0,1,.287.7,1.061,1.061,0,0,1-.287.745.943.943,0,0,1-.72.312h-3.07v3.07a1,1,0,0,1-.289.7.935.935,0,0,1-.718.312,1.015,1.015,0,0,1-.745-.312.964.964,0,0,1-.312-.7v-3.07h-3.07a.964.964,0,0,1-.7-.312,1.014,1.014,0,0,1-.312-.745,1.07,1.07,0,0,1,1.007-1.007h3.07v-3.07a.943.943,0,0,1,.312-.72,1.061,1.061,0,0,1,.745-.287.984.984,0,0,1,1.007,1.007v3.07h3.07A.943.943,0,0,1,201.214,2729.437Zm-4.8-24.875a1.015,1.015,0,0,1-.745-.312.964.964,0,0,1-.312-.7v-8.2a.943.943,0,0,1,.312-.72,1.061,1.061,0,0,1,.745-.287,1,1,0,0,1,.7.287.943.943,0,0,1,.312.72v8.2a1.07,1.07,0,0,1-1.007,1.007Zm7.148-4.078h-4.078v-2.063h4.078a2.05,2.05,0,0,1,2.063,2.063V2723.9l-2.063-3.167Z" transform="translate(-164.656 -2694.344)" fill="#fff"/>
</svg>
