<svg xmlns="http://www.w3.org/2000/svg" width="46.214" height="45" viewBox="0 0 46.214 45">
  <path id="Trazado_358" data-name="Trazado 358" d="M474.656,2531.484a1.169,1.169,0,0,1,1.161-1.162h21.366l-1.318,2.269H475.817a1.115,1.115,0,0,1-.819-.343,1.06,1.06,0,0,1-.343-.765Zm4.538-6.753a1.167,1.167,0,0,1,.316-.819,1.035,1.035,0,0,1,.792-.343h20.417l-1.266,2.269H480.3a1.028,1.028,0,0,1-.792-.342,1.1,1.1,0,0,1-.316-.765Zm5.591-5.645a1.177,1.177,0,0,1-1.107-1.107,1.117,1.117,0,0,1,.343-.819,1.06,1.06,0,0,1,.765-.342h19.151l-1.318,2.269Zm36.085,5.645a9.316,9.316,0,0,0-.5-3.113,8.634,8.634,0,0,0-1.5-2.637,10.9,10.9,0,0,0-2.507-2.269,28.851,28.851,0,0,0-3.771-2.11,31.289,31.289,0,0,1-3.138-1.53,9.269,9.269,0,0,1-1.926-1.425,4.969,4.969,0,0,1-1.107-1.636,5.514,5.514,0,0,1-.37-2.11,5.14,5.14,0,0,1,.37-1.926,4.729,4.729,0,0,1,1.055-1.608,4.947,4.947,0,0,1,1.952-1.266,7.708,7.708,0,0,1,2.637-.422,9.788,9.788,0,0,1,3.667.608,11.91,11.91,0,0,1,2.19,1.081l.474.37,1.583-2.743-.422-.316a10.846,10.846,0,0,0-2.77-1.32,13.408,13.408,0,0,0-3.245-.579,1.388,1.388,0,0,1-.289-.027,1.539,1.539,0,0,0-.29-.027v-4.273a1.036,1.036,0,0,0-.343-.792,1.105,1.105,0,0,0-.766-.316,1.163,1.163,0,0,0-.817.316,1.03,1.03,0,0,0-.343.792v4.327a1.562,1.562,0,0,0-.29.025,1.126,1.126,0,0,1-.238.027,9.134,9.134,0,0,0-5.407,2.979,8.236,8.236,0,0,0-2.031,5.566,7.845,7.845,0,0,0,.608,3.113,7.742,7.742,0,0,0,1.82,2.585,12.714,12.714,0,0,0,2.505,1.9,35.065,35.065,0,0,0,3.771,1.9,15.964,15.964,0,0,1,2.8,1.477,9.065,9.065,0,0,1,1.9,1.688,6.136,6.136,0,0,1,1.028,1.82,6.268,6.268,0,0,1,.343,2.085,5.971,5.971,0,0,1-.474,2.374,5.764,5.764,0,0,1-1.372,1.952,6.041,6.041,0,0,1-2.163,1.293,8.328,8.328,0,0,1-2.8.449,11.2,11.2,0,0,1-3.508-.581,9.716,9.716,0,0,1-3.034-1.583l-.528-.368-1.582,2.743.422.316a11.555,11.555,0,0,0,3.429,1.688,14.941,14.941,0,0,0,4.273.74h.528v4.272a1.053,1.053,0,0,0,.343.765,1.111,1.111,0,0,0,.817.342,1.176,1.176,0,0,0,1.109-1.107v-4.327a1.586,1.586,0,0,0,.29-.025,1.388,1.388,0,0,1,.289-.027,7.944,7.944,0,0,0,5.7-3.56,10.859,10.859,0,0,0,1.636-5.566Z" transform="translate(-474.656 -2494.344)" fill="#fff"/>
</svg>
