<svg xmlns="http://www.w3.org/2000/svg" width="45" height="45" viewBox="0 0 45 45">
  <path id="Icn-Pagos" d="M674.656,2618.185a21.449,21.449,0,0,1-1.776,8.711A22.623,22.623,0,0,1,660.9,2638.88a21.45,21.45,0,0,1-8.711,1.775,21.849,21.849,0,0,1-8.768-1.775,22.623,22.623,0,0,1-11.985-11.985,21.449,21.449,0,0,1-1.776-8.711,21.847,21.847,0,0,1,1.776-8.768,22.623,22.623,0,0,1,11.985-11.985,21.874,21.874,0,0,1,8.768-1.776,21.475,21.475,0,0,1,8.711,1.776,22.623,22.623,0,0,1,11.985,11.985,21.847,21.847,0,0,1,1.776,8.768Zm-2.5,0a19.828,19.828,0,0,0-1.554-7.823,21.187,21.187,0,0,0-4.3-6.327,19.613,19.613,0,0,0-6.353-4.272,19.7,19.7,0,0,0-15.593,0,20.062,20.062,0,0,0-10.6,10.6,19.674,19.674,0,0,0,0,15.591,19.591,19.591,0,0,0,4.272,6.353,21.145,21.145,0,0,0,6.325,4.3,20.338,20.338,0,0,0,15.593,0,20.274,20.274,0,0,0,10.653-10.653,19.692,19.692,0,0,0,1.554-7.768Zm-13.374,4.993a7.484,7.484,0,0,1-1.165,3.885,5.618,5.618,0,0,1-3.995,2.5l-.055.055h-.222v2.775a1.237,1.237,0,0,1-1.165,1.165,1.172,1.172,0,0,1-.861-.36,1.114,1.114,0,0,1-.36-.8v-2.718a11.348,11.348,0,0,1-2.773-.584,8.113,8.113,0,0,1-2.276-1.136l-.444-.334,1.332-2.385.611.5a7.257,7.257,0,0,0,1.971,1,6.9,6.9,0,0,0,2.246.389,5.523,5.523,0,0,0,1.8-.277,3.5,3.5,0,0,0,1.358-.833,3.439,3.439,0,0,0,.861-1.193,3.758,3.758,0,0,0,.305-1.525,3.719,3.719,0,0,0-.222-1.276,4.162,4.162,0,0,0-.666-1.165,6.677,6.677,0,0,0-1.248-1.055,11,11,0,0,0-1.8-.943,22.8,22.8,0,0,1-2.553-1.305,9.031,9.031,0,0,1-1.719-1.3,5.3,5.3,0,0,1-1.305-1.831,5.726,5.726,0,0,1-.416-2.219,6.136,6.136,0,0,1,.36-2.109,5.953,5.953,0,0,1,2.635-3.107,8.236,8.236,0,0,1,1.942-.776v-2.219a1.088,1.088,0,0,1,.36-.833,1.228,1.228,0,0,1,.861-.332,1.162,1.162,0,0,1,.8.332,1.088,1.088,0,0,1,.36.833v2.107a.244.244,0,0,1,.11.029.237.237,0,0,0,.112.028,8.82,8.82,0,0,1,2.274.387,7.22,7.22,0,0,1,1.943.945l.5.332-1.332,2.386-.611-.444a11.138,11.138,0,0,0-1.413-.694,6,6,0,0,0-2.36-.416,4.679,4.679,0,0,0-1.635.277,3.4,3.4,0,0,0-1.25.778,4.036,4.036,0,0,0-.637,1,2.934,2.934,0,0,0-.25,1.221,3.423,3.423,0,0,0,.222,1.275,2.66,2.66,0,0,0,.723,1,9.25,9.25,0,0,0,1.248.914,14.388,14.388,0,0,0,2.081,1.028,19.456,19.456,0,0,1,2.552,1.442,9.26,9.26,0,0,1,1.776,1.553,5.377,5.377,0,0,1,1.055,1.831,6.991,6.991,0,0,1,.332,2.219Z" transform="translate(-629.656 -2595.656)" fill="#fff"/>
</svg>
