<svg xmlns="http://www.w3.org/2000/svg" width="35.979" height="45" viewBox="0 0 35.979 45">
  <path id="Icn-Extractos" d="M477.344,2795.269a2.188,2.188,0,0,1,.658-1.609,2.127,2.127,0,0,1,1.557-.66h31.549a2.127,2.127,0,0,1,1.556.66,2.188,2.188,0,0,1,.658,1.609v40.516a2.249,2.249,0,0,1-2.215,2.215H479.559a2.248,2.248,0,0,1-2.215-2.215Zm33.763,0H479.559v40.516h31.549Zm-4.538,21.365a1.079,1.079,0,0,0-1.107-1.107H485.2a1.108,1.108,0,1,0,0,2.215h20.258a1.079,1.079,0,0,0,1.107-1.108Zm-.316,5.961a1.074,1.074,0,0,0-.792-.316H485.2a1.108,1.108,0,1,0,0,2.215h20.258a1.079,1.079,0,0,0,1.107-1.107h0A1.074,1.074,0,0,0,506.254,2822.6Zm0,6.752a1.076,1.076,0,0,0-.792-.316H494.226a1.167,1.167,0,0,0-.819.316,1.086,1.086,0,0,0,0,1.583,1.167,1.167,0,0,0,.819.316h11.237a1.079,1.079,0,0,0,1.107-1.107h0A1.075,1.075,0,0,0,506.254,2829.348Z" transform="translate(-477.344 -2793)" fill="#fff"/>
</svg>
